<svg xmlns="http://www.w3.org/2000/svg" width="40" height="40" viewBox="0 0 40 40" fill="#fff" ><g fill-rule="nonzero"><path d="M23.909 37.656h-1.07l-9.13-29.51a1.171 1.171 0 0 0-1.12-.825h-.002c-.514 0-.968.337-1.119.829L2.434 37.656H1.172a1.172 1.172 0 1 0 0 2.344h5.031a1.172 1.172 0 1 0 0-2.344H4.885l1.447-4.726h7.638l1.451 4.726h-1.284a1.172 1.172 0 0 0 0 2.344h9.772a1.172 1.172 0 1 0 0-2.344Zm-16.86-7.07 3.097-10.114 3.105 10.115H7.05ZM38.828 37.656h-1.727V26.948a4.695 4.695 0 0 0-4.687-4.692h-.747a4.695 4.695 0 0 0-4.686 4.692v.308a1.172 1.172 0 0 0 2.343 0v-.308a2.348 2.348 0 0 1 2.343-2.349h.747a2.348 2.348 0 0 1 2.343 2.349v.916l-5.64 2.208a4.718 4.718 0 0 0-3.015 4.42v.48a4.745 4.745 0 0 0 4.742 4.747 4.74 4.74 0 0 0 3.352-1.391l.56-.562v.182c0 1.132.92 2.052 2.051 2.052h2.021a1.172 1.172 0 1 0 0-2.344Zm-6.29-.984a2.394 2.394 0 0 1-2.13.663 2.401 2.401 0 0 1-1.962-2.363v-.48c0-.996.598-1.875 1.525-2.237l4.786-1.874v4.068l-2.22 2.223ZM38.828 0c-.647 0-1.172.525-1.172 1.172v.784H2.344v-.784a1.172 1.172 0 1 0-2.344 0v3.912a1.172 1.172 0 1 0 2.344 0V4.3h35.312v.784a1.172 1.172 0 1 0 2.344 0V1.172C40 .525 39.475 0 38.828 0Z"></path></g></svg>