<svg xmlns="http://www.w3.org/2000/svg" width="40" height="40" viewBox="0 0 40 40" fill="#fff"><g fill-rule="nonzero"><path d="m31.141 31.7-8.885-5.43a1.582 1.582 0 0 0-2.162.503 1.54 1.54 0 0 0 .509 2.135l4.188 2.56H6.283c-1.732 0-3.142-1.392-3.142-3.103V8.508c0-.857-.703-1.551-1.57-1.551C.703 6.957 0 7.65 0 8.507v19.858c0 3.422 2.818 6.205 6.283 6.205H24.79l-4.188 2.56a1.54 1.54 0 0 0-.51 2.135 1.582 1.582 0 0 0 2.163.503l8.885-5.43c1-.61.982-2.038 0-2.638ZM33.717 5.43H15.21l4.188-2.56a1.54 1.54 0 0 0 .51-2.135 1.582 1.582 0 0 0-2.163-.503L8.86 5.662a1.543 1.543 0 0 0 0 2.638l8.885 5.43a1.582 1.582 0 0 0 2.162-.503 1.54 1.54 0 0 0-.509-2.135l-4.188-2.56h18.508c1.732 0 3.142 1.392 3.142 3.103v19.857c0 .857.703 1.551 1.57 1.551.868 0 1.571-.694 1.571-1.55V11.634c0-3.421-2.818-6.205-6.283-6.205Z"></path></g></svg>