<svg xmlns="http://www.w3.org/2000/svg" width="17" height="40" viewBox="0 0 17 40" fill="#fff" ><g fill-rule="nonzero"><path d="M8.321 24.96a4.996 4.996 0 0 1-4.99-4.99 4.996 4.996 0 0 1 4.99-4.991 4.996 4.996 0 0 1 4.99 4.99 4.996 4.996 0 0 1-4.99 4.99Zm0-7.486a2.498 2.498 0 0 0-2.495 2.495 2.498 2.498 0 0 0 2.495 2.495 2.498 2.498 0 0 0 2.495-2.495 2.498 2.498 0 0 0-2.495-2.495ZM8.321 39.93c-.449 0-.878-.181-1.21-.51L.36 30.996a1.737 1.737 0 0 1-.356-1.046c0-.917.747-1.664 1.664-1.664h13.307c.917 0 1.663.747 1.663 1.664a1.726 1.726 0 0 1-.356 1.044L9.63 39.312c-.43.437-.859.618-1.308.618Zm-4.937-9.148 4.942 6.176 4.934-6.176H3.384Zm11.6.01h.02-.02ZM14.975 11.652H1.668A1.666 1.666 0 0 1 .004 9.99 1.727 1.727 0 0 1 .36 8.944L7.014.627c.858-.872 1.851-.765 2.518-.106l6.75 8.423a1.727 1.727 0 0 1 .356 1.044c0 .918-.746 1.664-1.663 1.664ZM3.383 9.157h9.875L8.316 2.981 3.383 9.157Z"></path></g></svg>