<svg xmlns="http://www.w3.org/2000/svg" width="40" height="40" viewBox="0 0 40 40" fill="#fff" ><g fill-rule="nonzero"><path d="M27.813 9.219H1.563a1.562 1.562 0 1 0 0 3.125h26.25a1.562 1.562 0 1 0 0-3.125ZM38.438 0H1.562a1.562 1.562 0 1 0 0 3.125h36.876a1.562 1.562 0 1 0 0-3.125ZM38.438 36.875H1.562a1.562 1.562 0 1 0 0 3.125h36.876a1.562 1.562 0 1 0 0-3.125ZM27.813 27.656H1.563a1.562 1.562 0 1 0 0 3.125h26.25a1.562 1.562 0 1 0 0-3.125ZM38.438 18.438H1.562a1.562 1.562 0 1 0 0 3.125h36.876a1.562 1.562 0 1 0 0-3.125Z"></path></g></svg>