<svg xmlns="http://www.w3.org/2000/svg" width="33" height="40" viewBox="0 0 33 40" fill="#fff" ><g fill-rule="nonzero"><path d="M.035 0v40h32.743V0H.035Zm30.4 37.656H2.377V2.344h7.023v5.495h14.01V2.344h7.023v35.312ZM21.067 2.344v3.15h-9.323v-3.15h9.323Z"></path><path d="M11.627 12.161H25.99v2.344H11.628zM6.823 12.161h2.46v2.344h-2.46zM11.627 17.161H25.99v2.344H11.628zM6.823 17.161h2.46v2.344h-2.46zM6.823 22.161h2.46v2.344h-2.46zM11.627 22.161H25.99v2.344H11.628zM6.823 29.661h6.25v2.344h-6.25zM19.74 30.843l-1.672-1.672-1.657 1.658 3.329 3.328 4.995-4.995-1.657-1.657z"></path></g></svg>