<svg xmlns="http://www.w3.org/2000/svg" width="40" height="40" viewBox="0 0 40 40" fill="#fff" ><g fill-rule="nonzero"><path d="m39.657 33.028-6.759-6.759 3.315-3.314a1.172 1.172 0 0 0-.458-1.94l-19.888-6.63a1.172 1.172 0 0 0-1.482 1.482l6.63 19.888a1.172 1.172 0 0 0 1.94.458l3.314-3.315 6.759 6.759a1.168 1.168 0 0 0 1.657 0l4.972-4.972c.457-.458.457-1.2 0-1.657Zm-5.8 4.143-6.76-6.758a1.172 1.172 0 0 0-1.656 0l-2.803 2.802L17.35 17.35l15.865 5.288-2.803 2.803a1.172 1.172 0 0 0 0 1.657l6.759 6.758-3.315 3.315ZM15.234 9.375c.648 0 1.172-.525 1.172-1.172V1.172a1.172 1.172 0 0 0-2.343 0v7.031c0 .647.524 1.172 1.171 1.172ZM6.12 4.462a1.172 1.172 0 1 0-1.658 1.657l4.972 4.972a1.172 1.172 0 1 0 1.657-1.657L6.12 4.462ZM9.434 19.378l-4.972 4.971a1.172 1.172 0 1 0 1.657 1.658l4.972-4.972a1.172 1.172 0 1 0-1.657-1.657ZM21.035 11.091l4.972-4.972a1.172 1.172 0 1 0-1.658-1.657l-4.971 4.972a1.172 1.172 0 1 0 1.657 1.657ZM9.375 15.234c0-.647-.525-1.171-1.172-1.171H1.172a1.172 1.172 0 0 0 0 2.343h7.031c.647 0 1.172-.524 1.172-1.172Z"></path></g></svg>