<svg xmlns="http://www.w3.org/2000/svg" width="40" height="40" viewBox="0 0 40 40" fill="#fff" ><g fill-rule="evenodd"><path d="M35.429 12h.714a.666.666 0 1 0 0-1.333h-.714a.666.666 0 1 0 0 1.333ZM31.857 12h.714a.666.666 0 1 0 0-1.333h-.714a.666.666 0 1 0 0 1.333ZM39 10.667a.666.666 0 0 0-.275 1.274.667.667 0 0 0 1.275-.274v-1h-1ZM39.333 17.308a.666.666 0 0 0-.666.667v.7a.666.666 0 1 0 1.333 0v-.7a.666.666 0 0 0-.667-.667ZM39.333 34.829a.666.666 0 0 0-.666.666v.702a.666.666 0 1 0 1.333 0v-.702a.666.666 0 0 0-.667-.666ZM39.333 13.803a.666.666 0 0 0-.666.667v.701a.666.666 0 1 0 1.333 0v-.701a.666.666 0 0 0-.667-.667ZM39.333 20.812a.666.666 0 0 0-.666.667v.701a.666.666 0 1 0 1.333 0v-.701a.666.666 0 0 0-.667-.667ZM39.333 24.317a.666.666 0 0 0-.666.666v.701a.666.666 0 1 0 1.333 0v-.7a.666.666 0 0 0-.667-.667ZM39.333 27.82a.666.666 0 0 0-.666.667v.701a.666.666 0 1 0 1.333 0v-.701a.666.666 0 0 0-.667-.667ZM39.333 31.325a.666.666 0 0 0-.666.666v.701a.666.666 0 1 0 1.333 0v-.7a.666.666 0 0 0-.667-.667ZM39.333 38.333c-.27 0-.503.161-.608.392A.667.667 0 0 0 39 40h1v-1a.666.666 0 0 0-.667-.667ZM18.675 38.667h-.7a.666.666 0 1 0 0 1.333h.7a.666.666 0 1 0 0-1.333ZM22.18 38.667h-.701a.666.666 0 1 0 0 1.333h.701a.666.666 0 1 0 0-1.333ZM15.171 38.667h-.701a.666.666 0 1 0 0 1.333h.701a.666.666 0 1 0 0-1.333ZM36.197 38.667h-.702a.666.666 0 1 0 0 1.333h.702a.666.666 0 1 0 0-1.333ZM25.683 38.667h-.7a.666.666 0 1 0 0 1.333h.7a.666.666 0 1 0 0-1.333ZM32.692 38.667h-.7a.666.666 0 1 0 0 1.333h.7a.666.666 0 1 0 0-1.333ZM29.188 38.667h-.701a.666.666 0 1 0 0 1.333h.701a.666.666 0 1 0 0-1.333ZM11.941 38.725a.667.667 0 0 0-1.274.275v1h1a.666.666 0 0 0 .274-1.275ZM12 31.857a.666.666 0 1 0-1.333 0v.714a.666.666 0 1 0 1.333 0v-.714ZM11.333 34.762a.666.666 0 0 0-.666.667v.714a.666.666 0 1 0 1.333 0v-.714a.666.666 0 0 0-.667-.667Z"></path><path d="M11.333 29.667a.657.657 0 0 0 .565-.334H12V12h17.333v-.102a.656.656 0 0 0 .334-.565.656.656 0 0 0-.334-.564V0H0v29.333h10.769c.116.196.32.334.564.334Zm-10-28.334H28v9.334H10.667V28H1.333V1.333Z" fill-rule="nonzero"></path></g></svg>