<svg xmlns="http://www.w3.org/2000/svg" width="40" height="40" viewBox="0 0 40 40" fill="#fff"><g fill-rule="nonzero"><path d="M34.962 9.99a4.995 4.995 0 0 1 4.995-4.995A4.995 4.995 0 0 1 34.962 0a4.995 4.995 0 0 1-4.994 4.995 4.995 4.995 0 0 1 4.994 4.994ZM36.21 14.984a3.746 3.746 0 0 1-3.745 3.746 3.746 3.746 0 0 1 3.746 3.746 3.746 3.746 0 0 1 3.746-3.746 3.746 3.746 0 0 1-3.746-3.746ZM17.481 14.984a7.492 7.492 0 0 1 7.492-7.492A7.492 7.492 0 0 1 17.48 0 7.492 7.492 0 0 1 9.99 7.492a7.492 7.492 0 0 1 7.492 7.492ZM27.47 7.492 0 34.962l4.995 4.995 27.47-27.47-4.995-4.995ZM23.207 15.5l3.532-3.532 1.248 1.25-3.531 3.53-1.249-1.248Z"></path></g></svg>