<svg xmlns="http://www.w3.org/2000/svg" width="49" height="40" viewBox="0 0 49 40" fill="#fff" ><g fill-rule="nonzero"><circle cx="26.597" cy="28.866" r="1.108"></circle><circle cx="7.758" cy="35.515" r="1.108"></circle><path d="M45.437.052H7.757c-1.883 0-3.324 1.44-3.324 3.325v11.082c0 .665.443 1.108 1.108 1.108s1.108-.443 1.108-1.108V3.377c0-.665.444-1.109 1.109-1.109h37.68c.664 0 1.107.444 1.107 1.109v26.597c0 .665-.443 1.108-1.108 1.108H18.84c-.665 0-1.108.444-1.108 1.108 0 .665.443 1.109 1.108 1.109h2.216v3.324c0 .665-.443 1.109-1.108 1.109H18.84c-.665 0-1.108.443-1.108 1.108s.443 1.108 1.108 1.108h15.515c.665 0 1.108-.443 1.108-1.108s-.443-1.108-1.108-1.108h-1.108c-.665 0-1.108-.444-1.108-1.109V33.3h13.298c1.884 0 3.325-1.441 3.325-3.325V3.377c0-1.884-1.44-3.325-3.325-3.325Zm-22.386 37.68c.11-.333.222-.665.222-1.109V33.3h6.649v3.324c0 .444.11.776.222 1.109H23.05Z"></path><path d="M43.22 24.433H18.84c-.665 0-1.108.443-1.108 1.108s.443 1.108 1.108 1.108h24.38c.666 0 1.109-.443 1.109-1.108s-.443-1.108-1.108-1.108ZM12.19 17.784H3.325C1.44 17.784 0 19.224 0 21.108v15.515c0 1.884 1.44 3.325 3.325 3.325h8.865c1.884 0 3.325-1.44 3.325-3.325V21.108c0-1.884-1.44-3.324-3.325-3.324Zm1.109 18.84c0 .664-.444 1.108-1.109 1.108H3.325c-.665 0-1.109-.444-1.109-1.109V21.108c0-.665.444-1.108 1.109-1.108h8.865c.665 0 1.109.443 1.109 1.108v15.515Z"></path></g></svg>