<svg width="1600" height="600" viewBox="0 0 1600 600" fill="none" xmlns="http://www.w3.org/2000/svg">
<path d="M2161.49 1117.81C2202.27 1066.68 2232.74 1008.94 2252.03 946.067C2271.81 881.578 2278.87 814.964 2273 748.061C2266.92 678.803 2247.17 612.275 2214.33 550.33C2181.48 488.384 2137.47 434.735 2083.54 390.855C2031.46 348.479 1972.35 316.957 1907.87 297.171C1843.39 277.385 1776.78 270.332 1709.88 276.2C1640.63 282.285 1574.11 302.027 1512.17 334.879L1244.22 477.039L1244.33 477.27L1219.56 490.408L1219.68 490.639L1194.91 503.777L1195.02 504.008L1170.25 517.146L1170.37 517.377L1145.6 530.515L1145.71 530.746L1120.94 543.884L1121.06 544.115L1096.29 557.253L1096.41 557.484L1071.64 570.622L1071.75 570.853L1046.98 583.991L1047.1 584.222L1022.33 597.36L1022.36 597.403L1008.54 604.731L1008.15 604.774L993.179 612.723H992.861L977.832 620.701H977.557L962.499 628.665L962.253 628.622L947.166 636.629L946.949 636.571L931.833 644.592L931.645 644.52L916.514 652.556L916.355 652.469L901.21 660.505L901.066 660.418L885.906 668.469L885.776 668.367L870.602 676.418L870.487 676.317L855.298 684.381L855.182 684.266L839.979 692.331L839.878 692.215L824.675 700.28L824.589 700.164L809.371 708.243L809.285 708.113L794.067 716.192L793.995 716.062L786.899 719.835C740.279 738.537 691.491 750.229 641.243 754.637C574.882 760.462 508.825 753.467 444.863 733.839C380.9 714.212 322.271 682.951 270.607 640.907C217.122 597.389 173.464 544.173 140.876 482.719C108.288 421.279 88.7066 355.287 82.6804 286.592C76.8564 220.238 83.8509 154.159 103.476 90.1899C123.101 26.2209 154.36 -32.4149 196.384 -84.0843C206.573 -96.6006 217.31 -108.568 228.539 -120H227.036C216.053 -108.77 205.532 -97.0486 195.546 -84.7781C153.42 -32.993 122.104 25.7584 102.436 89.8719C82.7671 153.985 75.7581 220.195 81.5965 286.693C87.6372 355.532 107.262 421.669 139.923 483.239C172.583 544.809 216.313 598.14 269.928 641.759C321.707 683.89 380.452 715.21 444.559 734.88C494.07 750.07 544.838 757.716 596.025 757.716C611.098 757.716 626.228 757.051 641.344 755.721C688.138 751.617 733.675 741.211 777.376 724.72L771.364 727.914C724.773 746.602 676.028 758.294 625.867 762.702C559.549 768.541 493.434 761.56 429.428 741.919C365.481 722.292 306.866 691.044 255.274 649.073C201.818 605.584 158.146 552.353 125.543 490.885C92.9554 429.459 73.3881 363.482 67.3618 294.859C61.5379 228.548 68.518 162.455 88.1575 98.457C107.783 34.488 139.041 -24.1333 181.022 -75.7449C193.711 -91.3397 207.252 -106.082 221.559 -119.986H219.593C205.633 -106.342 192.396 -91.9034 179.982 -76.641C137.856 -24.8415 106.511 33.9244 86.8424 98.0523C67.174 162.18 60.165 228.418 66.0034 294.931C72.0441 363.799 91.6836 429.936 124.344 491.535C157.004 553.119 200.763 606.465 254.378 650.099C306.172 692.229 364.932 723.578 429.053 743.248C478.578 758.438 529.36 766.084 580.562 766.084C595.649 766.084 610.765 765.419 625.896 764.09C672.343 760.014 717.547 749.723 760.945 733.449L757.086 735.502C710.148 754.464 661.027 766.315 610.505 770.767C544.216 776.62 478.072 769.64 414.023 749.983C350.09 730.371 291.504 699.123 239.97 657.21C186.543 613.75 142.842 560.505 110.225 499.022C77.6513 437.611 58.084 371.647 52.0578 303.111C46.2194 236.859 53.1994 170.736 72.8389 106.71C92.464 42.7407 123.722 -15.8662 165.646 -67.42C180.892 -86.18 197.382 -103.697 214.983 -120H212.527C195.402 -104.015 179.317 -86.8737 164.403 -68.5329C122.263 -16.7189 90.9177 42.0759 71.2348 106.204C51.5664 170.346 44.543 236.599 50.3814 303.14C56.4221 372.023 76.0616 438.189 108.736 499.788C141.411 561.386 185.17 614.761 238.814 658.395C290.622 700.54 349.411 731.888 413.546 751.573C463.086 766.778 513.883 774.424 565.099 774.424C580.186 774.424 595.317 773.759 610.447 772.429C656.547 768.382 701.419 758.222 744.528 742.164L742.808 743.075C695.523 762.326 646.027 774.322 595.129 778.817C528.869 784.685 462.696 777.719 398.589 758.048C334.656 738.436 276.099 707.188 224.622 665.347C171.21 621.93 127.494 568.671 94.8629 507.159C62.2894 445.748 42.7366 379.799 36.7103 311.35C30.8719 245.14 37.852 179.018 57.4915 114.962C77.1166 50.9933 108.361 -7.59908 150.241 -59.0806C168.117 -81.0636 187.699 -101.385 208.798 -120H205.836C185.343 -101.76 166.282 -81.8875 148.81 -60.4103C106.655 -8.58188 75.2957 50.2273 55.6128 114.384C35.93 178.541 28.921 244.822 34.7594 311.378C40.8145 380.276 60.4541 446.471 93.1288 508.084C125.818 569.711 169.591 623.086 223.235 666.734C275.058 708.894 333.861 740.257 398.011 759.942C447.565 775.146 498.376 782.792 549.607 782.792C564.694 782.792 579.825 782.127 594.97 780.797C640 776.837 683.861 767.038 726.044 751.631C679.164 770.579 630.116 782.416 579.723 786.882C513.507 792.764 447.276 785.798 383.126 766.128C319.207 746.515 260.664 715.282 209.261 673.498C155.877 630.11 112.132 576.837 79.4866 515.31C46.9275 453.914 27.3747 387.979 21.3484 319.617C15.5101 253.465 22.4757 187.314 42.1296 123.229C61.7547 59.2605 92.9987 0.682495 134.821 -50.7413C155.4 -76.0484 178.219 -99.1732 203.075 -119.986H199.549C175.473 -99.5779 153.276 -76.9879 133.174 -52.2733C91.0044 -0.430389 59.6448 58.3933 39.9475 122.565C20.2646 186.736 13.2412 253.032 19.0796 319.617C25.1347 388.543 44.7742 454.738 77.4634 516.38C110.153 578.022 153.94 631.411 207.613 675.074C259.45 717.247 318.268 748.61 382.432 768.31C432.001 783.514 482.826 791.174 534.071 791.174C549.173 791.174 564.304 790.51 579.449 789.18C621.531 785.48 662.588 776.693 702.228 762.977C657.877 780.031 611.661 790.755 564.289 794.961C498.102 800.844 431.842 793.906 367.648 774.207C303.744 754.594 245.23 723.376 193.884 681.664C140.53 638.305 96.7561 585.031 64.0958 523.462C31.5367 462.08 11.9984 396.16 5.9721 327.869C0.133717 261.761 7.08486 195.596 26.7533 131.482C46.3783 67.5131 77.6224 8.96405 119.387 -42.4163C142.683 -71.12 168.941 -97.0486 197.801 -119.971H193.696C165.791 -97.4967 140.298 -72.175 117.494 -44.1362C75.3101 7.7211 43.9361 66.5592 24.2532 130.759C4.55586 194.96 -2.46755 261.27 3.38529 327.855C9.44045 396.796 29.0944 463.019 61.798 524.676C94.5017 586.332 138.304 639.75 191.977 683.413C243.828 725.601 302.66 756.979 366.854 776.664C416.437 791.883 467.277 799.528 518.536 799.528C533.638 799.528 548.783 798.864 563.928 797.534C602.643 794.137 640.506 786.448 677.184 774.554C635.766 789.556 592.788 799.109 548.855 803.026C482.696 808.923 416.408 802 352.157 782.286C288.267 762.688 229.767 731.469 178.493 689.816C125.168 646.5 81.3653 593.197 48.705 531.613C16.1604 470.246 -3.37799 404.34 -9.40424 336.136C-15.2426 270.086 -8.30593 203.892 11.3625 139.764C30.9876 75.8091 62.2316 17.2601 103.938 -34.0625C130.153 -66.3071 160.039 -95.0541 193.176 -119.971H168.666L27.3747 -45.0179C11.3625 -36.5195 -4.08611 -27.2696 -18.9711 -17.297V14.4706C-18.9711 14.4706 -18.8699 14.355 -18.8121 14.3116C-18.8699 14.3695 -18.9133 14.4273 -18.9711 14.4851V22.6366C-12.1356 14.991 -5.08326 7.54766 2.20027 0.321167C-5.08326 8.03906 -12.1356 16.0171 -18.9711 24.212V32.2767C-5.40119 15.5835 9.20922 -0.184692 24.759 -15.0135C13.5736 -3.61005 2.86504 8.32811 -7.29433 20.8155C-11.2974 25.7295 -15.1704 30.7303 -18.9711 35.7744V43.8536C-14.0865 37.2197 -9.05741 30.6869 -3.85489 24.2842C11.507 5.36525 28.1984 -12.3686 46.0893 -28.8739C32.794 -15.7506 20.1779 -1.90459 8.28433 12.7074C-1.38369 24.6022 -10.4592 36.8728 -18.9855 49.4758V57.7284C-9.51985 43.3188 0.639515 29.3717 11.5359 15.9593C28.5453 -4.96863 47.1587 -24.4513 67.2318 -42.4163C51.8843 -27.7176 37.4184 -12.0361 23.8919 4.58479C8.06756 24.0385 -6.23937 44.4751 -18.9855 65.8077V74.3927C-5.47345 50.9644 9.84509 28.649 26.9267 7.61992C46.046 -15.9096 67.1595 -37.6179 90.1084 -57.3463C72.0441 -40.6964 55.1215 -22.7603 39.485 -3.52334C16.8396 24.3131 -2.66987 54.2019 -18.9711 85.8395V94.7715C-2.12071 60.7202 18.4003 28.7646 42.3464 -0.719452C63.2143 -26.4024 86.4811 -49.903 111.872 -71.0333C91.4669 -52.8514 72.5066 -33.0508 55.0926 -11.6459C24.6723 25.744 -0.111959 66.7905 -18.9711 110.858V120.57C0.162619 73.6123 25.9151 30.1088 57.7372 -9.05884C80.2236 -36.7363 105.456 -61.8412 133.159 -84.1999C110.572 -64.6595 89.7182 -43.1679 70.7001 -19.783C31.002 29.0248 0.870739 84.004 -18.9711 143.825V155.185C0.668419 91.6641 31.7824 33.5052 73.1424 -17.3838C97.7532 -47.6628 125.616 -74.8922 156.397 -98.7541C130.862 -77.5371 107.436 -53.8776 86.2932 -27.8911C44.095 23.9952 12.692 82.8767 -7.0053 147.106C-11.7309 162.513 -15.7051 178.035 -18.9711 193.659V210.352C-15.286 189.424 -10.3002 168.612 -3.98495 148.031C15.6401 84.0762 46.8841 25.5416 88.5332 -25.7087C114.95 -58.2135 145.125 -87.1773 178.609 -112.268C150.501 -89.6921 124.835 -64.2259 101.886 -36.0137C59.6881 15.8581 28.314 74.7107 8.61671 138.925C-11.0806 203.14 -18.104 269.465 -12.2512 336.079C-6.19602 405.048 13.4579 471.286 46.176 532.957C78.8941 594.628 122.696 648.061 176.398 691.752C228.264 733.955 287.111 765.333 351.318 785.032C400.916 800.251 451.77 807.897 503.044 807.897C518.146 807.897 533.291 807.232 548.451 805.902C584.666 802.722 620.115 795.756 654.553 785.148C615.361 798.69 574.824 807.391 533.464 811.091C467.335 817.002 401.002 810.079 336.722 790.351C272.833 770.753 214.362 739.548 163.16 697.953C109.864 654.666 66.0323 601.363 33.3576 539.75C7.79298 491.564 -9.70772 440.559 -18.9711 387.878V404.499C-9.07186 451.919 7.47505 497.706 30.554 541.239C63.2721 602.939 107.103 656.371 160.819 700.077C212.7 742.294 271.575 773.686 335.797 793.386C385.409 808.605 436.278 816.265 487.567 816.265C502.668 816.265 517.828 815.6 532.987 814.27C566.399 811.336 599.161 805.18 631.084 795.93C594.392 807.94 556.587 815.716 518.088 819.17C452.002 825.096 385.626 818.187 321.288 798.444C257.413 778.846 198.971 747.657 147.827 706.119C94.5595 662.861 50.6993 609.544 18.0102 547.916C2.82168 519.285 -9.49095 489.642 -18.9566 459.262V470.506C-9.91004 497.547 1.37654 523.939 14.9609 549.535C47.6934 611.249 91.5247 664.696 145.255 708.417C197.15 750.634 256.04 782.04 320.277 801.754C369.903 816.988 420.786 824.633 472.089 824.633C487.205 824.633 502.35 823.968 517.524 822.639C547.569 819.994 577.093 814.776 605.953 807.015C572.31 817.291 537.785 824.07 502.697 827.22C436.64 833.16 370.235 826.252 305.854 806.509C241.993 786.911 183.566 755.736 132.495 714.256C79.2554 671.027 35.3663 617.695 2.66272 556.039C-5.34338 540.964 -12.5402 525.601 -18.9566 510.006V519.632C-13.3928 532.524 -7.30878 545.271 -0.661116 557.802C32.0859 619.531 75.9316 673.007 129.676 716.727C181.586 758.959 240.49 790.38 304.756 810.094C354.396 825.327 405.294 832.987 456.612 832.987C471.728 832.987 486.887 832.322 502.061 830.993C529.49 828.579 556.485 823.983 582.946 817.305C551.717 826.324 519.75 832.366 487.321 835.285C421.292 841.24 354.844 834.346 290.42 814.574C226.573 794.99 168.161 763.801 117.147 722.407C63.9369 679.222 20.0189 625.876 -12.6992 564.19C-14.8524 560.143 -16.9334 556.068 -18.9711 551.977V560.88C-18.0751 562.615 -17.208 564.364 -16.2831 566.098C16.4638 627.841 60.3384 681.332 114.098 725.067C166.022 767.313 224.94 798.733 289.22 818.462C338.876 833.695 389.788 841.355 441.12 841.355C456.236 841.355 471.41 840.69 486.584 839.361C511.354 837.193 535.748 833.233 559.723 827.582C530.979 835.401 501.628 840.676 471.916 843.364C405.93 849.333 339.439 842.454 274.957 822.668C211.125 803.084 152.741 771.909 101.785 730.573C53.3584 691.275 12.6342 643.508 -18.9855 588.688V597.374C12.0706 649.506 51.5086 695.178 98.4903 733.42C150.429 775.681 209.362 807.102 273.671 826.845C323.34 842.078 374.267 849.753 425.628 849.753C440.758 849.753 455.918 849.088 471.092 847.758C492.495 845.879 513.622 842.685 534.433 838.205C508.839 844.622 482.826 849.073 456.51 851.458C390.554 857.427 324.034 850.562 259.508 830.761C195.676 811.177 137.321 780.017 86.4378 738.739C45.5402 705.555 10.1052 666.286 -18.9855 621.829V630.24C9.33929 672.27 43.4592 709.645 82.9261 741.76C134.879 784.035 193.841 815.47 258.15 835.198C307.834 850.446 358.775 858.106 410.15 858.106C425.281 858.106 440.455 857.442 455.629 856.112C474.329 854.464 492.827 851.79 511.079 848.163C488.058 853.554 464.704 857.369 441.12 859.508C375.192 865.492 308.629 858.641 244.06 838.826C180.242 819.242 121.916 788.096 71.0903 746.876C37.1439 719.343 6.94035 687.59 -19 652.151V660.433C6.001 693.646 34.8461 723.65 67.3329 750.085C119.3 792.374 178.277 823.809 242.615 843.552C292.313 858.8 343.269 866.475 394.644 866.475C409.774 866.475 424.948 865.81 440.137 864.48C456.25 863.064 472.219 860.881 488.015 857.991C467.479 862.471 446.683 865.68 425.729 867.587C359.83 873.585 293.238 866.735 228.626 846.92C164.822 827.35 106.511 796.204 55.7573 755.056C28.314 732.799 3.31303 707.752 -18.9855 680.248V688.471C2.21472 713.938 25.8284 737.337 51.7687 758.438C103.751 800.728 162.741 832.192 227.094 851.935C276.807 867.183 327.777 874.857 379.181 874.857C394.326 874.857 409.5 874.193 424.688 872.863C437.449 871.735 450.108 870.146 462.667 868.108C445.368 871.519 427.925 874.062 410.352 875.667C344.497 881.679 277.862 874.843 213.191 854.999C149.403 835.43 91.1056 804.298 40.4243 763.208C19.1085 745.922 -0.71892 726.945 -18.9855 706.451V714.689C-1.96174 733.305 16.4349 750.706 36.1901 766.778C88.1864 809.082 147.192 840.546 211.573 860.303C261.3 875.566 312.285 883.24 363.703 883.24C378.848 883.24 394.037 882.575 409.225 881.246C419.197 880.364 429.11 879.179 438.952 877.733C424.385 880.364 409.717 882.402 394.962 883.746C329.135 889.773 262.456 882.951 197.757 863.093C133.983 843.523 75.7148 812.406 25.0914 771.374C9.61386 758.829 -5.08326 745.373 -18.9711 731.093V739.346C-6.44169 751.891 6.75248 763.844 20.6259 775.117C72.6366 817.436 131.656 848.914 196.052 868.671C245.794 883.934 296.793 891.608 348.226 891.608C363.371 891.608 378.559 890.944 393.762 889.614C401.046 888.978 408.286 888.154 415.497 887.215C403.589 889.166 391.609 890.727 379.585 891.825C313.788 897.867 247.08 891.045 182.323 871.172C118.549 851.602 60.3095 820.5 9.74393 779.525C-0.140863 771.518 -9.72217 763.136 -18.9855 754.406V762.615C-11.2107 769.784 -3.21902 776.75 5.03275 783.457C57.058 825.789 116.107 857.268 180.517 877.04C230.273 892.302 281.287 899.977 332.734 899.977C347.879 899.977 363.082 899.312 378.285 897.968C382.374 897.606 386.464 897.187 390.54 896.739C381.782 898.011 373.01 899.066 364.195 899.875C298.44 905.917 231.689 899.124 166.889 879.237C103.129 859.667 44.9043 828.564 -5.58906 787.662C-10.1268 783.991 -14.5634 780.205 -18.9711 776.389V784.729C-16.182 787.099 -13.3784 789.455 -10.5315 791.782C41.5082 834.129 100.571 865.622 164.996 885.379C214.767 900.656 265.795 908.33 317.256 908.33C332.416 908.33 347.604 907.666 362.822 906.322C363.963 906.22 365.105 906.09 366.247 905.975C360.452 906.712 354.642 907.391 348.818 907.926C283.093 913.982 216.298 907.189 151.455 887.301C88.5188 867.992 31.0165 837.424 -18.9566 797.36V805.772C31.3488 845.272 87.9552 874.857 149.489 893.747C199.275 909.024 250.317 916.699 301.793 916.699C315.132 916.699 328.499 916.15 341.882 915.123C339.064 915.427 336.26 915.745 333.442 916.005C267.746 922.075 200.922 915.297 136.021 895.381C79.4577 878.023 27.2735 851.559 -18.9566 817.334V825.876C27.3747 859.537 78.6918 885.148 133.969 902.101C183.768 917.378 234.825 925.067 286.316 925.067C296.692 925.067 307.082 924.735 317.473 924.099C251.994 930.097 185.343 923.318 120.587 903.445C70.2088 887.995 23.3283 865.304 -18.9566 836.369V845.084C23.2271 873.427 69.2694 895.366 118.433 910.441C168.247 925.732 219.319 933.406 270.824 933.406C285.998 933.406 301.201 932.742 316.418 931.397C385.669 925.313 452.189 905.57 514.128 872.718L782.087 730.559L782.015 730.429L797.492 722.219L797.42 722.089L812.897 713.88L812.825 713.75L828.303 705.54L828.23 705.41L843.708 697.201L843.679 697.158L854.85 691.232L854.98 691.203L879.418 678.239H879.519L903.971 665.26H904.057L928.523 652.281H928.596L953.076 639.302H953.134L977.615 626.324H977.673L1002.17 613.345H1002.21L1012.89 607.694C1069.17 580.537 1128.98 564.002 1191.02 558.554C1257.37 552.729 1323.44 559.724 1387.4 579.351C1451.36 598.979 1509.99 630.24 1561.66 672.284C1615.14 715.802 1658.8 769.018 1691.39 830.472C1723.97 891.912 1743.56 957.904 1749.58 1026.6C1752.27 1057.17 1752.2 1087.66 1749.45 1117.93M1905.66 304.282C2036.41 344.404 2143.72 433.044 2207.79 553.871C2271.89 674.698 2285.1 813.259 2244.98 944.029C2225.21 1008.49 2193.6 1067.23 2152.2 1117.93H2146.75C2182.45 1070.13 2209.46 1016.9 2227.1 959.378C2246.87 894.904 2253.92 828.304 2248.06 761.43C2241.97 692.186 2222.25 625.688 2189.4 563.757C2156.55 501.84 2112.56 448.19 2058.66 404.326C2006.59 361.964 1947.5 330.442 1883.03 310.67C1818.56 290.884 1751.97 283.831 1685.1 289.713C1664.3 291.535 1643.77 294.627 1623.54 298.891C1715.38 274.22 1812.49 275.708 1905.66 304.282ZM1683.57 296.766C1749.26 290.696 1816.09 297.475 1880.99 317.391C1944.72 336.946 2002.9 368.034 2053.27 408.806C2106.2 451.659 2150.38 505.135 2183.23 567.052C2215.69 628.246 2235.09 693.978 2241.13 761.011C2247.03 826.353 2240.21 892.793 2220.41 957.312C2202.35 1016.19 2174.43 1070.31 2138.14 1117.93H2131.46C2162.46 1073.6 2186.22 1024.85 2202.26 972.574C2222.03 908.114 2229.08 841.543 2223.21 774.684C2217.13 705.468 2197.4 638.97 2164.57 577.068C2131.74 515.166 2087.76 461.545 2033.86 417.68C1981.8 375.319 1922.73 343.825 1858.27 324.054C1793.83 304.282 1727.26 297.229 1660.4 303.097C1637.84 305.077 1615.57 308.531 1593.65 313.402C1623.16 305.149 1653.22 299.57 1683.57 296.766ZM1658.94 309.861C1724.67 303.805 1791.46 310.598 1856.31 330.485C1920.05 350.04 1978.25 381.143 2028.68 421.973C2081.65 464.855 2125.8 518.316 2158.63 580.219C2191.09 641.427 2210.51 707.174 2216.55 774.293C2222.43 839.679 2215.61 906.105 2195.83 970.608C2179.43 1024.06 2154.9 1073.59 2123.34 1117.93H2115.49C2142.17 1077.17 2162.94 1032.92 2177.4 985.77C2197.17 921.338 2204.21 854.768 2198.34 787.937C2192.27 718.736 2172.55 652.267 2139.71 590.379C2106.89 528.491 2062.92 474.885 2009.04 431.049C1957 388.702 1897.94 357.209 1833.52 337.452C1769.09 317.68 1702.54 310.627 1635.71 316.509C1611.27 318.648 1587.18 322.536 1563.51 328.072C1594.76 318.952 1626.7 312.853 1658.96 309.875L1658.94 309.861ZM1634.32 322.955C1700.07 316.914 1766.82 323.707 1831.62 343.594C1895.38 363.164 1953.61 394.266 2004.1 435.168C2057.09 478.094 2101.22 531.541 2134.03 593.4C2166.51 654.608 2185.93 720.369 2191.97 787.576C2197.85 853.019 2191.02 919.416 2171.25 983.891C2156.48 1032.05 2135.12 1077.04 2107.94 1117.93H2098.98C2121.66 1080.87 2139.61 1041.08 2152.53 998.965C2172.29 934.548 2179.34 868.007 2173.47 801.19C2167.4 732.004 2147.68 665.564 2114.86 603.69C2082.04 541.817 2038.09 488.225 1984.22 444.404C1932.19 402.071 1873.14 370.592 1808.73 350.821C1744.32 331.049 1677.79 324.01 1610.98 329.878C1584.84 332.176 1559.08 336.426 1533.82 342.582C1566.67 332.639 1600.3 326.063 1634.3 322.941L1634.32 322.955ZM1609.69 336.05C1675.48 330.008 1742.2 336.83 1806.95 356.703C1870.73 376.272 1928.97 407.375 1979.53 448.349C2032.56 491.304 2076.65 544.737 2109.45 606.581C2141.92 667.804 2161.36 733.579 2167.4 800.872C2173.28 866.359 2166.43 932.742 2146.67 997.188C2133.49 1040.17 2115.02 1080.64 2091.86 1117.94H2081.92C2100.96 1084.69 2116.27 1049.33 2127.66 1012.19C2147.42 947.787 2154.45 881.274 2148.6 814.458C2142.53 745.301 2122.82 678.86 2090.02 617.016C2057.21 555.157 2013.26 501.58 1959.42 457.773C1907.41 415.454 1848.39 383.976 1783.99 364.219C1719.6 344.461 1653.09 337.423 1586.3 343.276C1558.26 345.733 1530.67 350.488 1503.66 357.397C1538.27 346.499 1573.77 339.345 1609.71 336.05H1609.69ZM1585.07 349.144C1650.89 343.117 1717.57 349.939 1782.27 369.797C1846.05 389.367 1904.31 420.484 1954.94 461.516C2007.97 504.499 2052.05 557.918 2084.84 619.747C2117.33 680.985 2136.77 746.775 2142.81 814.14C2148.69 879.685 2141.84 946.053 2122.07 1010.47C2110.44 1048.39 2094.68 1084.35 2075.23 1117.94H2064.36C2080.04 1088.57 2092.89 1057.66 2102.79 1025.39C2122.55 961.012 2129.58 894.499 2123.72 827.712C2117.65 758.569 2097.93 692.157 2065.14 630.327C2032.34 568.497 1988.42 514.934 1934.58 471.127C1882.58 428.823 1823.57 397.359 1759.19 377.602C1694.83 357.845 1628.32 350.806 1561.54 356.674C1531.65 359.305 1502.27 364.479 1473.56 372.168C1509.86 360.316 1547.19 352.613 1585.02 349.159L1585.07 349.144ZM1560.44 362.239C1626.3 356.226 1692.93 363.062 1757.6 382.906C1821.39 402.476 1879.69 433.607 1930.37 474.697C1983.44 517.724 2027.48 571.128 2060.27 632.929C2092.76 694.18 2112.21 759.985 2118.25 827.437C2124.12 893.025 2117.27 959.379 2097.52 1023.77C2087.4 1056.73 2074.18 1088.21 2058.12 1117.96H2046.31C2058.94 1092.56 2069.52 1066.07 2077.96 1038.6C2097.7 974.236 2104.74 907.752 2098.89 840.979C2092.82 771.851 2073.12 705.468 2040.33 643.653C2007.54 581.837 1963.62 528.289 1909.81 484.496C1857.82 442.207 1798.83 410.743 1734.48 391C1670.13 371.257 1603.65 364.219 1536.89 370.072C1505.25 372.847 1474.21 378.513 1443.89 386.953C1481.78 374.148 1520.83 365.866 1560.46 362.239H1560.44ZM1535.82 375.333C1601.7 369.335 1668.31 376.186 1732.92 396.001C1796.72 415.585 1855.03 446.716 1905.79 487.878C1958.88 530.934 2002.92 584.323 2035.68 646.11C2068.18 707.376 2087.63 773.181 2093.67 840.719C2099.54 906.365 2092.67 972.69 2072.93 1037.05C2064.32 1065.15 2053.45 1092.17 2040.49 1117.96H2027.76C2037.63 1096.61 2046.1 1074.54 2053.09 1051.79C2072.83 987.446 2079.87 920.977 2074 854.233C2067.93 785.133 2048.24 718.751 2015.46 656.964C1982.68 595.163 1938.78 541.629 1884.98 497.851C1833.01 455.576 1774.03 424.126 1709.7 404.383C1645.36 384.641 1578.9 377.602 1512.16 383.47C1478.6 386.418 1445.7 392.604 1413.64 401.926C1453.27 388.037 1494.21 379.134 1535.82 375.347V375.333ZM1511.19 388.427C1577.12 382.444 1643.68 389.295 1708.25 409.11C1772.07 428.693 1830.41 459.84 1881.22 501.06C1934.34 544.144 1978.35 597.533 2011.1 659.277C2043.6 720.557 2063.08 786.376 2069.1 854.002C2074.97 919.691 2068.09 986.015 2048.35 1050.35C2041.2 1073.66 2032.5 1096.22 2022.32 1117.96H2008.75C2016.14 1100.74 2022.66 1083.08 2028.21 1064.99C2047.93 1000.66 2054.97 934.216 2049.12 867.486C2043.05 798.401 2023.37 732.047 1990.59 670.261C1957.81 608.474 1913.92 554.969 1860.14 511.206C1808.18 468.931 1749.22 437.495 1684.91 417.767C1620.59 398.039 1554.16 391 1487.43 396.853C1452.22 399.946 1417.7 406.595 1384.15 416.712C1425.26 401.854 1467.84 392.373 1511.16 388.427H1511.19ZM1486.57 401.522C1552.52 395.553 1619.04 402.418 1683.57 422.219C1747.4 441.802 1805.76 472.963 1856.64 514.241C1909.79 557.368 1953.77 610.729 1986.5 672.458C2019.02 733.753 2038.5 799.586 2044.52 867.284C2050.39 933.031 2043.5 999.327 2023.77 1063.63C2018.06 1082.23 2011.34 1100.34 2003.71 1117.96H1989.35C1994.52 1104.93 1999.2 1091.68 2003.35 1078.18C2023.08 1013.88 2030.11 947.44 2024.25 880.74C2018.18 811.683 1998.49 745.344 1965.73 683.572C1932.97 621.814 1889.1 568.309 1835.32 524.56C1783.38 482.3 1724.45 450.879 1660.14 431.15C1595.83 411.422 1529.43 404.383 1462.72 410.251C1425.57 413.518 1389.21 420.759 1353.9 431.83C1396.74 415.801 1441.22 405.641 1486.54 401.536L1486.57 401.522ZM1461.94 414.616C1527.93 408.662 1594.42 415.527 1658.89 435.313C1722.72 454.897 1781.1 486.072 1832.06 527.407C1885.24 570.564 1929.19 623.924 1961.9 685.624C1994.42 746.934 2013.91 812.782 2019.94 880.566C2025.81 946.356 2018.9 1012.64 1999.19 1076.92C1994.91 1090.89 1990.04 1104.56 1984.66 1117.97H1969.52C1972.73 1109.21 1975.72 1100.37 1978.48 1091.39C1998.21 1027.11 2005.23 960.694 1999.38 894.008C1993.32 824.966 1973.64 758.655 1940.89 696.898C1908.14 635.154 1864.27 581.664 1810.51 537.929C1758.59 495.683 1699.67 464.262 1635.39 444.534C1571.11 424.806 1504.7 417.781 1438.02 423.635C1399.21 427.046 1361.26 434.764 1324.49 446.673C1368.79 429.604 1414.89 418.851 1461.93 414.602L1461.94 414.616ZM1437.32 427.711C1503.33 421.756 1569.79 428.65 1634.22 448.422C1698.06 468.006 1756.48 499.181 1807.49 540.589C1860.7 583.774 1904.62 637.12 1937.34 698.805C1969.85 760.115 1989.36 825.977 1995.39 893.849C2001.24 959.696 1994.33 1025.95 1974.63 1090.21C1971.76 1099.59 1968.59 1108.84 1965.23 1117.97H1949.33C1950.82 1113.53 1952.26 1109.08 1953.65 1104.59C1973.36 1040.32 1980.4 973.933 1974.55 907.261C1968.49 838.233 1948.81 771.938 1916.08 710.209C1883.33 648.48 1839.48 595.004 1785.74 551.284C1733.83 509.052 1674.93 477.631 1610.66 457.917C1546.4 438.203 1480.02 431.165 1413.36 437.018C1372.6 440.603 1332.8 448.971 1294.32 461.935C1340.3 443.609 1388.28 432.119 1437.34 427.711H1437.32ZM1412.69 440.805C1478.75 434.865 1545.15 441.773 1609.53 461.516C1673.39 481.114 1731.82 512.289 1782.89 553.77C1836.13 596.984 1880.02 650.33 1912.72 711.987C1945.26 773.311 1964.76 839.187 1970.79 907.145C1976.64 973.036 1969.74 1039.29 1950.02 1103.5C1948.54 1108.36 1946.95 1113.19 1945.33 1117.99H1928.69C1928.69 1117.99 1928.74 1117.87 1928.75 1117.8C1948.46 1053.54 1955.49 987.172 1949.63 920.529C1943.58 851.53 1923.91 785.249 1891.18 723.534C1858.45 661.82 1814.6 608.373 1760.88 564.653C1708.99 522.435 1650.1 491.029 1585.86 471.315C1521.63 451.601 1455.25 444.577 1388.61 450.431C1345.98 454.174 1304.39 463.135 1264.27 477.14C1311.88 457.57 1361.69 445.387 1412.68 440.805H1412.69ZM1388.07 453.899C1454.15 447.974 1520.53 454.882 1584.86 474.625C1648.74 494.223 1707.18 525.413 1758.33 566.951C1811.59 610.209 1855.45 663.526 1888.14 725.153C1920.67 786.492 1940.2 852.383 1946.22 920.413C1952.08 986.362 1945.15 1052.59 1925.46 1116.79C1925.34 1117.19 1925.2 1117.58 1925.08 1117.99H1907.71C1924.49 1057.82 1930.24 995.93 1924.79 933.782C1918.74 864.798 1899.07 798.546 1866.35 736.846C1833.63 675.146 1789.8 621.713 1736.08 578.007C1684.2 535.805 1625.33 504.398 1561.11 484.699C1496.88 464.999 1430.54 457.961 1363.92 463.814C1319.57 467.716 1276.34 477.27 1234.72 492.272C1283.8 471.518 1335.27 458.626 1388.07 453.899ZM1363.44 466.994C1429.56 461.083 1495.9 468.006 1560.18 487.734C1624.07 507.332 1682.54 538.536 1733.74 580.132C1787.04 623.419 1830.87 676.721 1863.55 738.334C1896.09 799.687 1915.62 865.593 1921.64 933.71C1927.12 995.569 1921.38 1057.62 1904.43 1118H1886.32C1900.38 1062.02 1904.96 1004.65 1899.91 947.05C1893.85 878.08 1874.2 811.842 1841.48 750.171C1808.76 688.5 1764.96 635.068 1711.26 591.376C1659.39 549.174 1600.54 517.796 1536.34 498.097C1472.13 478.397 1405.81 471.373 1339.2 477.227C1292.89 481.288 1247.8 491.535 1204.49 507.708C1255.21 485.566 1308.6 471.908 1363.44 467.008V466.994ZM1338.81 480.088C1404.96 474.191 1471.26 481.114 1535.51 500.828C1599.4 520.427 1657.9 551.645 1709.18 593.299C1762.5 636.614 1806.3 689.917 1838.96 751.501C1871.51 812.868 1891.05 878.774 1897.07 946.978C1902.15 1004.36 1897.57 1061.84 1883.37 1117.99H1864.59C1876.16 1066.21 1879.7 1013.35 1875.05 960.289C1868.99 891.348 1849.34 825.125 1816.64 763.468C1783.93 701.812 1740.13 648.408 1686.44 604.731C1634.59 562.543 1575.76 531.165 1511.57 511.48C1447.37 491.795 1381.07 484.757 1314.49 490.61C1266.54 494.816 1219.91 505.627 1175.21 522.826C1227.31 499.499 1282.27 485.147 1338.81 480.103V480.088ZM1314.19 493.183C1380.38 487.3 1446.64 494.238 1510.83 513.937C1574.73 533.55 1633.25 564.768 1684.59 606.48C1737.95 649.839 1781.72 703.112 1814.38 764.682C1846.94 826.064 1866.48 891.984 1872.51 960.275C1877.17 1013.17 1873.63 1066.1 1861.97 1118H1842.51C1851.84 1070.48 1854.46 1022.09 1850.19 973.557C1844.14 904.63 1824.5 838.436 1791.81 776.794C1759.12 715.152 1715.33 661.762 1661.66 618.1C1609.82 575.926 1551.01 544.563 1486.84 524.878C1422.68 505.193 1356.39 498.169 1289.82 504.008C1239.89 508.387 1191.41 519.95 1145.04 538.392C1198.77 513.59 1255.62 498.4 1314.22 493.183H1314.19ZM1289.56 506.277C1355.78 500.409 1422.01 507.361 1486.16 527.046C1550.08 546.659 1608.62 577.892 1660.03 619.675C1713.41 663.063 1757.16 716.337 1789.8 777.863C1822.36 839.26 1841.91 905.194 1847.94 973.557C1852.22 1021.97 1849.6 1070.39 1840.19 1118H1820.05C1827.39 1074.74 1829.18 1030.85 1825.32 986.81C1819.27 917.913 1799.63 851.718 1766.95 790.105C1734.26 728.477 1690.49 675.103 1636.85 631.455C1585.02 589.295 1526.22 557.932 1462.07 538.247C1397.92 518.562 1331.65 511.538 1265.1 517.391C1213.51 521.915 1163.43 534.085 1115.67 553.625C1170.77 527.537 1229.23 511.639 1289.58 506.277H1289.56ZM1087.3 568.454C1143.47 541.34 1203.19 524.835 1264.94 519.357C1331.18 513.489 1397.37 520.455 1461.48 540.126C1525.41 559.739 1583.97 590.986 1635.45 632.828C1688.86 676.244 1732.57 729.504 1765.2 791.016C1797.78 852.412 1817.33 918.361 1823.36 986.81C1827.23 1030.76 1825.42 1074.67 1818.05 1117.97H1797.24C1802.81 1079.02 1803.92 1039.58 1800.45 1000.03C1794.41 931.152 1774.77 864.986 1742.1 803.387C1709.42 741.789 1665.66 688.414 1612.02 644.78C1560.21 602.635 1501.42 571.287 1437.3 551.602C1373.17 531.917 1306.92 524.907 1240.39 530.746C1187.12 535.429 1135.5 548.263 1086.33 568.945L1087.3 568.425V568.454ZM1062.52 581.563C1118.72 554.434 1178.46 537.915 1240.31 532.451C1306.59 526.598 1372.75 533.579 1436.8 553.235C1500.74 572.848 1559.31 604.095 1610.86 646.009C1664.29 689.469 1707.99 742.714 1740.61 804.197C1773.18 865.607 1792.75 931.571 1798.78 1000.11C1802.26 1039.59 1801.15 1079.02 1795.55 1118H1774.09C1778.12 1083.36 1778.66 1048.38 1775.58 1013.33C1769.54 944.463 1749.9 878.326 1717.24 816.742C1684.58 755.158 1640.82 701.812 1587.21 658.178C1535.41 616.048 1476.65 584.699 1412.53 565.029C1348.41 545.358 1282.19 538.348 1215.67 544.187C1161.28 548.957 1108.6 562.254 1058.51 583.716L1062.52 581.592V581.563ZM1750.71 1026.57C1744.67 957.731 1725.04 891.608 1692.38 830.024C1659.72 768.44 1615.99 715.123 1562.38 671.504C1510.6 629.373 1451.85 598.054 1387.76 578.383C1323.67 558.713 1257.45 551.703 1190.96 557.542C1135.44 562.413 1081.69 576.143 1030.68 598.4L1037.72 594.672C1093.95 567.529 1153.73 550.995 1215.67 545.546C1281.99 539.707 1348.11 546.688 1412.11 566.329C1476.06 585.956 1534.68 617.204 1586.27 659.175C1639.72 702.664 1683.41 755.895 1716 817.363C1748.57 878.789 1768.15 944.766 1774.18 1013.37C1777.26 1048.39 1776.72 1083.36 1772.68 1117.99H1750.57C1753.3 1087.69 1753.37 1057.15 1750.68 1026.57H1750.71Z" fill="white"/>
</svg>
