<svg width="74" height="88" viewBox="0 0 74 88" fill="none" xmlns="http://www.w3.org/2000/svg">
<g clip-path="url(#clip0_4331_1739)">
<path d="M55.548 75.6427C55.565 75.7847 55.5118 75.8534 55.2879 75.9615C54.9159 76.1374 54.4328 76.6792 54.3919 76.9609C54.3734 77.0875 54.3147 77.1909 54.253 77.2017C54.1912 77.2125 54.1673 77.1639 54.1943 77.0952C54.2213 77.0265 54.2097 76.9547 54.1619 76.9362C54.0492 76.8884 54.1611 76.6638 54.422 76.4075C54.5439 76.2871 54.679 76.2061 54.7207 76.2231C54.7624 76.2401 54.8689 76.1552 54.9522 76.0317C55.0356 75.9082 55.1359 75.8218 55.1714 75.8372C55.2108 75.8503 55.3018 75.7747 55.3821 75.6636C55.5156 75.4837 55.5295 75.4807 55.5503 75.6466L55.548 75.6427ZM59.9666 71.1811C59.9187 71.1626 59.8531 71.2282 59.8107 71.3324C59.7721 71.4343 59.6339 71.5801 59.5127 71.6581C59.3893 71.7322 59.1971 71.9105 59.0805 72.0486C58.6476 72.5603 58.7386 72.9045 59.1978 72.4978C59.3491 72.365 59.4911 72.1906 59.5073 72.1127C59.5274 72.0324 59.5907 71.9629 59.6486 71.9544C59.786 71.9298 60.0731 71.2274 59.965 71.1873L59.9666 71.1811ZM56.2164 75.0948C56.4186 75.1781 56.4734 75.1557 56.6123 74.9412C56.7026 74.803 56.8061 74.7043 56.85 74.7251C56.8917 74.7421 56.9403 74.7182 56.9627 74.668C56.9813 74.6201 56.7844 74.6333 56.529 74.6973C55.9841 74.83 55.883 74.9589 56.2187 75.0986L56.2164 75.0948ZM55.9231 75.3757C55.9656 75.2715 55.8483 75.2422 55.6877 75.307C55.6136 75.341 55.5604 75.3834 55.572 75.4027C55.6036 75.4729 55.8946 75.4506 55.9231 75.3757ZM58.5881 73.0735C58.5881 73.0735 58.6599 73.0619 58.7078 73.028C58.7556 72.994 58.7502 72.95 58.7024 72.9315C58.6545 72.913 58.6036 72.9331 58.5827 72.977C58.5657 73.0187 58.5673 73.065 58.5881 73.0735ZM57.344 73.8515C57.2552 73.8522 57.1248 73.9147 57.0461 73.9935C56.7281 74.3207 56.8068 74.5044 57.1348 74.2026C57.4991 73.8738 57.5099 73.8569 57.344 73.8515ZM58.3535 72.9099C58.2972 72.8597 58.2347 72.913 58.1706 73.0774C58.1142 73.2109 58.0247 73.3328 57.9707 73.339C57.9128 73.3475 57.8557 73.3922 57.8387 73.4339C57.8217 73.4756 57.8457 73.5242 57.8897 73.5451C57.9313 73.562 57.9429 73.6601 57.9066 73.7658C57.8742 73.8692 57.9421 73.7812 58.0633 73.5721C58.1845 73.3629 58.3172 73.1468 58.3597 73.0951C58.406 73.0411 58.3998 72.9608 58.3543 72.9199L58.3535 72.9099ZM62.3615 68.1226C62.2225 68.3896 62.045 68.6273 61.9701 68.6513C61.7787 68.7084 61.3743 69.565 61.4855 69.6716C61.5356 69.7202 61.5318 69.8012 61.4662 69.8668C61.3674 69.9733 61.355 69.9702 61.3157 69.7997C61.2524 69.5542 61.0764 69.6021 60.956 69.9C60.902 70.0374 60.7438 70.211 60.6025 70.2905C60.452 70.3808 60.3409 70.5105 60.327 70.6185C60.3146 70.7204 60.2815 70.8662 60.249 70.9434C60.202 71.0661 60.2236 71.0847 60.3918 71.0677C60.5439 71.0499 60.5848 71.0044 60.5701 70.8663C60.5524 70.7142 60.5886 70.6872 60.7723 70.7134C60.8989 70.732 60.9915 70.7026 60.9838 70.6548C60.9737 70.6031 61.1104 70.4109 61.2879 70.2257C62.2549 69.2046 62.9488 68.2793 63.1494 67.739C63.2112 67.5708 63.2552 67.5391 63.3354 67.6117C63.4636 67.729 63.5384 67.5739 63.452 67.3686C63.3115 67.0383 62.7134 67.4496 62.3615 68.1226ZM50.3531 80.6646L50.2296 80.6337C50.0066 80.6731 49.9672 80.9749 50.0019 81.164C50.0212 81.2573 50.0729 81.2473 50.2049 81.1261C50.4457 80.8977 50.5923 80.626 50.3554 80.6685L50.3531 80.6646ZM53.7451 77.2125C53.7505 77.1515 53.7243 77.204 53.698 77.3352C53.6587 77.5058 53.6062 77.5583 53.5205 77.5204C53.4518 77.4934 53.3577 77.5289 53.3044 77.5976C53.147 77.8075 53.1339 77.8469 53.2296 77.8315C53.2774 77.8237 53.306 77.9063 53.2944 78.0182C53.272 78.1996 53.3037 78.1911 53.5722 77.9303C53.9296 77.5899 54.0106 77.4363 53.8501 77.3699C53.7876 77.3445 53.7374 77.2696 53.7428 77.2086L53.7451 77.2125ZM51.4753 79.4823C51.6366 79.2176 51.635 79.1975 51.4768 79.2924C51.3804 79.3503 51.2823 79.4406 51.26 79.4908C51.2376 79.5409 51.0492 79.7431 50.844 79.9345C50.3732 80.3744 50.3338 80.4663 50.5777 80.5666C50.7737 80.6484 50.9234 80.5481 51.0353 80.271C51.0709 80.1815 51.1581 80.1344 51.2414 80.1684C51.3556 80.2101 51.8357 79.6019 51.7531 79.5255C51.6227 79.4043 51.3788 79.6451 51.4753 79.4823ZM48.8975 82.7608C48.9554 82.7523 49.0248 82.6844 49.0511 82.6056C49.0966 82.4891 49.0858 82.4798 48.977 82.5609C48.8103 82.6766 48.7663 82.787 48.8936 82.7631L48.8975 82.7608ZM52.7132 78.5453C52.7132 78.5453 52.7981 78.2582 52.5689 78.3748C52.3397 78.4913 51.872 79.0501 51.872 79.0501L52.0788 79.2461C51.9877 79.243 51.9214 79.2724 51.936 79.3055C51.9507 79.3387 52.0256 79.341 52.1058 79.3086C52.1683 79.2816 52.5982 78.8872 52.7603 78.685C52.8931 78.5214 52.7757 78.5446 52.7171 78.543L52.7132 78.5453ZM48.3456 83.1968C48.4035 83.1883 48.4622 83.1374 48.4861 83.081C48.5077 83.0208 48.4714 83.0216 48.3966 83.0718C48.2337 83.1852 48.2198 83.2146 48.3495 83.1945L48.3456 83.1968ZM52.9486 78.3254C52.9131 78.4149 52.8992 78.4967 52.9239 78.5029C52.9448 78.5114 53.0297 78.4605 53.113 78.3895C53.2365 78.2891 53.2396 78.2505 53.1439 78.2135C53.0752 78.1865 52.9918 78.2312 52.9548 78.3269L52.9486 78.3254ZM27.9673 6.45819C28.489 6.73295 29.0902 6.96527 29.4962 7.04708C29.7138 7.09494 29.8087 7.14819 29.7887 7.22846C29.7609 7.3396 30.3906 7.6545 30.5026 7.58735C30.5296 7.57115 30.4701 7.42837 30.369 7.26861C30.2425 7.0664 30.1892 7.03012 30.2016 7.13817C30.2085 7.25471 30.1707 7.28789 30.0472 7.25702C29.9399 7.22692 29.8944 7.15977 29.9222 7.04863C29.9778 6.82637 29.3511 6.49912 29.1543 6.64344C29.0454 6.72447 29.0184 6.71444 28.9814 6.57398C28.9459 6.45358 28.861 6.39955 28.6495 6.37948C28.4929 6.36327 28.1996 6.27683 28.0028 6.18498C27.806 6.09314 27.5976 6.03448 27.5443 6.05068C27.3985 6.09622 27.5227 6.21584 27.9665 6.44816L27.9673 6.45819ZM24.0559 4.70618C24.1069 4.7386 24.3029 4.68921 24.4912 4.59196C24.8894 4.38976 25.0662 4.45691 25.3486 4.9277C25.5177 5.2094 25.564 5.2341 26.0023 5.29122C26.3265 5.3329 26.5071 5.39774 26.5789 5.49112C26.6622 5.60381 26.6869 5.60998 26.7062 5.51968C26.7232 5.45177 26.7834 5.49961 26.8606 5.63699C26.9308 5.76279 27.0797 5.8886 27.197 5.91793C27.3144 5.94726 27.3977 6.00746 27.3854 6.05686C27.3746 6.10008 27.2094 6.1047 27.0218 6.05453C26.5958 5.94801 26.6213 6.09543 27.0581 6.28992C27.3799 6.43271 27.454 6.5562 27.2325 6.58938C27.1685 6.59632 27.2842 6.65807 27.4911 6.7229C28.1548 6.92821 28.1965 6.94519 28.411 7.11035C28.6873 7.31719 28.7221 7.3226 28.6989 7.15281C28.6788 6.99691 28.8332 7.00926 28.9937 7.1806C29.0663 7.25778 29.0663 7.28402 28.9945 7.26935C28.7498 7.21146 28.8756 7.40364 29.155 7.51941C29.7323 7.75559 30.1846 7.9933 30.4678 8.21172C30.6245 8.33289 30.8545 8.46256 30.9787 8.50346C31.2705 8.59608 31.4595 8.85 31.3523 9.00359C31.2959 9.08462 31.3106 9.11781 31.3986 9.107C31.4688 9.1016 31.5313 9.04835 31.529 8.99201C31.5344 8.79984 31.7683 8.95343 31.7713 9.151C31.7752 9.30613 31.8014 9.33237 31.8786 9.25982C31.9558 9.18728 31.9867 9.195 31.9905 9.27141C31.9952 9.3316 32.148 9.42885 32.3301 9.4875C32.7731 9.63107 33.0286 9.85566 33.1297 10.1991C33.2161 10.4831 33.3072 10.5387 33.8582 10.6437C34.2433 10.717 34.4548 10.8683 34.417 11.0326C34.3876 11.15 34.4023 11.1569 34.4888 11.0736C34.6392 10.9308 34.9688 11.2001 35.0313 11.5143C35.0552 11.6416 35.1069 11.7628 35.154 11.7713C35.1972 11.7821 35.2142 11.7404 35.1957 11.6833C35.1764 11.6161 35.2196 11.6007 35.3138 11.6439C35.3956 11.6841 35.455 11.8006 35.4427 11.9025C35.411 12.1996 35.5445 12.3084 35.9582 12.3331C36.3395 12.3563 36.4004 12.4142 36.1882 12.5415C36.1033 12.5925 36.1149 12.638 36.2376 12.7113C36.3286 12.7669 36.3935 12.8487 36.3827 12.8919C36.3719 12.9351 36.4413 12.9459 36.5378 12.9143C36.6775 12.8672 36.784 12.9135 37.0418 13.142C37.3273 13.3905 37.3466 13.4314 37.1861 13.4437C37.0117 13.4592 37.0124 13.4692 37.1946 13.5803C37.3134 13.656 37.4053 13.6691 37.4415 13.6159C37.5481 13.4522 37.7232 13.683 37.6237 13.8582C37.5596 13.9701 37.5635 13.994 37.6299 13.9385C37.7055 13.8721 39.1695 15.0352 39.1495 15.1942C39.1433 15.2451 39.8171 15.8433 40.152 16.1304C40.649 16.5564 40.8458 17.0943 40.6274 17.0365C40.541 17.0148 40.5348 17.0395 40.5927 17.1623C40.6598 17.3004 40.6783 17.305 40.8018 17.2047C40.9253 17.1044 40.9438 17.109 41.0117 17.2572C41.055 17.3467 41.1321 17.4316 41.1877 17.4455C41.2433 17.4594 41.3575 17.5536 41.4462 17.6577C41.5767 17.8052 41.5805 17.8553 41.4748 17.8978C41.3806 17.9333 41.4061 17.9495 41.5528 17.9402C41.6978 17.9371 41.8074 17.9973 41.9078 18.1471C41.9873 18.2621 42.2057 18.5036 42.3948 18.6788C42.5838 18.854 42.7907 19.0763 42.8563 19.1681C42.9219 19.26 43.0508 19.4398 43.1434 19.5679C43.2545 19.7182 43.2491 19.7617 43.1272 19.6984C42.9026 19.5865 42.8941 19.7385 43.1102 19.9762C43.2537 20.1367 43.2676 20.1337 43.3216 19.9176C43.3571 19.7755 43.4073 19.7192 43.4536 19.7701C43.4953 19.8134 43.4937 19.8983 43.4482 19.9623C43.3355 20.1244 43.4721 20.4046 43.6018 20.2795C43.6674 20.2139 43.8217 20.3837 44.142 20.8476C44.4924 21.3616 44.5734 21.5491 44.5102 21.6973C44.4453 21.8517 44.4592 21.8748 44.5758 21.8154C44.6946 21.7598 44.8027 21.8787 45.1515 22.4251C45.3861 22.7987 45.6346 23.1429 45.6964 23.1845C45.833 23.281 45.9387 23.8946 45.8422 24.0312C45.8059 24.0844 45.8345 24.2195 45.9078 24.333C46.0243 24.5097 46.0429 24.5143 46.0243 24.3785C45.9773 23.9764 46.3848 24.4719 46.5615 25.0376C46.6286 25.2545 46.9497 25.5709 47.0963 25.8503C47.5216 26.6553 47.7261 27.1886 47.5578 27.0744C47.4513 27.0018 47.4181 27.0165 47.415 27.1338C47.4104 27.231 47.476 27.2966 47.5964 27.3136C47.7392 27.3329 47.8658 27.5351 48.1282 28.1387C48.4824 28.9652 48.5086 29.0964 48.328 29.1103C48.264 29.1173 48.2995 29.2639 48.4145 29.4731C48.5395 29.7077 48.6182 29.7864 48.6398 29.7C48.6607 29.6297 48.6437 29.514 48.5997 29.4407C48.5557 29.3673 48.548 29.3195 48.5789 29.3272C48.6653 29.3488 49.0473 30.2742 48.9894 30.3089C48.9624 30.3251 48.8876 30.2703 48.8204 30.1847C48.7193 30.0511 48.7093 30.0519 48.7471 30.1762C48.7695 30.2572 48.8281 30.39 48.8752 30.4772C49.1198 30.9287 49.5296 31.9266 49.508 32.013C49.4941 32.0686 49.5428 32.1759 49.6153 32.2531C49.7319 32.3773 49.7496 32.3719 49.7496 32.2145C49.7481 32.1157 49.7195 32.0069 49.6848 31.9752C49.6477 31.9397 49.6323 31.8702 49.6446 31.8209C49.6755 31.6974 49.8453 31.9366 49.9881 32.2971C50.0506 32.4537 50.0629 32.6143 50.0159 32.6582C49.9595 32.713 49.9202 32.6999 49.8885 32.6034C49.8623 32.5247 49.833 32.5108 49.8191 32.5664C49.7828 32.6984 49.9703 32.9322 50.0845 32.8952C50.1378 32.879 50.1926 32.9091 50.2103 32.9562C50.2242 33.0055 50.181 33.0472 50.1062 33.0449C49.9989 33.041 50.0058 33.1313 50.1254 33.4794C50.2566 33.8468 50.2968 33.8962 50.3786 33.7789C50.4658 33.6531 50.4805 33.66 50.5368 33.8676C50.5707 33.9942 50.5599 34.1686 50.5121 34.2551C50.4519 34.3647 50.4596 34.3863 50.5314 34.3222C50.607 34.2558 50.7182 34.4411 50.9288 35.0022C51.3209 36.0317 51.3232 36.0356 51.1912 35.9993C51.1295 35.9839 51.0608 35.8781 51.04 35.7647C51.0191 35.6512 50.9551 35.527 50.8956 35.4892C50.83 35.4498 50.847 35.5656 50.9288 35.7631C51.0099 35.9507 51.1241 36.3335 51.1858 36.6113C51.2499 36.893 51.3247 37.1053 51.3595 37.0844C51.3903 37.0659 51.4845 37.1091 51.5671 37.1855C51.7037 37.3083 51.7029 37.3245 51.5485 37.3646C51.422 37.3986 51.4011 37.4425 51.4498 37.5498C51.486 37.6278 51.5771 37.6833 51.6489 37.6718C51.723 37.664 51.7685 37.705 51.7554 37.7706C51.7399 37.8323 51.777 38.0777 51.8379 38.3193C52.1837 39.6653 52.2917 40.3352 52.179 40.4185C52.0355 40.5204 52.0887 40.6354 52.2647 40.6138C52.4106 40.5945 52.4028 40.7566 52.2554 40.8083C52.2022 40.8245 52.2415 41.1788 52.3488 41.6287C52.453 42.0648 52.5595 42.5834 52.5873 42.7872C52.7038 43.6199 52.8628 44.2435 52.97 44.2736C53.0503 44.2937 53.0542 44.3701 52.9708 44.5461C52.8682 44.7598 52.8782 44.7853 53.0287 44.7737C53.1591 44.7637 53.1722 44.7768 53.0858 44.8339C52.997 44.8872 52.9986 45.0647 53.0827 45.476C53.1468 45.784 53.1892 46.0734 53.1784 46.1166C53.1676 46.1598 53.234 46.3142 53.3266 46.4686C53.4238 46.6306 53.4585 46.7935 53.4091 46.8599C53.3636 46.9239 53.3644 46.9864 53.4076 46.9972C53.5249 47.0266 53.4516 47.4642 53.3906 47.7474C53.3605 47.8809 53.3744 47.9828 53.4176 47.9674C53.4608 47.9519 53.477 48.0314 53.4493 48.1426C53.4215 48.2537 53.4608 48.5817 53.5341 48.8788C53.609 49.1698 53.6483 49.5241 53.6182 49.6576C53.5418 50.0288 53.5588 50.2233 53.6576 50.1955C53.7109 50.1793 53.7232 50.2611 53.6939 50.3784C53.6645 50.4957 53.6831 50.7365 53.7394 50.9179C53.7934 51.0954 53.822 51.3617 53.8004 51.5006C53.7849 51.6411 53.8158 51.9112 53.8768 52.1003C53.9377 52.2894 53.8343 52.5718 53.8219 52.6212C53.8081 52.6768 53.8088 53.0804 53.8289 53.525C53.8466 53.9657 53.8497 54.5306 53.8343 54.776C53.8227 55.0191 53.8042 55.3819 53.8011 55.5779C53.7632 56.7657 53.7231 58.3694 53.49 59.6954C53.4244 60.0759 53.3796 60.4123 53.3927 60.4517C53.412 60.5189 52.0644 65.909 51.6823 67.2928C51.5712 67.6848 51.4407 68.0622 51.389 68.1247C51.3373 68.1872 51.308 68.357 51.3227 68.4952C51.3651 68.8371 51.3087 69.0231 51.1914 68.9413C51.1189 68.8903 51.0371 69.0864 50.8603 69.7277C50.6573 70.474 50.3872 71.2134 50.0175 72.0492C49.9612 72.1827 49.8029 72.6713 49.6686 73.1297C49.5367 73.592 49.4008 74.0304 49.3661 74.1037C49.3337 74.1809 49.3398 74.2611 49.3823 74.2881C49.4247 74.3152 48.5418 76.3249 48.9053 76.3534C49.0272 76.3642 49.2387 75.9645 49.5096 75.7337C50.2166 75.1363 51.2214 74.2658 51.3071 74.0674C51.4499 73.7456 51.4862 73.7186 51.6382 73.8058C51.7478 73.866 51.8242 73.8622 51.8543 73.7811C51.8813 73.7124 51.9631 73.6476 52.0411 73.6376C52.1152 73.6299 52.3213 73.4747 52.4995 73.2995C52.6778 73.1244 52.8576 72.9955 52.8993 73.0124C52.941 73.0294 53.0467 72.9345 53.1332 72.7987C53.2196 72.6628 53.4203 72.4375 53.5793 72.3001C53.7383 72.1627 53.8857 72.0061 53.9057 71.952C53.9258 71.898 54.0748 71.7877 54.2276 71.7012C54.3827 71.6186 54.5649 71.4674 54.6397 71.3647C54.8875 71.0167 56.8949 68.9306 56.8062 68.9576C56.6742 69 56.651 68.9877 56.6919 68.8897C56.7413 68.7708 57.1944 68.2051 57.4637 67.928C58.0812 67.2952 58.1452 66.9733 58.5412 66.3999C58.7357 66.1205 58.944 65.8643 58.9981 65.8319C59.0559 65.7972 59.1679 65.6513 59.2474 65.5039C59.3384 65.3233 59.4295 65.2477 59.5067 65.2801C59.6711 65.3441 59.8331 65.1682 59.81 64.9459C59.7915 64.7313 59.9427 64.5461 60.0662 64.6295C60.1172 64.6619 60.2275 64.5747 60.3209 64.4242C60.4105 64.276 60.5417 64.1186 60.6065 64.0692C60.6713 64.0198 60.8334 63.7913 60.9669 63.559C61.2756 63.0064 61.3343 62.9293 61.8452 62.3813C62.0799 62.1251 62.3068 61.8472 62.3345 61.7623C62.3685 61.679 62.4658 61.5787 62.546 61.5463C62.6301 61.5115 62.7467 61.4259 62.81 61.3564C62.8864 61.2738 62.9643 61.2638 63.0361 61.3309C63.1079 61.3981 63.2244 60.8663 63.899 60.7135C64.1629 60.6549 64.5982 60.9343 64.6599 61.3433C64.7163 61.7084 64.8637 61.7879 64.9794 61.5085C65.015 61.4189 65.0983 61.3742 65.1647 61.3973C65.2334 61.4244 65.272 61.4799 65.2534 61.5278C65.2365 61.5694 65.2588 61.6242 65.3005 61.6412C65.3422 61.6582 65.4001 61.6235 65.424 61.5671C65.4865 61.4089 66.4103 61.9253 66.4659 62.1491C66.5184 62.359 66.6665 62.4223 66.9135 62.3266C67.0903 62.2625 67.1111 62.271 67.1296 62.4593C67.145 62.6075 67.2307 62.6978 67.4306 62.7773C67.7848 62.9217 67.1975 63.421 67.0131 63.5422C66.8093 63.6749 66.797 63.6718 66.7507 63.4897C66.7244 63.3847 66.6881 63.333 66.6688 63.3708C66.6519 63.4125 65.4525 64.8248 65.0635 65.3049C64.8922 65.5179 64.7154 65.7656 64.6699 65.8559C64.6259 65.94 64.4677 66.1924 64.3233 66.4155C64.1767 66.6346 64.0656 66.843 64.0779 66.8723C64.1173 66.9642 63.6434 67.2852 63.5678 67.2204C63.5006 67.161 63.6187 66.8592 63.939 66.2734C64.0841 66.0079 64.115 65.6745 63.9861 65.7834C63.9521 65.8142 63.8186 65.9678 63.6974 66.1245C63.5763 66.2811 63.1873 66.7612 62.8346 67.188C62.4819 67.6148 62.1222 68.0825 62.028 68.2229C61.9339 68.3634 61.805 68.5247 61.7363 68.5764C61.6738 68.6296 61.2578 69.0997 60.8194 69.6198C59.5305 71.1541 58.5272 72.2284 57.371 73.3104C57.0831 73.5829 56.7219 73.9255 56.5714 74.0683C56.4233 74.2149 55.7479 74.83 55.0742 75.439C54.4004 76.0479 53.6525 76.7433 53.4164 76.9794C53.1786 77.2217 52.6916 77.6871 52.3335 78.0174C51.9716 78.3501 51.6729 78.6395 51.6605 78.6626C51.6505 78.6897 51.3132 79.0022 50.9088 79.3603C50.5067 79.7223 50.1625 80.0495 50.1432 80.0873C50.0753 80.254 47.5669 82.5199 47.4859 82.4898C47.4527 82.4783 47.2906 82.628 47.1177 82.8209C46.9449 83.0139 46.6855 83.2377 46.5319 83.3141C46.214 83.4839 45.2546 84.2641 45.2006 84.4015C45.1736 84.4702 45.2068 84.4818 45.3249 84.4424C45.4136 84.4154 45.5155 84.3228 45.5471 84.2356C45.5811 84.1522 45.6745 84.0804 45.7555 84.0843C45.8342 84.0843 46.0882 83.9215 46.3189 83.72C46.5497 83.5186 46.8136 83.3288 46.9101 83.2971C47.0027 83.2678 47.2134 83.1204 47.3778 82.9745C47.5399 82.8248 47.7846 82.6203 47.9243 82.5207C48.0616 82.4173 48.5077 82.0237 48.9106 81.6455C49.5944 81.0096 49.9456 80.7989 49.721 81.1593C49.6708 81.2419 49.6616 81.3577 49.7086 81.4186C49.7696 81.5028 49.731 81.5522 49.5304 81.6463C49.3899 81.7096 49.2324 81.867 49.183 81.9859C49.129 82.1233 49.0704 82.1742 49.0279 82.1209C48.994 82.0731 49.0017 81.9897 49.0503 81.9396C49.0989 81.8894 49.1113 81.8138 49.0843 81.7775C49.0588 81.7351 48.9685 81.7945 48.8936 81.8971C48.8041 82.0191 48.7802 82.1279 48.8296 82.1927C48.8836 82.2653 48.8712 82.3147 48.7763 82.3664C48.7068 82.408 48.578 82.5431 48.4946 82.6666C48.3788 82.841 48.2986 82.8734 48.165 82.8171C48.023 82.7553 47.9744 82.7793 47.9227 82.9467C47.8872 83.0625 47.7498 83.2709 47.6155 83.4144C47.4812 83.558 47.3933 83.6213 47.3508 83.6467C47.3624 83.6398 47.3786 83.6406 47.3925 83.6375C47.4643 83.6259 47.4735 83.6413 47.4203 83.6838C47.3686 83.7201 47.0375 84.0342 46.7411 84.1962C46.5011 84.3297 46.2664 84.3236 46.207 84.4694C46.1545 84.6006 46.0372 84.7287 45.9508 84.7596C45.862 84.7866 45.7601 84.8792 45.7262 84.9626C45.6922 85.0459 45.5595 85.1571 45.4383 85.2088C45.3133 85.2628 45.1759 85.3925 45.1319 85.5028C45.074 85.6425 44.966 85.7074 44.7491 85.722C44.5847 85.7367 44.3578 85.9883 44.1618 86.0901C43.8731 86.2476 43.2264 86.2105 43.0056 86.3062C42.7756 86.4127 42.5765 86.4482 42.524 86.3957C42.4739 86.3471 42.4515 86.3448 42.4731 86.3896C42.5341 86.4999 41.8564 86.6651 41.7198 86.5686C41.6473 86.5177 41.6836 85.9921 41.1858 86.2383C40.8416 86.4081 40.7536 86.4189 40.6054 86.3031C40.5128 86.2275 40.441 86.1341 40.4503 86.097C40.4595 86.06 40.4009 86.006 40.3206 85.9859C40.2403 85.9658 40.0929 85.8338 39.9918 85.7003C39.8228 85.4711 39.8869 85.4117 39.9749 84.7186C40.0266 84.315 40.1238 83.7686 40.1864 83.5054C40.2527 83.2399 40.2844 82.8115 40.262 82.5468C40.2396 82.2821 40.2234 81.8877 40.225 81.6716C40.2304 81.4532 40.1686 81.0704 40.0907 80.818C39.8877 80.1473 39.7573 79.1602 39.8453 78.9395C39.8978 78.8083 39.6555 77.311 39.5528 77.1312C39.5181 77.0733 39.5189 77.0046 39.5513 76.9799C39.5837 76.9553 39.5999 76.8248 39.5837 76.6928C39.5636 76.5107 39.5266 76.4752 39.4425 76.5362C39.2765 76.662 39.1284 75.6803 39.2503 75.2712C39.3291 75.0088 39.3206 74.9509 39.2002 74.934C39.1207 74.9239 39.0474 74.8629 39.0365 74.8012C38.8529 73.6466 38.7132 73.0114 38.5812 72.7652C38.4917 72.5985 38.4253 72.4179 38.4331 72.3608C38.4408 72.3037 38.4068 72.1509 38.3582 72.0174C38.1537 71.4316 37.9615 70.7439 37.9415 70.4831C37.9307 70.3688 37.473 69.746 37.3904 69.5122C37.3079 69.2783 37.1018 68.8561 36.932 68.5644C36.7645 68.2765 36.6341 67.9979 36.6418 67.9408C36.6495 67.8837 36.4844 67.6521 36.2791 67.4237C36.0545 67.1806 35.8762 66.8834 35.8415 66.6944C35.8099 66.5192 35.7142 66.3509 35.6324 66.3108C35.4502 66.2259 35.042 65.6416 34.2934 64.4114C33.8372 63.6512 32.0491 61.2393 31.3352 60.4081C30.6105 59.5676 30.1706 59.1493 29.8349 58.9834C29.8349 58.9834 28.7845 58.396 28.8046 57.8172C28.8246 57.2384 29.7546 57.4938 29.7654 57.4244C29.7762 57.3549 29.8966 57.2669 30.0332 57.2322C30.5696 57.0941 30.7263 56.8479 30.9216 56.9196C31.069 56.9729 31.2889 56.9984 31.4078 56.9691C31.735 56.8934 32.3478 56.9876 32.9537 57.4113C33.2693 57.6313 33.4206 57.8659 33.5263 57.8497C33.754 57.8181 35.7575 59.303 35.6634 59.4172C35.6263 59.4604 35.8771 59.5986 36.0523 59.8294C36.2213 60.0586 36.3911 60.3241 36.4212 60.4267C36.5254 60.7578 36.6713 61.0796 36.6813 61.0002C36.6883 60.9593 36.7423 60.9793 36.8063 61.0511C36.8681 61.119 36.9097 61.2672 36.8959 61.3752C36.882 61.4833 36.9013 61.6029 36.9422 61.6361C36.9831 61.6693 37.0031 61.6153 36.9916 61.5173C36.9607 61.2734 37.0965 61.3073 37.3049 61.6022C37.3998 61.7341 37.5117 61.8507 37.5465 61.8561C37.6321 61.8677 38.1454 62.5569 38.1322 62.6487C38.1291 62.6873 38.2812 62.932 38.4787 63.1913C38.9719 63.8558 39.3061 64.369 39.5947 64.9201C39.7298 65.1802 39.9397 65.4688 40.0578 65.5607C40.1867 65.6618 40.2685 65.8069 40.2523 65.9111C40.2376 66.0091 40.304 66.1897 40.3997 66.3054C40.6119 66.5717 41.3605 68.0644 41.4747 68.4472C41.4986 68.522 41.5913 68.7289 41.6777 68.9079C41.7711 69.0986 41.8081 69.2915 41.7687 69.3833C41.7255 69.4775 41.744 69.5608 41.8158 69.6018C41.9231 69.6581 41.9794 70.0231 41.9709 70.6213C41.9678 70.7386 42.0226 70.8737 42.089 70.923C42.1554 70.9724 42.2156 71.1515 42.2264 71.3182C42.2333 71.4872 42.2765 71.6292 42.3213 71.6339C42.4541 71.6539 42.3707 71.9086 42.2179 71.9426C42.0373 71.9827 42.0458 72.4342 42.2333 72.9042C42.3035 73.0825 42.3452 73.3094 42.3251 73.4159C42.3051 73.5224 42.3128 73.7802 42.3413 73.994C42.3575 74.0997 42.3344 73.7725 42.4093 73.5911C42.488 73.4074 42.6709 73.3712 42.6539 73.3866C42.6393 73.4059 42.7975 73.6258 42.7921 73.8967C42.7882 74.1352 42.623 74.4285 42.64 74.4655C42.6933 74.5805 42.7071 74.5774 42.7257 74.4509C42.7311 74.4161 42.9333 74.3158 42.9966 74.8499C43.083 75.5538 42.9873 76.9337 43.0181 76.8889C43.0382 76.8612 43.2134 76.8295 43.4187 76.3495C43.7676 75.5314 44.1373 74.3807 44.2191 74.2109C44.348 73.9446 44.3418 73.5757 44.3873 73.5379C44.554 73.3959 44.8026 72.9004 44.9955 72.3385C45.1043 72.0213 45.2749 71.6146 45.3706 71.4417C45.4841 71.2372 45.9811 69.459 46.7599 66.436C47.2284 64.6277 47.6375 63.3589 47.93 61.9921C48.4564 59.5718 48.6247 57.8754 48.637 57.7998C48.654 57.6269 48.7551 56.5009 48.8038 55.506C48.8547 54.4364 48.7683 53.3389 48.7953 52.8503C48.8154 52.5339 48.81 52.2275 48.7853 52.1689C48.7606 52.1102 48.7406 51.9018 48.7398 51.7081C48.7406 51.1671 48.6194 49.9855 48.5561 49.8713C48.5237 49.8172 48.5137 49.6868 48.5422 49.5857C48.5901 49.3943 48.489 48.7097 48.1201 46.8266C48.0615 46.5364 48.0244 46.2647 48.0337 46.2277C48.043 46.1906 47.9743 45.8225 47.8763 45.4142C47.7783 45.0059 47.7142 44.6193 47.7312 44.5514C47.7482 44.4834 47.6849 44.1331 47.5861 43.7672C47.4873 43.4014 47.3901 42.8982 47.3623 42.642C47.2597 41.7012 46.7426 39.9384 46.4671 39.0593C46.3567 38.7005 46.2796 38.3532 46.2927 38.2876C46.3097 38.2196 46.2603 38.0761 46.187 37.9626C46.1098 37.8515 45.9817 36.9207 45.9454 36.7641C45.9091 36.6074 44.5709 33.2486 44.5478 33.1313C44.5246 33.0139 44.4104 32.7361 44.2862 32.5115C44.1642 32.2908 43.989 31.8501 43.8964 31.5383C43.8038 31.2265 43.6479 30.8005 43.5453 30.5944C43.3817 30.2517 42.7774 28.9296 42.2125 27.8306C41.8042 27.0364 41.497 26.5332 41.0255 25.756C40.2151 24.4054 38.8484 22.5384 38.7341 22.3918C38.0982 21.5506 37.8443 21.2411 37.6104 21.035C37.4653 20.9069 37.2593 20.6684 37.1474 20.4994C37.0355 20.3304 36.7214 19.9993 36.4489 19.7639C36.1765 19.5285 35.8539 19.192 35.7335 19.0175C35.6131 18.8431 35.0242 18.4039 34.5967 17.9362C34.1691 17.4685 33.615 17.061 33.5401 16.9275C33.4614 16.7963 33.3549 16.6713 33.2932 16.6558C33.1859 16.6257 32.2281 15.8254 32.083 15.6448C32.0005 15.5421 31.1307 14.7835 30.8976 14.6137C30.8142 14.5535 30.5094 14.3165 30.2177 14.0927C29.1974 13.2931 28.8555 13.0469 28.1964 12.6394C27.5797 12.2589 26.8851 11.731 26.4576 11.3158C26.1674 11.0333 25.2606 10.4228 25.0506 10.3703C24.9457 10.3441 24.7651 10.2267 24.6447 10.1048C24.5266 9.98671 24.123 9.69884 23.7479 9.46729C23.2964 9.18713 23.078 8.99804 23.0981 8.91777C23.115 8.84986 23.0464 8.6654 22.9476 8.5095C22.7137 8.14598 22.6667 7.71764 22.8473 7.54631C22.943 7.45216 22.9568 7.39659 22.8912 7.33099C22.8256 7.26538 22.8619 7.10717 23.0155 6.71588C23.1699 6.33462 23.2054 6.16638 23.1483 6.10618C23.1043 6.0591 23.0294 6.03054 22.9862 6.04597C22.8658 6.08147 22.6898 5.94563 23.0179 5.56516C23.0179 5.56516 23.5265 5.22326 23.5272 5.12833C23.5272 4.91841 23.8815 4.56417 24.0112 4.64906L24.0559 4.70618ZM38.2696 63.2275C38.2781 63.1805 38.2403 63.1349 38.1955 63.1303C38.1484 63.1218 38.1029 63.1596 38.0983 63.2044C38.0898 63.2515 38.1276 63.297 38.1723 63.3016C38.2194 63.3101 38.265 63.2723 38.2696 63.2275ZM38.6817 63.8095C38.6092 63.7323 38.5598 63.7199 38.5559 63.7747C38.5497 63.8257 38.5814 63.8959 38.6269 63.9368C38.7627 64.0495 38.8114 63.9469 38.6817 63.8095ZM39.8772 65.732C39.8239 65.617 39.8046 65.6286 39.7846 65.7876C39.7707 65.8956 39.7977 65.9844 39.8448 65.9929C39.9528 66.0068 39.9659 65.9149 39.8795 65.7359L39.8772 65.732ZM40.7292 67.362C40.6482 67.1482 40.5787 67.085 40.5586 67.2177C40.5517 67.2586 40.6057 67.3574 40.6759 67.4307C40.7925 67.555 40.794 67.5488 40.723 67.3605L40.7292 67.362ZM40.9823 67.9764C40.9947 67.9007 40.953 67.7788 40.8874 67.7132C40.74 67.555 40.7184 67.6939 40.8558 67.9316C40.9484 68.086 40.963 68.0929 40.9823 67.9764ZM41.5164 68.9102C41.4979 68.8269 41.4462 68.7582 41.4053 68.7512C41.2949 68.7335 41.3011 68.7875 41.4353 68.9326C41.5303 69.0383 41.5442 69.0353 41.5164 68.9102ZM41.5951 69.3563C41.5951 69.3563 41.5457 69.2915 41.4762 69.2544C41.4068 69.2174 41.3489 69.2259 41.3404 69.273C41.3358 69.3177 41.3898 69.364 41.4593 69.3748C41.5287 69.3856 41.5905 69.3748 41.5912 69.3586L41.5951 69.3563ZM41.4809 69.9707C41.5133 69.946 41.5256 69.8703 41.5125 69.8047C41.4948 69.7314 41.4701 69.7515 41.4515 69.8518C41.4384 69.9436 41.4484 69.9954 41.4809 69.9707ZM41.2107 70.6838C41.2408 70.629 41.2555 70.531 41.2385 70.4677C41.2215 70.4044 41.1968 70.4507 41.1799 70.5711C41.1629 70.6915 41.1768 70.7409 41.2107 70.6838ZM41.7741 70.3195C41.7386 70.1729 41.7263 70.1698 41.6391 70.3218C41.5056 70.5541 41.4886 70.7008 41.5904 70.7131C41.7209 70.7293 41.8228 70.5055 41.7741 70.3195ZM41.362 72.0468L41.426 71.8036C41.4639 71.6655 41.4492 71.5273 41.4013 71.4826C41.352 71.444 41.3296 71.363 41.3512 71.3028C41.3728 71.2426 41.3388 71.1685 41.2779 71.1368C41.1937 71.0928 41.1737 71.1206 41.2076 71.2472C41.2331 71.3421 41.2763 71.5628 41.3056 71.7342L41.3581 72.0491L41.362 72.0468ZM41.8111 73.0316C41.7864 72.8679 41.7996 72.6974 41.8382 72.648C41.9802 72.4736 42.1075 71.4263 42.0111 71.248C41.9308 71.0967 41.8992 71.1839 41.7957 71.8862C41.7293 72.3354 41.6514 72.7128 41.6267 72.7329C41.5657 72.7799 41.5703 72.8139 41.6491 73.1813C41.7332 73.5664 41.8706 73.4367 41.8111 73.0316ZM42.0087 74.8391C42.0226 74.731 41.9994 74.6399 41.9485 74.6338C41.8404 74.6199 41.825 74.7079 41.9161 74.8946C41.9693 75.0096 41.9886 74.9981 42.0087 74.8391ZM42.1476 75.8053C42.1947 75.8138 42.2456 75.715 42.2626 75.5946C42.2773 75.4704 42.251 75.3917 42.1985 75.4179C42.1437 75.4403 42.0943 75.5329 42.0835 75.6286C42.0704 75.7204 42.099 75.803 42.1499 75.8092L42.1476 75.8053ZM44.3624 84.8939C44.036 85.1632 44.0167 85.201 44.1703 85.2296C44.5145 85.296 44.7352 85.2003 44.7213 84.9934C44.7151 84.8869 44.7699 84.7858 44.8487 84.7596C44.9884 84.7125 44.9644 84.6114 44.8139 84.5968C44.7692 84.5921 44.5677 84.7287 44.3686 84.8954L44.3624 84.8939ZM49.092 80.1984C49.0542 80.2841 49.0542 80.3366 49.0912 80.3196C49.1283 80.3026 49.1615 80.2355 49.1622 80.1668C49.1646 80.0919 49.1352 80.1043 49.0959 80.1961L49.092 80.1984ZM63.8093 66.7921C63.7908 66.8399 63.8109 66.8909 63.8549 66.9117C63.8989 66.9325 63.9429 66.9271 63.9475 66.9086C63.956 66.8878 63.9359 66.8368 63.9019 66.789C63.868 66.7411 63.824 66.7465 63.8093 66.7921ZM57.8041 67.9442C57.8411 67.9273 57.8743 67.8601 57.8712 67.7937C57.8735 67.7189 57.8442 67.7312 57.8049 67.8231C57.7647 67.9049 57.767 67.9612 57.8041 67.9442ZM57.2854 68.6543L57.4205 68.5208C57.4977 68.4482 57.5795 68.3309 57.6088 68.2661C57.6551 68.1596 57.6466 68.1542 57.534 68.2375C57.4653 68.2892 57.3811 68.4027 57.3456 68.4922L57.2854 68.6543ZM64.3002 65.6946L64.3149 66.0164L64.46 65.541C64.5796 65.1544 64.6267 65.0841 64.7069 65.1567C64.805 65.2501 64.8906 65.1567 64.8335 65.0178C64.7864 64.9043 64.4036 65.071 64.3411 65.2292C64.3087 65.3064 64.2925 65.5156 64.3002 65.6946ZM53.5314 73.1475C53.5623 73.0765 53.5399 73.0217 53.4843 73.0341C53.4265 73.0426 53.3778 73.0665 53.3709 73.0811C53.3663 73.0997 53.3863 73.1506 53.418 73.1946C53.4519 73.2424 53.5005 73.2185 53.5314 73.1475ZM49.1716 72.5987C49.0852 72.8133 48.9594 73.0934 48.8907 73.2238C48.6993 73.5958 48.3952 74.7334 48.5063 74.6563C48.5642 74.6215 48.7525 74.1832 48.9362 73.6846C49.1199 73.186 49.3175 72.6581 49.3769 72.5123C49.4402 72.3641 49.4526 72.236 49.4055 72.2275C49.3623 72.2167 49.2519 72.3826 49.1655 72.5972L49.1716 72.5987ZM49.8315 71.022C49.7327 71.1022 49.6231 71.3569 49.5444 71.6718C49.4634 72.0091 49.458 72.1488 49.5251 72.077C49.583 72.016 49.7119 71.7235 49.8122 71.4272C49.9751 70.9463 49.9759 70.9039 49.8315 71.022ZM50.6111 68.4813C50.4436 68.9281 50.1765 70.075 50.2205 70.1483C50.2784 70.2448 50.8411 68.3748 50.7924 68.2413C50.7616 68.1548 50.7014 68.2382 50.6111 68.4813ZM51.22 66.7409C51.183 66.7317 51.0842 66.9169 51.0039 67.1592C50.9275 67.3992 50.8418 67.6501 50.8148 67.7188C50.7917 67.7851 50.7909 67.9063 50.8195 67.9889C50.858 68.0969 50.8959 68.0375 50.9815 67.7604C51.0441 67.5497 51.1374 67.2418 51.1907 67.0682C51.244 66.8945 51.2571 66.7502 51.2177 66.7371L51.22 66.7409ZM51.9625 63.8236C51.8475 63.9818 51.5488 65.2946 51.6044 65.3872C51.6229 65.4181 51.7356 65.0461 51.8514 64.5568C51.9741 64.0528 52.0204 63.7364 51.9625 63.8236ZM52.4774 61.7514C52.3662 61.9335 52.0143 63.5249 52.066 63.6198C52.0799 63.643 52.2003 63.1877 52.3415 62.6096C52.492 61.9945 52.5453 61.6371 52.4774 61.7514ZM52.685 60.5404C52.6209 60.5999 52.5762 60.7002 52.5854 60.7681C52.5947 60.836 52.5669 61.0259 52.5268 61.1864C52.4866 61.347 52.4959 61.4674 52.543 61.4496C52.6178 61.4257 52.6965 61.137 52.7853 60.559C52.8007 60.4448 52.7923 60.4393 52.6927 60.5358L52.685 60.5404ZM52.8633 59.5518L52.783 59.8466C52.739 60.0095 52.722 60.2086 52.7483 60.2873C52.7899 60.4092 52.8038 60.4062 52.8293 60.2649C52.8463 60.1708 52.8633 59.9716 52.864 59.8242L52.8633 59.5518ZM52.9312 59.2539C52.9019 59.3712 52.9119 59.4229 52.9482 59.3697C52.9845 59.3164 53.0115 59.2215 53.0007 59.1597C52.9937 59.0957 52.9605 59.1366 52.9312 59.2539ZM52.8648 58.7322C52.8479 58.8001 52.8648 58.8896 52.9065 58.9328C52.9459 58.9722 52.9945 58.9483 53.0115 58.8804C53.0285 58.8124 53.0115 58.7229 52.9698 58.6797C52.9304 58.6403 52.8857 58.6619 52.8648 58.7322ZM53.2114 57.3854C53.1759 57.3962 53.1265 57.5151 53.1064 57.6478C53.0825 57.7829 53.0277 58.0414 52.9876 58.2282C52.9389 58.4358 52.949 58.54 53.0107 58.503C53.1188 58.4381 53.3179 57.353 53.2114 57.3854ZM53.1998 55.7654C53.1759 56.0055 53.1829 56.2532 53.2214 56.3088C53.2654 56.3821 53.3063 56.2841 53.3395 55.9808C53.3658 55.7446 53.3588 55.4969 53.3179 55.4374C53.2693 55.3564 53.2338 55.4459 53.1998 55.7654ZM53.3558 51.5994C53.3543 51.7105 53.3944 51.8124 53.4314 51.8216C53.5426 51.8494 53.5657 51.6519 53.47 51.4311C53.3813 51.222 53.3466 51.269 53.3535 51.5955L53.3558 51.5994ZM53.2786 50.8322C53.2964 50.9843 53.4361 51.0684 53.4631 50.9472C53.4724 50.9102 53.443 50.7913 53.3983 50.6817C53.3142 50.4803 53.2439 50.5644 53.2786 50.8322ZM53.1328 49.382C53.1081 49.4808 53.0973 49.629 53.1073 49.707C53.1367 49.957 53.2802 49.9076 53.2802 49.6452C53.2833 49.318 53.1876 49.1497 53.1328 49.382ZM52.882 46.3574C52.9337 46.636 52.9962 46.7927 53.0194 46.7001C53.0618 46.5434 52.9307 45.73 52.8604 45.7091C52.7863 45.6906 52.7917 45.8658 52.8797 46.3536L52.882 46.3574ZM52.6837 45.2484C52.7092 45.3958 52.7578 45.4768 52.7902 45.4259C52.8226 45.3749 52.801 45.2515 52.7431 45.155C52.6436 44.989 52.6382 44.9975 52.6837 45.2484ZM52.4012 43.8067C52.3843 43.8746 52.4059 44.0243 52.4522 44.1277C52.5139 44.2744 52.5456 44.2921 52.5664 44.1957C52.5834 44.1277 52.5618 43.978 52.5155 43.8746C52.4537 43.728 52.4259 43.7079 52.4012 43.8067ZM51.8719 40.9125C51.8464 41.0012 51.8526 41.0553 51.8873 41.0344C51.922 41.0136 51.9429 40.9434 51.9336 40.8754C51.9259 40.8013 51.8989 40.8176 51.8719 40.9125ZM51.9406 39.8899C51.9282 39.9393 51.9537 40.008 51.993 40.0473C52.0324 40.0867 52.0725 40.0836 52.0849 40.0342C52.0957 39.991 52.0718 39.9161 52.0324 39.8768C51.993 39.8374 51.9529 39.8405 51.9406 39.8899ZM51.273 38.3749C51.3093 38.5053 51.3671 38.5755 51.4081 38.53C51.4513 38.4883 51.4304 38.3486 51.3679 38.2182C51.2336 37.9419 51.1781 38.033 51.273 38.3749ZM51.0716 37.4618C51.0824 37.5498 51.1194 37.6116 51.1503 37.593C51.1812 37.5745 51.1734 37.5004 51.1295 37.4271C51.0669 37.3229 51.0554 37.3299 51.0716 37.4618ZM50.4241 35.1581C50.3847 35.1187 50.3407 35.1241 50.3299 35.1673C50.3176 35.2167 50.3392 35.2877 50.3786 35.3271C50.4179 35.3664 50.4619 35.361 50.4704 35.314C50.4812 35.2707 50.4573 35.1959 50.4179 35.1565L50.4241 35.1581ZM50.6093 34.942C50.6765 35.1063 50.6973 35.1148 50.7289 35.0014C50.7513 34.925 50.7197 34.8023 50.6657 34.7297C50.5352 34.5561 50.5013 34.6919 50.6078 34.9481L50.6093 34.942ZM47.7994 27.8006C47.7994 27.8006 47.7546 27.8485 47.7338 27.9187C47.7168 27.9866 47.7361 28.0538 47.7855 28.0661C47.8287 28.0769 47.8588 28.0221 47.8511 27.948C47.8411 27.8701 47.8179 27.8052 47.7994 27.8006ZM45.4625 23.5295C45.4895 23.6445 45.5459 23.7734 45.5875 23.8166C45.7496 23.9818 45.7457 23.8267 45.5814 23.5789C45.417 23.3312 45.4108 23.3296 45.4602 23.5257L45.4625 23.5295ZM43.6782 20.643C43.6597 20.7171 43.6875 20.7634 43.7407 20.7472C43.794 20.731 43.8488 20.6824 43.8572 20.6353C43.8681 20.5921 43.8403 20.5458 43.7947 20.5311C43.7453 20.5188 43.6967 20.5689 43.6782 20.643ZM42.414 19.1921C42.5962 19.3557 42.732 19.3896 42.7559 19.2808C42.7706 19.2353 42.6996 19.1782 42.607 19.155C42.5144 19.1319 42.4495 19.0763 42.458 19.0292C42.4665 18.9821 42.4426 18.9335 42.3955 18.925C42.2535 18.8895 42.2628 19.0624 42.4102 19.1944L42.414 19.1921ZM40.872 17.4617C40.8612 17.5049 40.9099 17.5597 40.984 17.5782C41.058 17.5968 41.102 17.5651 41.0843 17.5181C41.0681 17.4648 41.0195 17.41 40.9724 17.4015C40.9292 17.3907 40.8829 17.4185 40.8682 17.464L40.872 17.4617ZM29.8396 8.10057C29.8272 8.14997 29.8535 8.20245 29.9006 8.21094C29.9476 8.21943 29.9878 8.21635 29.9963 8.19551C30.0009 8.17699 29.9747 8.12451 29.9314 8.08746C29.8921 8.0481 29.8481 8.0535 29.8357 8.10289L29.8396 8.10057ZM26.3049 6.2328C26.3211 6.28605 26.4206 6.34703 26.5217 6.37558C26.6699 6.41263 26.6869 6.39719 26.6012 6.30689C26.4646 6.15794 26.267 6.10854 26.3049 6.2328ZM26.2431 5.87624C26.2987 5.96885 26.3481 5.9812 26.4407 5.92563C26.6028 5.82839 26.531 5.70877 26.3249 5.73269C26.203 5.74812 26.1814 5.78208 26.2393 5.87855L26.2431 5.87624ZM31.3546 8.29895C31.4287 8.29123 31.4125 8.26422 31.3152 8.23335C31.2265 8.20788 31.1725 8.21405 31.1933 8.24878C31.2141 8.28351 31.2844 8.30435 31.3523 8.29509L31.3546 8.29895ZM30.5473 7.72318C30.5627 7.87136 30.907 8.09519 31.0112 8.03267C31.1617 7.94238 31.0204 7.70698 30.7796 7.64678C30.5882 7.59892 30.5311 7.61745 30.5411 7.72164L30.5473 7.72318ZM36.8148 60.9253C36.9067 60.9647 36.9869 60.9585 36.9916 60.9137C36.9985 60.8728 36.9854 60.8335 36.963 60.8311C36.953 60.8319 36.6883 60.4607 36.5625 60.321C36.4344 60.1774 36.4506 60.2569 36.4151 60.2415C36.4151 60.2415 36.6643 60.7269 36.6558 60.774C36.6512 60.8188 36.7191 60.8882 36.811 60.9276L36.8148 60.9253ZM42.6748 73.0539C42.6887 72.5523 42.5389 72.2328 42.4278 72.2837C42.3321 72.3254 42.3537 72.6588 42.4787 73.0771C42.5621 73.3472 42.6632 73.4545 42.6748 73.0539ZM40.8828 66.787C40.926 66.8241 40.9654 66.811 40.9715 66.76C40.9777 66.7091 40.9438 66.6613 40.899 66.6566C40.8519 66.6481 40.8126 66.6612 40.8102 66.6836C40.8079 66.706 40.8396 66.75 40.8828 66.787ZM49.5883 31.6657C49.6338 31.6804 49.6755 31.6711 49.684 31.6503C49.6886 31.6318 49.6624 31.5793 49.6192 31.5422C49.5798 31.5029 49.5358 31.5083 49.5235 31.5577C49.5111 31.6071 49.5412 31.6572 49.5883 31.6657ZM31.6702 8.67636C31.8339 8.8091 31.8601 8.80911 31.867 8.68948C31.8732 8.6123 31.7976 8.49498 31.7019 8.4317C31.4526 8.26113 31.4248 8.47723 31.6702 8.67636ZM67.4792 62.7272C67.5417 62.7526 67.6112 62.7372 67.6282 62.6955C67.6452 62.6538 67.5873 62.5836 67.4916 62.5466C67.4021 62.5111 67.3326 62.5265 67.3449 62.5821C67.3573 62.6376 67.4167 62.7017 67.4792 62.7272ZM51.4081 36.9818C51.4536 36.9965 51.4999 36.9687 51.5123 36.9193C51.5231 36.8761 51.4976 36.8074 51.4621 36.7657C51.4227 36.7263 51.3741 36.7503 51.3579 36.8282C51.3417 36.9062 51.3649 36.971 51.4081 36.9818ZM51.2584 36.3474C51.3247 36.3968 51.3626 36.3898 51.3463 36.3366C51.3301 36.2833 51.2815 36.2285 51.2344 36.22C51.111 36.1892 51.1241 36.2548 51.2545 36.3497L51.2584 36.3474ZM32.1549 9.02057C32.2514 9.04141 32.3162 9.01827 32.3 8.96501C32.2838 8.91176 32.2128 8.85464 32.1449 8.83767C32.077 8.82068 32.0121 8.84384 32.0037 8.89092C31.989 8.93645 32.06 8.99356 32.1549 9.02057ZM33.5711 10.48C33.7749 10.531 33.7996 10.3272 33.5943 10.23C33.5148 10.1937 33.4484 10.223 33.426 10.2994C33.406 10.3797 33.4638 10.4499 33.5688 10.4762L33.5711 10.48ZM49.3846 31.3261C49.5204 31.4126 49.5243 31.2791 49.3992 30.992L49.2889 30.738L49.2912 31.0043C49.2943 31.1494 49.3359 31.2976 49.3869 31.33L49.3846 31.3261Z" fill="white"/>
</g>
<defs>
<clipPath id="clip0_4331_1739">
<rect width="80.2885" height="37.0683" fill="white" transform="translate(41.3069 87.9185) rotate(-120.963)"/>
</clipPath>
</defs>
</svg>
