<svg width="87" height="84" viewBox="0 0 87 84" fill="none" xmlns="http://www.w3.org/2000/svg">
<path d="M75.6111 58.0436C75.5638 58.2438 75.5229 58.4168 75.4843 58.5807C75.3897 58.9812 75.4215 59.3348 75.8531 59.5424C76.1294 59.6749 76.2181 59.8688 76.1364 60.2148C75.325 63.7331 74.5023 67.2583 73.7637 70.7938C73.1745 73.615 72.7037 76.464 72.1601 79.2959C71.9014 80.6765 71.1521 81.3261 69.7536 81.4284C69.6743 81.4386 69.5811 81.4262 69.5157 81.4588C68.6729 81.8941 67.7833 81.8763 66.8787 81.7589C66.115 81.6555 65.3561 81.5724 64.5994 81.4802C64.5153 81.47 64.4264 81.4394 64.3354 81.4179C64.344 81.3815 64.3547 81.336 64.3542 81.2974C65.0472 81.3745 65.7494 81.4538 66.4445 81.5218C66.5672 81.5315 66.753 81.5178 66.7997 81.4423C66.9327 81.2046 67.1126 81.2567 67.3102 81.2745C67.5464 81.2918 67.7944 81.3407 68.0183 81.2879C68.862 81.093 69.7036 80.9073 70.519 80.6288C71.2417 80.3766 71.4415 79.6933 71.5299 78.9933C71.7514 77.2003 71.9547 75.403 72.1783 73.6008C72.1988 73.4327 72.358 73.2876 72.4443 73.1254C72.4931 73.0408 72.5553 72.9402 72.5565 72.8539C72.5692 70.1947 73.1914 67.6408 73.8339 65.0822C74.0365 64.265 74.2208 63.4436 74.4164 62.6151C74.0796 62.5356 73.9739 62.7798 73.9506 63.0818C73.9009 63.6179 73.8694 64.1583 73.8085 64.7014C73.7697 65.0286 73.8315 65.418 73.3772 65.5511C73.3569 65.5559 73.3556 65.8055 73.4203 65.8976C73.6033 66.1811 73.4875 66.346 73.233 66.4877C73.1767 66.5225 73.114 66.5846 73.1102 66.6413C72.9122 67.8056 72.6891 68.9543 72.5296 70.118C72.451 70.6954 72.5063 71.2755 72.2187 71.8419C71.9666 72.3398 71.8607 72.9107 71.7387 73.4682C71.6763 73.7322 71.7436 74.0172 71.7563 74.2893C71.7593 74.5207 71.81 74.7537 71.7675 74.9743C71.518 76.3571 71.2411 77.7334 70.9754 79.1027C70.8292 79.8851 70.4545 80.2099 69.6612 80.2725C69.4165 80.2916 69.1631 80.3471 68.9557 80.452C68.399 80.7338 67.8162 80.7596 67.2164 80.6949C65.2258 80.4556 63.2324 80.1868 61.2375 79.9657C60.6103 79.8945 59.9606 80.0006 59.342 79.893C57.9662 79.6547 56.6007 79.3323 55.2287 79.0372C54.3778 78.8555 53.5285 78.6261 52.6754 78.4535C51.5267 78.2304 50.3651 78.0619 49.2185 77.8296C48.5861 77.6995 47.9632 77.6101 47.3007 77.6075C46.7924 77.6028 46.2746 77.3941 45.7713 77.2464C44.1086 76.7577 42.4545 76.2327 40.7854 75.7713C38.3398 75.0978 35.87 74.4859 33.4201 73.8306C31.3595 73.2768 29.3059 72.7342 27.2539 72.1441C24.6713 71.3997 22.1085 70.6121 19.5392 69.8517C18.3162 69.4956 17.1044 69.1327 15.8727 68.813C13.826 68.2818 11.7509 67.8303 9.71497 67.2535C7.9409 66.7481 6.19476 66.1244 4.44003 65.5371C4.02986 65.4018 3.72691 65.1381 3.58529 64.7202C3.56873 64.6683 3.54091 64.6232 3.51309 64.5782C2.56163 63.479 2.52355 62.134 2.55135 60.7951C2.58269 59.726 2.68901 58.6651 2.81569 57.5993C3.14718 54.8519 3.66985 52.1496 4.46992 49.4936C5.33979 46.6235 5.88887 43.6872 6.22643 40.7105C6.28572 40.2151 6.39268 39.7214 6.51785 39.2319C7.36735 35.6746 8.2056 32.1241 9.08936 28.5845C9.43642 27.1959 9.89058 25.8422 10.2832 24.4644C10.324 24.2914 10.3306 24.1008 10.3034 23.931C10.105 22.8173 10.5973 21.9532 11.6769 21.5737C11.7176 21.5641 11.7513 21.5433 11.7829 21.5315C12.6134 21.1894 13.4347 20.8451 14.2652 20.5029C16.1356 19.7047 18.0936 19.1866 20.0687 18.7591C24.8562 17.7365 29.2979 15.7769 33.6508 13.6233C36.3175 12.3019 38.905 10.8272 41.707 9.78758C44.6467 8.69397 47.7005 8.33851 50.8113 8.35213C52.252 8.3559 53.5043 9.036 54.7561 9.67754C56.1861 10.4188 57.1798 11.6242 58.151 12.8434C61.1272 16.6024 64.4351 20.0553 67.9001 23.3723C69.4051 24.8136 70.729 26.4525 72.1086 28.0181C74.2251 30.4112 76.3775 32.7743 78.7518 34.9303C79.4406 35.5543 79.9751 36.3436 80.5273 37.0987C80.8761 37.5751 80.9994 38.1521 80.9711 38.7605C80.964 38.9126 81.0432 39.0659 81.0452 39.2201C81.0437 39.7964 81.0877 40.3835 80.993 40.9474C80.7557 42.4003 80.5184 43.8532 80.1649 45.2691C79.915 46.2866 79.4467 47.2524 79.1149 48.2505C78.8771 48.9729 78.7919 49.7409 78.5107 50.4434C78.214 51.1711 78.2579 51.9215 78.17 52.66C78.1247 53.0145 78.0361 53.3492 77.6482 53.5268C77.5512 53.5711 77.4851 53.8919 77.5348 54.0478C77.6764 54.4657 77.5861 54.848 77.4642 55.2422C77.2097 56.0759 76.9734 56.9139 76.728 57.7498C76.5911 58.2077 76.2332 58.4211 75.8091 58.2633C75.7202 58.2327 75.6865 58.0902 75.6079 57.9755L75.6111 58.0436ZM15.6984 24.0802C15.6984 24.0802 15.7284 24.1161 15.7744 24.1654C18.2451 26.4019 20.7179 28.6292 23.1794 30.8635C23.3378 31.0066 23.4898 31.177 23.6767 31.2404C24.3011 31.4455 24.7849 31.8384 25.2447 32.293C25.9297 32.9737 26.6035 33.6614 27.3154 34.31C27.7195 34.6745 28.2153 34.9358 28.6462 35.2682C28.9534 35.5137 29.1937 35.8395 29.6473 35.8313C29.7154 35.8281 29.8096 35.9177 29.8604 35.9873C31.1789 37.5673 32.7902 38.8031 34.3971 40.0571C35.0871 40.5948 35.7638 40.9853 36.6528 41.1279C38.9877 41.4966 41.1841 42.3707 43.439 43.0377C45.0107 43.5048 46.6038 43.881 48.1948 44.2662C49.449 44.5719 50.7117 44.8412 51.9745 45.1105C52.284 45.1836 52.6481 45.2696 52.9214 45.1707C53.4025 45.0056 53.8157 44.6802 54.2802 44.4631C54.7335 44.253 55.2007 44.0653 55.6727 43.8981C56.314 43.665 56.9718 43.484 57.6131 43.2509C58.1821 43.0392 58.7228 42.744 59.3013 42.573C60.6053 42.1793 61.9354 41.8782 63.2325 41.4732C64.3125 41.1323 65.3402 40.6061 66.4298 40.3059C68.6659 39.7093 70.9238 39.2237 73.1722 38.6973C73.7716 38.5601 74.3716 38.4614 74.9758 38.3446C74.0016 37.586 73.0954 36.8242 72.1447 36.1288C70.8551 35.1996 69.7516 34.0933 68.7531 32.8676C66.6084 30.2276 64.4594 27.6057 62.0253 25.2146C61.1679 24.3682 60.3882 23.396 59.7666 22.365C59.2911 21.5704 58.778 20.8533 58.0982 20.2315C56.9684 19.1959 56.0496 17.9986 55.2633 16.6885C54.9177 16.1167 54.5449 15.5385 54.0937 15.0475C52.6252 13.4514 50.8658 12.6804 48.6779 13.3172C47.4484 13.6804 46.2189 14.0437 45.0039 14.4681C41.2435 15.7812 37.5018 17.1372 33.7483 18.4615C33.4435 18.5722 33.1108 18.6378 32.7915 18.6874C31.7202 18.8285 30.7067 19.0505 29.8936 19.8485C29.6674 20.0738 29.3915 20.1432 29.1347 19.7654C29.0366 19.8961 28.9722 20.0058 28.8939 20.093C28.8023 20.1963 28.7224 20.3313 28.605 20.3804C28.1062 20.5798 27.5914 20.7658 27.0739 20.9224C26.9608 20.9534 26.7579 20.8766 26.684 20.7823C26.5455 20.5958 26.4766 20.3585 26.376 20.1329C26.0096 20.2194 25.8514 20.4416 25.9631 20.8235C26.0817 21.2167 25.9525 21.3977 25.5528 21.5436C23.1028 22.4357 20.6667 23.3502 18.2215 24.2626C18.1042 24.3118 17.9868 24.361 17.8829 24.3941C19.5099 25.9701 21.1209 27.5326 22.7341 29.086C22.696 29.1251 22.6692 29.1572 22.6311 29.1962C22.3742 28.9818 22.1194 28.7583 21.8625 28.5438C21.7913 28.479 21.6516 28.3787 21.627 28.4017C21.3799 28.5933 21.2772 28.3768 21.1418 28.2583C19.9578 27.2484 18.776 26.2293 17.5807 25.2262C17.1402 24.8531 16.6707 24.5212 16.1504 24.1197C16.6937 23.8539 17.1647 23.6095 17.6475 23.3967C17.7444 23.3523 17.8745 23.4118 17.9924 23.4012C18.1375 23.397 18.2988 23.4063 18.4113 23.3367C19.5387 22.6322 20.7084 22.0337 21.9829 21.6426C22.0236 21.633 22.0552 21.6213 22.1163 21.6069C21.9878 21.4996 21.8985 21.4305 21.7357 21.3056C21.0102 21.6917 20.2622 22.0918 19.5029 22.4988C19.4242 22.5475 19.3433 22.6053 19.2618 22.6245C18.4883 22.8071 17.6965 22.9854 16.9208 23.1771C16.7987 23.2059 16.691 23.2958 16.5854 23.3766C16.2708 23.6099 15.9653 23.8453 15.6486 24.0877L15.6984 24.0802ZM33.2055 68.0228C33.6842 67.5015 34.1526 67.7563 34.6169 67.8659C34.7717 67.9024 34.9045 67.9914 35.0549 68.0462C35.6793 68.2513 35.6932 68.2738 35.5808 68.872C35.5593 68.963 35.5035 69.0363 35.4617 69.1322C35.8558 69.254 36.0835 69.1444 36.1899 68.7755C36.2962 68.4065 36.5014 68.3108 36.8977 68.4236C37.9247 68.7141 38.9695 68.9704 40.0164 69.2176C44.3407 70.2385 48.674 71.2616 52.9982 72.2826C53.2076 72.332 53.4079 72.3793 53.6173 72.4287C53.4592 72.4875 53.3076 72.519 53.1823 72.4798C52.5558 72.2838 51.8031 72.5002 51.2674 71.9604C51.2374 71.9245 51.1667 71.8982 51.1148 71.9148C50.5175 72.0429 49.9073 71.5336 49.3231 71.9723C49.2872 72.0023 49.1983 71.9717 49.1325 71.9657C48.5616 71.8598 47.9929 71.7447 47.4177 71.657C46.1013 71.4519 44.7785 71.2742 43.4531 71.067C43.2961 71.0395 43.1516 70.9189 42.9985 70.8347L43.0468 70.7115C41.1752 70.904 39.4672 70.2412 37.7424 69.6899C37.6313 70.0385 37.7667 70.1569 38.0457 70.1555C38.2295 70.1508 38.4175 70.128 38.599 70.1324C38.8668 70.1379 39.1705 70.1135 39.2259 70.5303C39.4076 70.3714 39.5684 70.1786 39.6753 70.5403C39.6897 70.6013 39.8129 70.6496 39.8969 70.6599C40.5584 70.7487 41.2219 70.8285 41.8924 70.9196C41.9652 70.9368 42.0515 70.9379 42.12 70.9733C42.6629 71.1976 43.1344 71.6837 43.8085 71.3527C43.8851 71.3131 44.0131 71.3818 44.1111 71.4145C44.7349 71.581 45.3636 71.7679 45.996 71.898C47.8478 72.2776 49.7018 72.648 51.5623 72.9911C51.9853 73.0718 52.4208 73.0593 52.8455 73.0923C53.1567 73.1177 53.4855 73.1088 53.7838 73.1889C54.8355 73.4564 55.8609 73.7946 56.91 74.0327C57.5655 74.1874 58.251 74.2147 58.9328 74.2988C58.9692 74.3074 59.0142 74.2796 59.048 74.2587C59.3679 74.0844 59.6731 74.1756 60.0008 74.253C61.5008 74.6168 63.0141 74.9645 64.5184 75.31C64.6641 75.3444 64.8205 75.3333 65.0475 75.3484C64.7525 74.4811 64.5373 73.6421 64.2026 72.8615C62.8457 69.7347 61.4774 66.6148 60.0776 63.5067C59.1755 61.5061 58.1787 59.5407 56.9005 57.7492C56.1493 56.6972 55.5449 55.5934 55.0101 54.4388C54.7487 53.8773 54.4556 53.3275 54.1175 52.8056C53.5803 51.9868 52.987 51.2027 52.4477 50.393C52.1861 49.9949 51.9834 49.5914 51.4043 49.7238C51.3432 49.7382 51.2768 49.6937 51.2131 49.6787C50.54 49.5582 49.8641 49.4082 49.1845 49.315C47.5479 49.0824 45.8865 49.0362 44.3095 48.5101C43.9358 48.3834 43.5443 48.291 43.1663 48.1825C41.7221 47.7454 40.2714 47.3356 38.8449 46.8643C37.5507 46.4434 36.2693 45.9679 34.9746 45.5084C34.7444 45.4252 34.5976 45.477 34.4159 45.636C33.6328 46.3065 32.8429 46.9658 32.0299 47.6004C29.7972 49.3222 27.4859 50.9294 25.394 52.8287C24.3805 53.7428 23.2802 54.6171 22.0955 55.2793C21.1744 55.8019 20.4251 56.4515 19.6742 57.1488C18.8895 57.867 18.0668 58.6243 17.1313 59.0858C15.6975 59.7853 14.3306 60.5678 13.0198 61.479C12.5476 61.8096 12.0985 62.1649 11.6425 62.509C11.6521 62.5497 11.6638 62.5813 11.6735 62.622C12.3488 62.7334 13.0128 62.8517 13.6924 62.9449C14.6222 63.0779 15.5686 63.0995 16.4768 63.3235C19.8542 64.1209 23.2097 64.9708 26.5721 65.832C27.831 66.158 29.1271 66.3679 30.2797 67.0629C31.0115 67.5048 31.8373 67.671 32.7035 67.4622C33.0608 67.3736 33.2155 67.5735 33.2714 68.0288L33.2055 68.0228ZM8.78531 60.7291C8.78531 60.7291 8.97649 60.7742 9.0349 60.7304C9.31306 60.4885 9.55911 60.2198 9.82336 59.9554C9.94664 59.8403 10.0747 59.7456 10.205 59.6418C10.436 59.4369 10.9088 59.5101 10.898 59.027C10.8996 58.9793 11.0009 58.9167 11.0593 58.8728C12.2731 58.0061 13.496 57.1415 14.7189 56.2769C15.0201 56.0596 15.4059 55.8912 15.5791 55.6053C15.8542 55.1321 16.2197 54.8051 16.7056 54.6603C17.6978 54.3659 18.2838 53.5528 19.0406 52.953C19.0877 52.916 19.0889 52.8298 19.1291 52.7816C19.2518 52.628 19.3629 52.4428 19.5204 52.3454C20.3912 51.7917 21.2967 51.2943 22.1515 50.7272C23.8721 49.5861 25.5789 48.4224 27.2836 47.2679C28.3945 46.5114 29.5236 45.7592 30.5997 44.9464C31.3119 44.413 31.9524 43.7761 32.6411 43.1794C32.54 43.0786 32.5031 43.0315 32.4597 43.0116C31.4167 42.5443 30.5785 41.7794 29.7071 41.0739C29.432 40.8551 29.1343 40.6503 28.8436 40.4567C28.3377 40.1162 27.812 39.8191 27.3308 39.4556C26.6135 38.9114 25.9718 38.2505 25.2148 37.7931C24.3984 37.3024 23.6897 36.7218 22.9805 36.1026C22.2964 35.499 21.599 34.9114 20.8994 34.333C20.0071 33.5937 19.0901 32.8774 18.1866 32.1451C18.0078 32.0068 17.8424 31.8524 17.6861 31.7002C16.794 30.7975 15.9243 29.881 15.023 28.9762C14.6644 28.6224 14.2657 28.3168 13.8824 27.9861C13.8326 27.9935 13.7919 28.0032 13.7421 28.0106C13.6431 29.2847 13.5805 30.5675 13.436 31.8308C13.3449 32.6647 13.2703 33.5506 12.9398 34.2991C12.6533 34.9427 12.5933 35.5628 12.5023 36.2333C12.4037 37.0174 12.2515 37.8657 11.8723 38.5354C11.2158 39.6876 10.7731 40.8709 10.7019 42.1901C10.6513 43.1777 10.6554 44.1782 10.4956 45.14C10.2072 46.85 9.84598 48.5427 9.46441 50.2403C9.1812 51.4806 9.14379 52.7789 8.4145 53.9138C8.23433 54.1884 8.25646 54.6646 8.34725 55.0128C8.44019 55.3519 8.56587 55.593 8.09767 55.7035C8.39038 56.0514 8.48623 56.7852 8.15496 57.1299C7.97593 57.3183 7.5325 57.2424 7.17468 57.2925C7.14611 57.5356 7.35119 57.6033 7.58574 57.6683C8.15017 57.8015 8.13891 57.8085 8.06457 58.3676C8.00692 58.8153 7.96533 59.2765 7.92108 59.7081C9.95585 58.2951 11.9772 56.8982 13.9895 55.4991C14.0173 55.5441 14.0564 55.5822 14.0842 55.6272L13.5037 56.1726C13.4854 56.3316 13.4285 56.4912 13.3256 56.6014C12.4219 57.4165 11.5113 58.2203 10.5846 59.0106C10.4994 59.0866 10.3382 59.0774 10.155 59.1207C9.46251 60.4661 8.02238 61.0295 6.79833 61.9804C6.72044 61.5775 6.65962 61.2652 6.59134 60.9031L6.24529 62.3688C6.45644 62.2072 6.58667 62.1034 6.76622 61.9536C6.86168 62.4855 6.93793 62.936 7.0334 63.4679C7.55457 62.726 8.01784 62.0665 8.4763 61.3866C8.59641 61.2035 8.67531 60.9915 8.77886 60.7564L8.78531 60.7291ZM67.6953 74.3108L67.8469 74.2793C67.8889 74.0201 67.949 73.7652 67.9798 73.513C68.0977 72.647 68.1246 71.7595 68.3406 70.9263C68.9251 68.6135 69.5803 66.3269 70.199 64.0318C70.3548 63.4535 70.5587 62.9153 70.9426 62.4293C71.2573 62.0327 71.4392 61.547 71.235 61.0278C71.0966 60.678 71.0914 60.4557 71.5729 60.4925C71.3086 60.0649 71.298 59.255 71.6399 59.0282C71.8671 58.88 72.2885 59.0083 72.6447 59.0059C72.6658 58.713 72.4173 58.6255 72.1533 58.5632C71.8347 58.4879 71.7465 58.3325 71.826 57.9957C72.5035 55.1666 73.165 52.3241 73.8335 49.4929C73.8636 49.3654 73.8915 49.2471 73.9216 49.1196L74.0308 49.1454C74.0216 49.3066 74.0081 49.4861 74.0058 49.6585C74.0047 49.7448 74.04 49.8396 74.0683 49.9232C74.1062 50.0474 74.1827 50.1712 74.173 50.2939C74.0634 51.4502 73.9447 52.6043 73.8168 53.7563C73.8007 53.9062 73.6822 54.0417 73.5561 54.2906C73.8654 55.3824 73.3397 56.4693 72.9939 57.6083C73.146 57.6154 73.2574 57.632 73.3527 57.6353C73.571 57.3216 72.9998 56.8504 73.6031 56.6564C73.5501 56.5959 73.4993 56.5262 73.4554 56.4678C73.9189 56.1736 73.8855 55.7043 73.8665 55.2962C73.8604 54.9968 73.8386 54.7225 74.0166 54.457C74.1678 54.2236 74.4005 53.971 74.0745 53.6826C74.0424 53.6558 74.0751 53.5578 74.0811 53.4919C74.3477 52.1997 74.6417 50.9139 74.8628 49.611C74.9742 48.9357 75.258 48.2626 75.0535 47.5415C75.0294 47.4398 75.0799 47.3075 75.1169 47.1913C75.3467 46.5439 75.6198 45.9164 75.8131 45.2604C75.9259 44.8642 75.9246 44.4218 76.0031 44.0078C76.058 43.694 76.2992 43.4049 76.0408 43.0748C76.0038 43.0276 76.0859 42.8836 76.1278 42.7878C76.3456 42.2722 76.5656 41.7474 76.8344 41.1381C76.183 41.2919 75.6216 41.39 75.0837 41.5513C72.4775 42.2912 69.8279 42.8478 67.1293 43.1237C65.464 43.2976 63.8232 43.6118 62.3507 44.4752C61.772 44.8095 61.1452 44.9402 60.5259 45.1208C60.0716 45.2538 59.6034 45.3643 59.1748 45.5515C58.3899 45.9044 57.6328 46.3023 56.8687 46.6889C56.1384 47.0547 55.4011 47.4093 54.6414 47.7777C54.7361 47.9058 54.7708 47.9621 54.8078 48.0092C55.2011 48.4193 55.6304 48.7993 55.9766 49.2463C56.3966 49.7876 56.7561 50.3818 57.1065 50.974C57.9763 52.4191 58.8369 53.8622 59.6751 55.3191C60.0025 55.8866 60.2939 56.484 60.5222 57.1049C61.2138 58.979 61.9167 60.8461 63.1629 62.4475C63.4722 62.8473 63.804 63.2332 64.0479 63.6656C64.3405 64.1768 64.6855 64.71 64.7815 65.2805C64.8924 65.9506 65.2504 66.4292 65.5638 66.9741C65.9447 67.6407 66.274 68.3624 66.4652 69.0995C66.7691 70.2958 66.917 71.5417 67.1689 72.7545C67.2826 73.2907 67.5093 73.796 67.684 74.3178L67.6953 74.3108ZM7.0193 58.7648C6.88756 58.7529 6.76706 58.734 6.68083 58.7329C6.39293 59.0974 7.14348 59.5822 6.45022 59.8318C6.49182 60.0627 6.52861 60.2732 6.56541 60.4837C6.58362 60.488 6.59487 60.4811 6.61523 60.4762L7.01716 58.7739L7.0193 58.7648ZM22.9527 21.1988L23.0131 21.3092C23.3748 21.2024 23.7364 21.0955 24.1274 20.986C24.044 20.851 23.9927 20.7428 23.8974 20.5761C23.5556 20.8029 23.2587 21.002 22.9618 21.201L22.9527 21.1988ZM74.5685 59.8542C74.348 60.3404 74.6547 60.5473 74.7627 60.8227C74.7943 60.811 74.8259 60.7992 74.8554 60.7965C74.7677 60.5164 74.6801 60.2362 74.5685 59.8542Z" fill="white"/>
<path d="M63.1405 81.3088C61.565 81.0618 60.0189 80.8121 58.4728 80.5624C58.4792 80.5351 58.4835 80.5168 58.49 80.4895C59.6875 80.6281 60.8871 80.7576 62.0846 80.8961C62.1393 80.909 62.1896 80.9401 62.2394 80.9327C62.6192 80.8301 62.8847 81.0081 63.1475 81.3201L63.1405 81.3088Z" fill="white"/>
<path d="M17.965 70.5757L14.4692 69.7504C15.7151 69.6024 16.801 70.051 17.965 70.5757Z" fill="white"/>
<path d="M24.8069 31.0939C24.2892 30.7218 23.7737 30.3406 23.24 29.9551C23.2572 29.8823 23.2627 29.7778 23.281 29.6188C23.8205 30.1018 24.3349 30.5692 24.8492 31.0366C24.8428 31.064 24.8203 31.0779 24.8047 31.103L24.8069 31.0939Z" fill="white"/>
<path d="M44.6084 42.2373L46.329 42.6435C45.6721 42.9017 45.1394 42.5934 44.6084 42.2373Z" fill="white"/>
<path d="M58.4663 62.9629C59.0986 63.2563 59.163 63.8386 59.2477 64.416C58.9872 63.9317 58.7268 63.4473 58.4663 62.9629Z" fill="white"/>
<path d="M27.9974 45.3028C27.9588 45.9953 27.4238 46.0227 26.9855 46.1692C26.9647 46.1354 26.9416 46.1108 26.9186 46.0861C27.2782 45.825 27.6378 45.5639 28.0065 45.3049L27.9974 45.3028Z" fill="white"/>
<path d="M15.5166 54.6487C15.2229 54.9157 14.9292 55.1827 14.6264 55.4476C14.5579 55.4122 14.4824 55.3656 14.3566 55.2878C14.7435 55.0332 15.1057 54.8015 15.4589 54.5677C15.4819 54.5924 15.5049 54.6171 15.5188 54.6396L15.5166 54.6487Z" fill="white"/>
<path d="M74.3857 47.3167C74.319 47.7622 74.498 48.2658 74.1946 48.6555C74.1582 48.6469 74.1127 48.6362 74.0762 48.6276L74.3857 47.3167Z" fill="white"/>
<path d="M67.2575 44.2496C66.934 44.3174 66.6217 44.3782 66.2574 44.4556C66.556 44.0456 66.9273 43.9794 67.2575 44.2496Z" fill="white"/>
</svg>
