<svg width="179" height="47" viewBox="0 0 179 47" fill="none" xmlns="http://www.w3.org/2000/svg">
<path d="M2.47886 39.4771C2.45203 39.3001 2.45177 39.1355 2.4781 38.9834C2.50442 38.8312 2.48442 38.6449 2.41809 38.4245C2.75596 37.2868 3.1704 36.2198 3.66141 35.2235C4.16606 34.2087 4.80849 33.2882 5.58868 32.4621C5.71643 32.3275 5.81201 32.1978 5.87539 32.073C5.95243 31.9296 6.02265 31.7955 6.08603 31.6706C6.16551 31.5434 6.25548 31.4309 6.35593 31.3334C6.45394 31.2198 6.58901 31.1335 6.76115 31.0744C7.09272 30.5468 7.51085 30.0472 8.01554 29.5756C8.52023 29.104 9.05149 28.6449 9.60934 28.1981C10.1672 27.7514 10.7238 27.2967 11.2792 26.8339C11.8507 26.3686 12.353 25.8809 12.786 25.3708C12.98 25.4566 13.1229 25.4761 13.2146 25.4293C13.3199 25.364 13.4314 25.3388 13.5489 25.354C13.7401 25.6378 13.958 25.827 14.2029 25.9215C14.4613 25.9976 14.721 26.0817 14.9819 26.1739C15.2564 26.2475 15.5117 26.3569 15.7478 26.5022C15.9974 26.629 16.2006 26.8287 16.3571 27.1013C16.2445 27.1184 16.1942 27.1671 16.2064 27.2476C16.2347 27.3256 16.2723 27.4105 16.3191 27.5021C16.3659 27.5938 16.3954 27.6799 16.4076 27.7603C16.4198 27.8408 16.3535 27.892 16.2087 27.914C16.2257 28.0266 16.2906 28.0744 16.4032 28.0573C16.5159 28.0402 16.5807 28.088 16.5978 28.2007C16.6125 28.2972 16.6005 28.3813 16.562 28.453C16.5371 28.5062 16.5505 28.5947 16.6022 28.7186C16.255 29.0346 15.8584 29.3499 15.4122 29.6644C14.9797 29.9604 14.5174 30.2774 14.0254 30.6154C13.5494 30.9509 13.0611 31.313 12.5603 31.7017C12.0732 32.0719 11.5933 32.4903 11.1208 32.957C10.6483 33.4237 10.1739 33.9319 9.69747 34.4815C9.23716 35.0286 8.79782 35.6056 8.37945 36.2122C7.95865 36.8028 7.57368 37.4126 7.22456 38.0417C6.873 38.6547 6.58459 39.2499 6.35933 39.8273C6.40371 39.9028 6.45492 39.9692 6.51295 40.0262C6.58708 40.0808 6.64633 40.1459 6.69071 40.2215C7.3071 40.161 7.87837 40.0744 8.40454 39.9617C8.92826 39.833 9.46418 39.7847 10.0123 39.8168C10.0694 39.7588 10.0998 39.6883 10.1037 39.6054C10.1076 39.5225 10.1474 39.4589 10.2229 39.4145C11.3001 39.136 12.2952 38.8041 13.208 38.4188C14.1184 38.0174 15.0449 37.6136 15.9875 37.2073C15.6808 37.1386 15.4099 37.0891 15.1749 37.0589C15.0637 36.977 15.0515 36.8965 15.1383 36.8175C15.2387 36.72 15.315 36.6261 15.3672 36.5359C15.0878 36.4301 14.8413 36.2699 14.6277 36.0553C14.4302 35.8383 14.286 35.5392 14.1953 35.1578C14.2933 35.0442 14.3326 34.923 14.3131 34.7943C14.2936 34.6656 14.2214 34.5695 14.0965 34.5061C14.0112 34.4861 13.9629 34.4934 13.9517 34.5281C13.9405 34.5627 13.9293 34.5973 13.9181 34.6319C13.9229 34.6641 13.9117 34.6987 13.8844 34.7358C13.8732 34.7704 13.833 34.7765 13.7637 34.7541C13.753 34.5746 13.7713 34.4237 13.8186 34.3013C13.8659 34.1789 13.8934 34.0348 13.9012 33.869L15.7035 32.2377C15.937 32.3669 16.2201 32.4969 16.5527 32.6275C16.8853 32.7582 17.234 32.8864 17.5987 33.0122C17.9635 33.138 18.3375 33.2706 18.7208 33.4101C19.1017 33.5334 19.4584 33.6605 19.791 33.7911C20.1002 33.876 20.374 33.9991 20.6125 34.1605C20.8485 34.3058 21.0789 34.4684 21.3037 34.6483C21.5261 34.8122 21.7485 34.976 21.9709 35.1398C22.1932 35.3037 22.451 35.4292 22.7441 35.5165C22.7509 35.7789 22.7987 35.9856 22.8875 36.1368C22.9762 36.288 23.0216 36.4786 23.0235 36.7088C22.8007 37.3023 22.5013 37.825 22.1254 38.2771C21.747 38.7131 21.305 39.1093 20.7993 39.4658C20.3097 39.8199 19.7738 40.1398 19.1916 40.4256C18.6069 40.6953 18.0061 40.9675 17.3893 41.242C16.77 41.5005 16.1451 41.7763 15.5146 42.0694C14.8977 42.344 14.2938 42.6496 13.7028 42.9861C13.4292 43.0275 13.1971 43.071 13.0064 43.1163C12.8157 43.1617 12.6343 43.2139 12.4622 43.2729C12.2901 43.3319 12.1179 43.3909 11.9458 43.4499C11.7736 43.5089 11.5842 43.5623 11.3774 43.6101C11.2945 43.6063 11.2407 43.6309 11.2158 43.684C11.207 43.7348 11.1809 43.7799 11.1375 43.8194C10.823 43.9164 10.537 43.9845 10.2795 44.0235C10.0221 44.0625 9.80481 44.0954 9.62779 44.1223C9.4025 44.1564 9.17404 44.224 8.94241 44.3249C8.71079 44.4259 8.48915 44.4842 8.27752 44.4998C6.81946 44.6549 5.6069 44.312 4.63985 43.4708C3.6728 42.6297 3.02098 41.3704 2.68441 39.6929C2.68831 39.61 2.6649 39.5641 2.61418 39.5554C2.56103 39.5305 2.51592 39.5044 2.47886 39.4771ZM26.3555 39.1422C26.2761 39.8127 26.1896 40.3279 26.0959 40.6878C26.016 41.0292 25.8661 41.3976 25.6462 41.7931C25.4321 41.7926 25.2909 41.8387 25.2226 41.9314C25.1544 42.024 25.0768 42.1099 24.99 42.1889C24.8501 42.243 24.7455 42.2589 24.6762 42.2364C24.607 42.214 24.5446 42.1823 24.489 42.1413C24.4358 42.1165 24.3654 42.086 24.2776 42.0499C24.2083 42.0275 24.1013 42.0273 23.9565 42.0492C23.9048 41.9254 23.8462 41.8108 23.7809 41.7054C23.7316 41.5977 23.6209 41.5733 23.4488 41.6323C23.4615 41.4987 23.4537 41.3929 23.4254 41.3148C23.3947 41.2207 23.3583 41.1439 23.3164 41.0844C23.2881 41.0064 23.261 40.9364 23.2352 40.8745C23.2069 40.7965 23.2003 40.6987 23.2154 40.5812C23.1349 40.5934 23.062 40.5468 22.9967 40.4415C22.9313 40.3362 22.8579 40.2321 22.7765 40.1292C22.7809 39.8322 22.7877 39.5513 22.7969 39.2865C22.8062 39.0217 22.8259 38.7718 22.8561 38.5367C22.9025 38.2993 22.9327 38.0642 22.9468 37.8316C22.9609 37.599 22.9014 37.3693 22.7683 37.1426C22.84 37.1811 22.887 37.1657 22.9095 37.0965C22.9294 37.0111 22.9389 36.9109 22.938 36.7958C22.9345 36.6647 22.9243 36.5428 22.9072 36.4301C22.8877 36.3014 22.8638 36.198 22.8355 36.12C22.933 35.6772 22.9971 35.2312 23.0278 34.7821C23.0722 34.3144 23.1016 33.8573 23.1163 33.4106C23.147 32.9615 23.1789 32.5204 23.212 32.0873C23.2451 31.6543 23.3153 31.2486 23.4226 30.8702C23.5947 30.8111 23.7915 30.806 24.0129 30.8548C24.2479 30.885 24.3981 30.9528 24.4635 31.0581C24.8331 30.6728 25.1447 30.2305 25.3982 29.7311C25.6493 29.2157 25.9109 28.7151 26.183 28.2294C26.4551 27.7437 26.7667 27.3014 27.1178 26.9025C27.4849 26.5011 27.9775 26.2207 28.5953 26.0612C28.9537 26.2538 29.3456 26.4495 29.7708 26.6485C30.2097 26.8289 30.5884 27.1007 30.9068 27.464C31.0453 27.5089 31.1609 27.5654 31.2535 27.6337C31.3599 27.6834 31.4835 27.7388 31.6244 27.7997L31.6683 28.0894C31.8883 28.2371 32.0728 28.4231 32.2221 28.6475C32.385 28.8532 32.5354 29.0856 32.6734 29.3445C32.809 29.5874 32.9458 29.8382 33.0838 30.0972C33.2194 30.34 33.3699 30.5724 33.5352 30.7942C33.5152 30.8796 33.5101 30.9544 33.5198 31.0188C33.5272 31.0671 33.5437 31.1222 33.5696 31.1841C33.6115 31.2436 33.6454 31.3043 33.6713 31.3663C33.6971 31.4282 33.7105 31.5167 33.7115 31.6318C33.7706 32.3471 33.6238 32.9538 33.2713 33.4517C32.9348 33.9472 32.4989 34.3836 31.9635 34.7611C31.4256 35.1225 30.8414 35.4497 30.2109 35.7428C29.5804 36.036 29.0167 36.3354 28.5198 36.6412C28.5296 36.7056 28.5586 36.7341 28.6069 36.7268C28.6712 36.717 28.7015 36.7536 28.6976 36.8365C29.1204 37.0193 29.4554 37.1661 29.7026 37.2768C29.9499 37.3874 30.1774 37.4764 30.3851 37.5437C30.609 37.6086 30.8396 37.6641 31.0771 37.7105C31.3282 37.7382 31.6703 37.7687 32.1034 37.8018C32.5364 37.835 32.8704 37.8666 33.1055 37.8969C33.3542 37.9086 33.5787 37.9239 33.7792 37.9429C33.9772 37.9458 34.1751 37.9487 34.3731 37.9517C34.5848 37.936 34.8781 37.9163 35.2531 37.8924C35.4199 38.0152 35.5674 38.174 35.6957 38.3685C35.8376 38.5445 35.9405 38.7347 36.0044 38.939C36.0658 39.1273 36.1031 39.3192 36.1163 39.5147C36.127 39.6942 36.0927 39.8475 36.0132 39.9748C36.0366 40.0206 36.0725 40.0399 36.1207 40.0326C36.1827 40.0067 36.247 39.997 36.3138 40.0033C36.227 40.0823 36.1588 40.175 36.109 40.2813C36.0593 40.3876 36.0096 40.4939 35.9598 40.6002C35.9101 40.7065 35.8499 40.798 35.7792 40.8745C35.7109 40.9672 35.6056 41.0325 35.4632 41.0706C34.9936 41.3393 34.3672 41.4425 33.5841 41.3801C32.8033 41.3338 31.7995 41.1732 30.5726 40.8982C29.9591 40.7608 29.4551 40.6396 29.0606 40.5348C28.6797 40.4114 28.3403 40.29 28.0424 40.1706C27.7581 40.0326 27.4886 39.8841 27.2341 39.7251C26.9956 39.5637 26.7028 39.3694 26.3555 39.1422ZM28.5524 30.3396C28.4144 30.6239 28.2486 30.8877 28.055 31.131C27.8775 31.3719 27.7013 31.6209 27.5262 31.8779C27.3648 32.1164 27.2244 32.3846 27.1049 32.6825C26.983 32.9644 26.9167 33.2872 26.906 33.651C27.4595 33.5013 28.0237 33.2594 28.5986 32.9253C29.1711 32.5751 29.7138 32.2459 30.2268 31.9377C30.0868 31.4486 29.8488 31.0731 29.5128 30.8113C29.1929 30.547 28.8728 30.3898 28.5524 30.3396ZM47.6318 24.5833C47.6649 24.6935 47.6783 24.782 47.672 24.8488C47.6793 24.8971 47.6786 24.9466 47.6698 24.9973C47.6771 25.0455 47.6857 25.1019 47.6954 25.1662C47.7027 25.2145 47.731 25.2925 47.7803 25.4003C47.5253 25.9987 47.1883 26.4366 46.7695 26.7141C46.3643 26.973 45.9115 27.1898 45.4112 27.3644C44.9084 27.523 44.3908 27.692 43.8583 27.8714C43.3419 28.0485 42.8425 28.3382 42.3603 28.7405C42.1389 28.6918 41.9458 28.721 41.781 28.8283C41.6322 28.9332 41.3945 28.9939 41.0678 29.0105C40.9859 29.1217 40.8761 29.2124 40.7386 29.2826C40.5987 29.3368 40.46 29.3989 40.3224 29.4692C40.4088 29.6042 40.4561 29.7535 40.4644 29.9168C40.4863 30.0617 40.5288 30.1787 40.5917 30.2679C41.1622 30.2308 41.7805 30.1289 42.4467 29.9621C43.1289 29.7928 43.7986 29.6501 44.456 29.534C44.4843 29.6121 44.4848 29.6696 44.4575 29.7067C44.4277 29.7276 44.4258 29.7691 44.4516 29.831C44.5765 29.8944 44.705 29.9819 44.8371 30.0936C44.9668 30.1892 45.0966 30.2847 45.2263 30.3803C45.356 30.4759 45.4833 30.5554 45.6081 30.6187C45.7466 30.6636 45.8951 30.6658 46.0536 30.6253C46.1375 30.7443 46.1996 30.883 46.2401 31.0415C46.2943 31.1815 46.3013 31.3368 46.2614 31.5074C46.0307 31.7235 45.8013 31.9476 45.5731 32.1797C45.3424 32.3957 45.0933 32.5981 44.8256 32.7869C44.5739 32.9732 44.2945 33.139 43.9873 33.2843C43.6938 33.4111 43.3527 33.4958 42.964 33.5382C42.8836 33.5504 42.8192 33.5602 42.7709 33.5675C42.7387 33.5723 42.6868 33.5555 42.6151 33.517C42.4986 33.617 42.3172 33.6692 42.0709 33.6736C41.8407 33.6755 41.6674 33.7265 41.5508 33.8265C41.3616 33.7728 41.1395 33.7736 40.8845 33.8287C40.6431 33.8653 40.4209 33.866 40.2181 33.8309C40.0118 34.2079 39.8334 34.6053 39.6827 35.0233C39.5321 35.4412 39.4092 35.8796 39.3141 36.3385C39.8735 36.336 40.3289 36.2999 40.6805 36.2301C41.0482 36.158 41.3905 36.0814 41.7075 36.0004C42.022 35.9033 42.3458 35.8131 42.6789 35.7297C43.0095 35.6302 43.4335 35.5495 43.9509 35.4875C44.2459 35.2617 44.607 35.0918 45.0342 34.9776C45.475 34.845 45.8707 34.6862 46.2213 34.5014C46.3574 34.5301 46.4834 34.6016 46.5995 34.7157C46.7131 34.8137 46.8187 34.9129 46.9162 35.0134C47.0274 35.0953 47.1374 35.1691 47.2461 35.235C47.3549 35.3008 47.4805 35.3147 47.6229 35.2766C47.697 35.3313 47.7494 35.4056 47.7801 35.4997C47.8245 35.5753 47.8608 35.6521 47.8891 35.7301C47.9174 35.8082 47.9525 35.8769 47.9945 35.9364C48.0501 35.9774 48.1249 35.9825 48.219 35.9518C48.0581 36.5194 47.8387 36.9724 47.5608 37.3109C47.2965 37.6308 46.9742 37.8936 46.5938 38.0995C46.2135 38.3053 45.78 38.4862 45.2933 38.6423C44.8227 38.7959 44.2983 38.9742 43.7199 39.1771C43.58 39.2312 43.4581 39.2415 43.3542 39.2078C43.2528 39.1903 43.1377 39.1912 43.009 39.2108C42.651 39.3473 42.2195 39.4868 41.7143 39.6292C41.2091 39.7717 40.6897 39.8751 40.1563 39.9395C39.6228 40.0039 39.1049 40.0083 38.6026 39.9527C38.1028 39.9132 37.6768 39.7638 37.3247 39.5044C37.1789 39.4113 37.0709 39.2959 37.0006 39.1584C36.9441 39.0024 36.8212 38.8975 36.632 38.8439C36.5842 38.6372 36.5166 38.4087 36.4293 38.1585C36.342 37.9084 36.2535 37.6502 36.1637 37.3839C36.0716 37.1016 35.9886 36.8261 35.915 36.5574C35.8574 36.2863 35.8357 36.0344 35.8498 35.8018C35.8615 35.5531 35.9252 35.3212 36.0407 35.1061C36.1724 34.8886 36.197 34.6709 36.1146 34.4529C36.1926 34.4246 36.2348 34.3771 36.2411 34.3103C36.245 34.2274 36.3045 34.1854 36.4196 34.1845C36.4722 33.8802 36.5354 33.5907 36.609 33.3162C36.6826 33.0416 36.7574 32.7751 36.8335 32.5167C36.9256 32.2558 37.0097 31.9961 37.0858 31.7376C37.1755 31.4607 37.2535 31.1608 37.3198 30.8379C37.0628 30.6629 36.8597 30.4632 36.7105 30.2389C36.5749 29.996 36.4647 29.7576 36.3798 29.5235C36.2925 29.2734 36.2132 29.022 36.142 28.7694C36.0684 28.5007 35.9706 28.2357 35.8487 27.9743C35.973 27.7085 36.1368 27.4861 36.3402 27.3072C36.5572 27.1097 36.7951 26.9419 37.0541 26.8039C37.313 26.6659 37.5985 26.5403 37.9106 26.4271C38.2227 26.314 38.5497 26.1903 38.8915 26.0562C39.5035 25.7494 40.0504 25.5019 40.5321 25.3137C41.03 25.123 41.5155 24.9588 41.9885 24.8213C42.4751 24.6652 42.9791 24.5148 43.5004 24.3699C44.0217 24.225 44.6105 24.037 45.2669 23.8058C45.4336 23.9287 45.5814 23.9804 45.7101 23.9609C45.7526 23.8063 45.8189 23.7551 45.9091 23.8073C46.013 23.8409 46.0459 23.7865 46.0078 23.6441C46.2102 23.8933 46.4467 24.0962 46.7174 24.2527C47.0017 24.3907 47.3065 24.5009 47.6318 24.5833ZM61.5742 34.2979C61.5191 34.5861 61.4169 34.8896 61.2677 35.2086C61.1322 35.509 60.9527 35.7913 60.7294 36.0557C60.5197 36.3014 60.273 36.5199 59.9892 36.7111C59.7054 36.9023 59.3957 37.0315 59.0602 37.0988C58.8437 37.0823 58.6904 37.0479 58.6001 36.9957C58.5285 36.9572 58.4487 36.9199 58.3609 36.8838C58.3078 36.8589 58.2559 36.8421 58.2051 36.8333C58.1681 36.806 58.1322 36.7868 58.0976 36.7756L57.7897 36.6988L57.8386 36.3703C57.8513 36.2367 57.8286 36.1414 57.7706 36.0843C57.7101 36.0112 57.5977 35.9212 57.4334 35.8145C57.3778 35.7735 57.3222 35.7325 57.2666 35.6916C57.211 35.6506 57.1635 35.6084 57.124 35.565L56.6441 35.1686L57.2702 34.9009C57.6554 34.7272 57.899 34.5422 58.0009 34.3456C58.1189 34.1467 58.1301 33.8404 58.0345 33.4269C57.7029 33.4113 57.4281 33.4447 57.2102 33.5272C57.0083 33.6071 56.7996 33.6964 56.584 33.7949C56.3066 33.9193 56.0198 34.0368 55.7238 34.1475C55.4415 34.2397 55.1233 34.3126 54.7693 34.3663C54.6405 34.3858 54.5198 34.4041 54.4072 34.4212C54.2921 34.4222 54.169 34.4244 54.0378 34.4278L53.7891 34.4161C53.7301 34.2439 53.6833 34.1523 53.6487 34.1411C53.6116 34.1138 53.5745 34.0864 53.5375 34.0591C53.4448 33.9909 53.3404 33.8997 53.2244 33.7856C53.122 33.653 53.079 33.4784 53.0956 33.2619C52.9932 33.1292 52.923 32.9917 52.8849 32.8493C52.8176 33.0571 52.7757 33.2692 52.7591 33.4857L52.6992 33.7417L52.4651 33.8266C52.4354 33.8476 52.4173 33.8915 52.411 33.9583C52.4022 34.009 52.4003 34.0504 52.4051 34.0826L52.3467 34.5113C52.3193 34.5483 52.292 34.5854 52.2647 34.6224C52.235 34.6434 52.2065 34.6724 52.1792 34.7095C52.1689 34.8592 52.1506 35.0101 52.1243 35.1623C52.098 35.3144 52.0705 35.4585 52.0417 35.5946C51.9929 35.816 51.9522 36.0362 51.9196 36.2551C51.9006 36.4555 51.9137 36.6511 51.9591 36.8417L51.9028 37.1219C51.837 37.2307 51.7607 37.3245 51.6739 37.4035C51.5846 37.4664 51.4954 37.5294 51.4062 37.5923C51.3788 37.6293 51.3354 37.6688 51.276 37.7108C51.2301 37.7342 51.1923 37.7564 51.1626 37.7773L51.1304 38.0538L50.8481 38.146C50.6759 38.205 50.5509 38.2487 50.4728 38.277C50.4109 38.3028 50.3317 38.3231 50.2351 38.3377L49.9901 38.3502C49.7911 38.2322 49.6372 38.1402 49.5285 38.0744C49.4173 37.9925 49.2912 37.9211 49.1503 37.8601C48.9762 37.689 48.8738 37.5563 48.8431 37.4622C48.8123 37.3681 48.7828 37.282 48.7545 37.204C48.7077 37.1123 48.6794 37.0343 48.6697 36.9699C48.6438 36.908 48.6124 36.8634 48.5753 36.8361L48.2176 36.594L48.4502 36.3365L48.4121 35.9225C48.6096 35.053 48.828 34.2133 49.0674 33.4033C49.3229 32.5908 49.584 31.7611 49.8507 30.914C49.9404 30.637 50.022 30.3613 50.0957 30.0867C50.1854 29.8097 50.2751 29.5327 50.3648 29.2557C50.3414 29.2099 50.3248 29.1548 50.315 29.0904C50.3053 29.0261 50.3104 28.9512 50.3304 28.8659C50.4659 28.5655 50.5742 28.3021 50.6551 28.0759C50.7336 27.8335 50.8121 27.5911 50.8906 27.3488C50.9779 27.0557 51.0664 26.7707 51.1561 26.4937C51.2619 26.2142 51.3987 25.9219 51.5664 25.6166L51.927 25.3891C51.9728 25.3657 52.0267 25.3411 52.0887 25.3152C52.1481 25.2733 52.2181 25.2462 52.2986 25.234L52.668 25.2274C53.0868 24.9499 53.4372 24.6005 53.719 24.1791C53.9984 23.7417 54.2749 23.2306 54.5484 22.6459L54.7386 22.2714L55.0817 22.417C55.1695 22.453 55.2894 22.4842 55.4416 22.5106C55.5913 22.5208 55.7502 22.5379 55.9185 22.5617C56.2179 22.5822 56.5024 22.6132 56.7721 22.6546C57.0418 22.696 57.2693 22.785 57.4546 22.9215C57.5902 23.1644 57.6758 23.3489 57.7114 23.4752C57.747 23.6015 57.7906 23.7266 57.8423 23.8505C57.9321 24.1167 58.0138 24.3842 58.0874 24.6529C58.1772 24.9191 58.2557 25.22 58.323 25.5555C58.4449 25.8169 58.5508 26.0807 58.6405 26.3469C58.7439 26.5947 58.8405 26.8517 58.9302 27.1179C59.0692 27.4919 59.207 27.8579 59.3436 28.2158C59.4777 28.5577 59.6335 28.8797 59.811 29.1821C59.9398 29.1626 60.0214 29.1584 60.0561 29.1696C60.1316 29.1252 60.2084 29.0889 60.2865 29.0606C60.3806 29.0299 60.4827 28.9979 60.593 28.9648L60.8548 28.9004L60.988 29.1271C61.0162 29.2052 61.1089 29.2734 61.2659 29.3319C61.4776 29.3163 61.6378 29.3414 61.7465 29.4073C61.8528 29.457 61.9523 29.516 62.045 29.5842C62.1191 29.6389 62.1908 29.6774 62.26 29.6998L62.644 29.7898L62.5058 30.1811C62.3888 30.4952 62.1981 30.8121 61.9339 31.1321C61.6832 31.4334 61.3863 31.7007 61.043 31.9338C61.0737 32.0279 61.0964 32.1232 61.111 32.2198C61.1393 32.2978 61.1769 32.3827 61.2237 32.4743C61.3134 32.7406 61.3963 33.0161 61.4724 33.3009C61.5485 33.5857 61.5936 33.8834 61.6078 34.194L61.5742 34.2979ZM53.9652 31.1793C54.4431 31.074 54.8727 30.9759 55.254 30.8852C55.649 30.7759 56.0806 30.6364 56.5487 30.4667C56.3629 30.001 56.1666 29.5205 55.9598 29.025C55.7506 28.5135 55.5345 28.0112 55.3116 27.5182L55.2034 27.7816C54.9328 28.1683 54.6763 28.594 54.434 29.0588C54.2077 29.5211 54.0181 29.9531 53.865 30.355C53.7904 30.5144 53.7158 30.6739 53.6411 30.8333C53.5665 30.9928 53.5 31.1511 53.4415 31.3081C53.5356 31.2774 53.6229 31.2559 53.7033 31.2437C53.7999 31.2291 53.8872 31.2076 53.9652 31.1793ZM74.2184 22.5783C73.8161 22.6392 73.3865 22.7373 72.9296 22.8724C72.4702 22.9914 72.0202 23.1172 71.5793 23.2499C71.2648 23.347 70.9571 23.4348 70.6562 23.5133C70.3714 23.5894 70.1096 23.6538 69.8706 23.7064C69.8117 24.0775 69.7466 24.4084 69.6754 24.6991C69.6042 24.9897 69.5238 25.2735 69.4341 25.5505C69.3468 25.8436 69.2688 26.1435 69.2 26.4502C69.1449 26.7384 69.0935 27.0508 69.0457 27.3872C68.9239 27.6691 68.8237 27.9312 68.7452 28.1736C68.6803 28.3974 68.6364 28.651 68.6135 28.9343C68.457 29.205 68.3512 29.4844 68.2961 29.7726C68.2386 30.0447 68.2003 30.281 68.1813 30.4814L68.1287 30.7857C68.0468 30.8969 68.0026 30.9859 67.9963 31.0527C67.9875 31.1034 67.9546 31.1578 67.8976 31.2158C67.9083 31.3953 67.8788 31.5808 67.8091 31.7725C67.7891 31.8578 67.7771 31.9419 67.7732 32.0248C67.7669 32.0917 67.7662 32.1412 67.7711 32.1733C67.7955 32.3343 67.7711 32.445 67.6979 32.5054C67.7262 32.5835 67.7396 32.672 67.7382 32.771C67.7343 32.8539 67.7304 32.9368 67.7265 33.0197C67.7075 33.2201 67.7146 33.3754 67.7477 33.4856C67.8058 33.5426 67.8545 33.5929 67.894 33.6363C67.9496 33.6772 67.9916 33.7367 68.0199 33.8147C68.1262 33.8645 68.2047 33.8937 68.2554 33.9025C68.3271 33.941 68.4322 33.9827 68.5707 34.0276L68.8245 34.236C68.9757 34.6905 68.9594 35.0716 68.7756 35.3793C68.5805 35.7217 68.1933 35.9367 67.614 36.0245L67.3244 36.0684C67.2317 36.0002 67.1737 35.9431 67.1503 35.8973C67.0142 35.8685 66.9035 35.8442 66.8182 35.8242C66.7328 35.8042 66.6506 35.7508 66.5716 35.664C66.3478 35.5991 66.1666 35.5443 66.0282 35.4994L65.7926 35.4117C65.7658 35.2347 65.7511 35.1381 65.7487 35.122C65.6141 34.9943 65.5012 34.8467 65.41 34.6795C65.3349 34.5098 65.2678 34.3389 65.2088 34.1667C65.1547 34.0268 65.0937 33.8961 65.0259 33.7747C64.9742 33.6508 64.9089 33.5455 64.8299 33.4587C64.6562 32.5302 64.6252 31.7283 64.7369 31.0529C64.8485 30.3775 64.9718 29.725 65.1069 29.0955C65.1868 28.7541 65.2668 28.4127 65.3467 28.0714C65.4242 27.7139 65.4845 27.3509 65.5273 26.9822L65.708 26.7079C65.7816 26.4333 65.8384 26.2107 65.8784 26.0401C65.932 25.8508 65.9857 25.6616 66.0393 25.4724C66.0705 25.3525 66.0949 25.2418 66.1124 25.1403C66.1436 25.0204 66.1692 24.9177 66.1892 24.8324C66.0927 24.847 66.0054 24.8685 65.9273 24.8968C65.8469 24.909 65.7676 24.9292 65.6896 24.9575C65.5955 24.9882 65.5094 25.0177 65.4314 25.046C65.351 25.0582 65.2705 25.0704 65.19 25.0826C65.0774 25.0997 64.9957 25.1038 64.945 25.095C64.7802 25.2023 64.5932 25.2718 64.384 25.3035L64.1426 25.3401C64.0943 25.3475 64.046 25.3548 63.9977 25.3621C63.9631 25.3509 63.9297 25.3477 63.8975 25.3526C63.7366 25.377 63.6115 25.4206 63.5223 25.4835C63.3292 25.5128 63.1441 25.5409 62.9671 25.5677L62.7257 25.6043C62.6935 25.6092 62.6545 25.6233 62.6087 25.6467C62.5604 25.654 62.5202 25.6601 62.488 25.665C62.3754 25.6821 62.2534 25.6923 62.1223 25.6957C61.9887 25.6831 61.8433 25.6475 61.6863 25.589C61.4542 25.3608 61.3047 25.2435 61.2379 25.2372L60.9767 24.9804C60.946 24.8863 60.9085 24.8015 60.8641 24.7259C60.8173 24.6342 60.7692 24.5345 60.72 24.4267C60.6312 24.2756 60.5412 24.1163 60.45 23.9491C60.3725 23.7633 60.3142 23.5417 60.2752 23.2842C60.2718 23.153 60.2893 23.0516 60.3278 22.9799C60.3663 22.9082 60.398 22.8458 60.4229 22.7926L60.4404 22.4196L60.7579 22.3962L61.4338 22.2937C61.9487 22.2157 62.4693 22.1203 62.9954 22.0076C63.5192 21.8788 64.059 21.7476 64.6149 21.614C64.9319 21.533 65.2488 21.4521 65.5658 21.3711C65.8989 21.2877 66.24 21.2031 66.5891 21.1172C66.6315 20.9626 66.6752 20.8161 66.72 20.6776L66.9431 20.5203C67.2303 20.4603 67.4376 20.4701 67.5649 20.5495C67.7058 20.6105 67.8226 20.6751 67.9152 20.7434C68.2644 20.6575 68.6136 20.5717 68.9627 20.4858C69.3255 20.3814 69.6871 20.269 70.0475 20.1485C70.5824 19.9852 71.1186 19.8298 71.6559 19.6825C72.2094 19.5328 72.7436 19.4189 73.2586 19.3408C73.4839 19.3067 73.7023 19.2818 73.914 19.2662C74.1256 19.2506 74.3224 19.2454 74.5043 19.2508L74.7713 19.3832C74.8342 19.4724 74.912 19.5511 75.0046 19.6194C75.1134 19.6852 75.2221 19.7511 75.3309 19.8169C75.5508 19.9646 75.7756 20.1446 76.0053 20.3567C76.235 20.5688 76.3611 20.9118 76.3835 21.3858C76.2841 21.5985 76.2046 21.7257 76.1451 21.7677L75.9718 22.0903L75.7267 22.1027C75.6302 22.1174 75.5441 22.1469 75.4685 22.1912C75.3905 22.2195 75.3137 22.2559 75.2381 22.3002C75.1786 22.3422 75.1191 22.3841 75.0596 22.4261C74.9977 22.4519 74.9277 22.479 74.8497 22.5073C74.7049 22.5292 74.5842 22.5475 74.4876 22.5622C74.4047 22.5583 74.315 22.5636 74.2184 22.5783ZM83.6982 33.315C83.4509 33.2043 83.2459 33.0461 83.083 32.8403C82.904 32.637 82.7548 32.4127 82.6353 32.1674C82.4997 31.9245 82.3871 31.67 82.2973 31.4037C82.189 31.1238 82.0832 30.86 81.9798 30.6123C81.9457 30.387 81.9695 30.2188 82.0515 30.1076C82.1309 29.9803 82.2197 29.8599 82.3177 29.7462C82.7015 29.6716 83.0426 29.587 83.341 29.4923C83.6394 29.3977 83.9298 29.3043 84.2122 29.2121C84.4945 29.12 84.7781 29.0358 85.0629 28.9597C85.3452 28.8676 85.6554 28.7959 85.9933 28.7446C86.1591 28.2092 86.3124 27.7003 86.4533 27.218C86.5918 26.7196 86.7258 26.2466 86.8555 25.7989C86.8911 25.382 86.9557 24.9936 87.0493 24.6337C87.1566 24.2553 87.2594 23.9022 87.3579 23.5745C87.454 23.2307 87.5351 22.8974 87.6014 22.5746C87.6653 22.2357 87.6865 21.8867 87.665 21.5278C87.7728 20.9353 87.8637 20.3948 87.9378 19.9062C88.0255 19.399 88.0596 18.8094 88.0401 18.1374C87.4432 18.3267 86.967 18.4976 86.6115 18.6503C86.2536 18.7869 86.0003 18.9076 85.8516 19.0124C85.5273 19.0451 85.26 19.0198 85.0499 18.9364C84.8558 18.8506 84.6902 18.7357 84.5532 18.5919C84.4161 18.448 84.2915 18.2776 84.1794 18.0806C84.0672 17.8836 83.9377 17.681 83.7909 17.4728C83.8333 17.3182 83.8177 17.1066 83.7441 16.8379C83.668 16.5531 83.5397 16.3585 83.3593 16.2542C83.4831 16.2025 83.5638 16.0832 83.6014 15.8965C83.6365 15.6936 83.6226 15.5476 83.5597 15.4583C83.821 15.3364 84.1034 15.2442 84.4067 15.1818C84.7076 15.1032 85.0016 15.034 85.2888 14.974C85.5897 14.8955 85.8745 14.8194 86.1432 14.7457C86.4094 14.656 86.6294 14.5321 86.8029 14.3741C87.6349 14.2151 88.499 14.0512 89.3953 13.8824C90.3076 13.7112 91.1464 13.5429 91.9115 13.3775C92.2158 13.4302 92.553 13.4285 92.9231 13.3724C93.3093 13.3138 93.6912 13.2806 94.0686 13.2728C94.4621 13.2626 94.8159 13.3159 95.13 13.433C95.4601 13.5475 95.712 13.7974 95.8856 14.1827C96.1319 14.1783 96.3187 14.2158 96.4459 14.2953C96.5893 14.3723 96.6881 14.4808 96.7422 14.6208C96.7939 14.7446 96.8251 14.8963 96.8359 15.0757C96.8602 15.2367 96.8846 15.3976 96.909 15.5585C96.6808 15.7906 96.3753 16.0016 95.9925 16.1913C95.6234 16.3625 95.2116 16.5237 94.7571 16.6749C94.3002 16.81 93.8167 16.9326 93.3066 17.0429C92.8102 17.1346 92.3218 17.2251 91.8415 17.3143C91.8415 17.8576 91.7918 18.5071 91.6924 19.263C91.6066 20.0003 91.5115 20.7308 91.4072 21.4545C91.3005 22.1621 91.2081 22.8016 91.1301 23.3731C91.0658 23.9261 91.0538 24.2819 91.0943 24.4404C90.9895 24.8349 90.9003 25.1694 90.8267 25.444C90.7691 25.7161 90.7092 25.9721 90.6468 26.212C90.6005 26.4495 90.5461 26.6882 90.4837 26.9281C90.4349 27.1495 90.3669 27.4068 90.2797 27.6998L91.9211 27.4511C91.9801 27.6232 92.0708 27.7329 92.1932 27.7802C92.3156 27.8275 92.4448 27.8655 92.5809 27.8943C92.7169 27.9231 92.8393 27.9703 92.9481 28.0362C93.0705 28.0835 93.1439 28.1876 93.1683 28.3485C93.4862 28.3826 93.6976 28.474 93.8025 28.6228C93.9073 28.7715 93.9502 28.9461 93.9312 29.1465C93.9259 29.3284 93.8735 29.5256 93.774 29.7383C93.6906 29.9484 93.6036 30.1345 93.5129 30.2964C93.3632 30.2862 93.2325 30.3471 93.1208 30.4793C93.0067 30.5953 92.9031 30.7263 92.81 30.8721C92.3336 30.8785 91.8737 30.9399 91.4304 31.0565C90.9872 31.1731 90.5749 31.2767 90.1935 31.3675C90.1155 31.3957 90.0907 31.4489 90.1189 31.5269C90.1448 31.5888 90.136 31.6396 90.0926 31.6791C89.5694 31.5938 89.0447 31.6074 88.5185 31.7201C88.0084 31.8304 87.4896 31.9913 86.962 32.203C86.448 32.3961 85.9191 32.5997 85.3754 32.8138C84.8341 33.044 84.2751 33.2111 83.6982 33.315ZM100.271 26.0125C100.132 26.0666 100.04 26.171 99.9979 26.3256C99.9531 26.4641 99.9094 26.6106 99.867 26.7652C99.8407 26.9174 99.8051 27.0627 99.7602 27.2012C99.729 27.3211 99.6571 27.3897 99.5445 27.4067C99.5479 27.5379 99.5167 27.6579 99.4508 27.7666C99.4011 27.8729 99.3526 27.9873 99.3053 28.1097C99.2556 28.216 99.2244 28.336 99.2117 28.4696C99.1966 28.5871 99.2334 28.7215 99.3222 28.8726C99.2081 28.9887 99.1483 29.1377 99.143 29.3196C99.1376 29.5015 99.123 29.6765 99.0991 29.8448C99.0913 30.0106 99.0477 30.1571 98.9682 30.2844C98.8887 30.4117 98.719 30.4868 98.4591 30.5097C98.4206 30.5814 98.4187 30.6228 98.4533 30.6341C98.4879 30.6453 98.5206 30.6979 98.5513 30.792C98.3694 30.7867 98.2339 30.8155 98.1446 30.8784C98.0739 30.9549 97.9754 31.011 97.8491 31.0466C97.5287 30.9964 97.2456 30.8665 96.9998 30.6568C96.7702 30.4447 96.5529 30.206 96.3481 29.9407C96.1569 29.6569 95.9738 29.3719 95.7987 29.0857C95.6397 28.797 95.4868 28.5486 95.34 28.3403C95.3615 28.156 95.3439 27.9858 95.2873 27.8298C95.2283 27.6576 95.15 27.5213 95.0525 27.4209C95.5873 25.6278 96.1775 23.711 96.8231 21.6707C97.4686 19.6303 98.0695 17.6214 98.6258 15.644C99.0179 15.7327 99.4056 15.8468 99.7889 15.9863C100.186 16.1072 100.547 16.2664 100.874 16.4638C101.216 16.6589 101.516 16.9015 101.774 17.1916C102.03 17.4657 102.219 17.7909 102.342 18.1674C102.324 18.2688 102.29 18.3151 102.239 18.3063C102.202 18.279 102.171 18.292 102.147 18.3451C102.223 18.4158 102.264 18.4673 102.269 18.4995C102.29 18.5292 102.295 18.5614 102.283 18.596C102.288 18.6282 102.296 18.6765 102.305 18.7408C102.313 18.7891 102.348 18.8579 102.411 18.9471C102.344 18.9408 102.297 18.9561 102.269 18.9932C102.258 19.0278 102.21 19.0351 102.125 19.0152C102.216 19.1824 102.254 19.3248 102.239 19.4423C102.24 19.5574 102.223 19.6669 102.19 19.7708C102.154 19.8585 102.128 19.9612 102.113 20.0787C102.095 20.1801 102.123 20.3077 102.196 20.4613C102.147 20.4686 102.11 20.4908 102.082 20.5278C102.069 20.5464 102.056 20.5729 102.045 20.6076C102.031 20.6261 102.011 20.6539 101.984 20.691C101.97 20.7095 101.938 20.7144 101.887 20.7056C101.989 21.0523 102.059 21.4039 102.096 21.7604C102.134 22.1168 102.173 22.4813 102.213 22.8539C102.266 23.2079 102.332 23.5849 102.409 23.9848C102.483 24.3685 102.601 24.7623 102.761 25.1661C103.289 24.7403 103.681 24.2363 103.939 23.654C104.212 23.0693 104.404 22.4312 104.513 21.7397C104.638 21.0458 104.7 20.3121 104.698 19.5387C104.696 18.7653 104.7 17.9746 104.709 17.1666C104.832 16.9998 104.917 16.8057 104.966 16.5843C105.015 16.3629 105.054 16.1347 105.085 15.8996C105.112 15.6485 105.141 15.4054 105.172 15.1704C105.199 14.9192 105.247 14.6898 105.314 14.482C105.561 14.4776 105.774 14.5276 105.954 14.632C106.148 14.7178 106.329 14.8221 106.496 14.945C106.66 15.0518 106.832 15.1573 107.013 15.2617C107.191 15.3499 107.403 15.3919 107.649 15.3875C107.884 15.6318 108.101 15.8705 108.301 16.1035C108.501 16.3366 108.647 16.5943 108.739 16.8767C108.678 17.0176 108.636 17.1722 108.612 17.3404C108.604 17.5062 108.588 17.6733 108.564 17.8415C108.541 18.0097 108.499 18.1724 108.441 18.3294C108.38 18.4703 108.284 18.6001 108.154 18.7186C108.169 19.1443 108.163 19.5403 108.137 19.9065C108.123 20.2542 108.102 20.6031 108.073 20.9532C108.06 21.3009 108.057 21.6635 108.065 22.0409C108.07 22.4023 108.114 22.799 108.196 23.231C108.123 23.6206 108.046 24.0356 107.965 24.476C107.884 24.9163 107.828 25.3116 107.799 25.6617C107.573 25.9099 107.41 26.1899 107.309 26.5015C107.208 26.8131 107.099 27.1259 106.982 27.44C106.927 27.5141 106.89 27.5363 106.869 27.5065C106.848 27.4768 106.788 27.4612 106.689 27.4597C106.715 27.5217 106.722 27.5699 106.711 27.6046C106.699 27.6392 106.68 27.675 106.653 27.7121C106.639 27.7306 106.628 27.7652 106.619 27.816C106.627 27.8642 106.652 27.9262 106.697 28.0018C106.486 28.1325 106.306 28.2997 106.156 28.5036C106.005 28.7074 105.837 28.8976 105.649 29.0741C105.478 29.2482 105.252 29.3814 104.969 29.4736C104.703 29.5633 104.332 29.5619 103.857 29.4692C103.124 29.0865 102.453 28.6203 101.843 28.0708C101.249 27.5188 100.725 26.8327 100.271 26.0125ZM108.681 18.1202C108.742 17.7652 108.875 17.4487 109.08 17.1707C109.301 16.8903 109.544 16.6477 109.809 16.4429C110.088 16.2195 110.38 16.0271 110.685 15.8657C110.99 15.7043 111.281 15.5614 111.558 15.437C112.16 15.0659 112.805 14.7047 113.493 14.3536C114.194 13.9839 114.908 13.6452 115.635 13.3374C116.378 13.0273 117.149 12.787 117.946 12.6168C118.741 12.4305 119.6 12.399 120.524 12.5223C120.597 12.6759 120.693 12.8178 120.811 12.948C120.93 13.0782 121.048 13.2084 121.167 13.3386C121.301 13.4663 121.42 13.5965 121.522 13.7292C121.622 13.8457 121.691 13.9752 121.729 14.1176C121.912 14.238 122.065 14.3794 122.189 14.5418C122.31 14.6881 122.359 14.9029 122.336 15.1862C122.194 15.3393 122.052 15.4844 121.908 15.6215C121.778 15.74 121.63 15.8529 121.465 15.9602C120.848 15.9056 120.237 15.9488 119.633 16.0897C119.029 16.2307 118.488 16.3539 118.01 16.4592C117.843 16.3363 117.655 16.2908 117.446 16.3225C117.253 16.3517 117.048 16.4156 116.833 16.5142C116.633 16.6102 116.426 16.7075 116.21 16.806C116.011 16.9021 115.812 16.9487 115.614 16.9458C115.473 17.0989 115.285 17.2179 115.051 17.3028C114.831 17.3691 114.586 17.4391 114.317 17.5128C114.314 17.5957 114.338 17.6495 114.391 17.6744C114.442 17.6832 114.457 17.7302 114.437 17.8156C114.551 17.9136 114.684 17.9758 114.836 18.0021C115.004 18.026 115.173 18.0498 115.341 18.0737C115.525 18.0952 115.688 18.1364 115.829 18.1973C115.967 18.2422 116.073 18.3414 116.145 18.495C116.387 18.4584 116.605 18.483 116.799 18.5689C116.993 18.6547 117.158 18.7695 117.295 18.9134C117.432 19.0572 117.54 19.222 117.617 19.4078C117.708 19.5751 117.765 19.7311 117.787 19.8759C117.855 19.9974 117.92 20.0451 117.982 20.0193C118.043 19.9934 118.121 20.0147 118.213 20.0829C118.293 20.2848 118.447 20.4838 118.674 20.6798C118.899 20.8597 119.087 21.0699 119.239 21.3103C119.332 21.7077 119.411 22.0661 119.476 22.3855C119.538 22.6888 119.53 23.0112 119.45 23.3525C119.299 23.9845 119.041 24.5668 118.677 25.0993C118.33 25.6294 117.91 26.121 117.419 26.574C116.942 27.0086 116.417 27.4009 115.845 27.7511C115.272 28.1012 114.71 28.4087 114.157 28.6736C114.09 28.6672 114.026 28.677 113.964 28.7028C113.902 28.7287 113.88 28.6909 113.897 28.5895C113.786 28.7216 113.652 28.816 113.496 28.8726C113.356 28.9267 113.196 28.9591 113.017 28.9699C112.84 28.9967 112.653 29.0167 112.458 29.0299C112.278 29.0406 112.111 29.0743 111.955 29.1308C111.825 29.0353 111.703 28.9385 111.59 28.8405C111.495 28.7561 111.411 28.6371 111.338 28.4835C111.258 28.4957 111.211 28.4616 111.199 28.3811C111.203 28.2982 111.173 28.2617 111.108 28.2714C111.181 28.0959 111.207 28.0013 111.189 27.9876C111.184 27.9554 111.156 27.9349 111.105 27.9262C111.071 27.9149 111.036 27.9037 111.002 27.8925C110.964 27.8652 110.95 27.8262 110.959 27.7755C111.004 27.637 111.006 27.4885 110.966 27.33C110.923 27.1554 110.88 26.9809 110.837 26.8063C110.794 26.6317 110.776 26.4615 110.784 26.2957C110.808 26.1275 110.909 25.9805 111.088 25.8546C111.645 25.8361 112.157 25.7419 112.625 25.5722C113.107 25.3839 113.551 25.1603 113.956 24.9014C114.361 24.6424 114.74 24.371 115.092 24.0872C115.46 23.8009 115.824 23.54 116.183 23.3044C116.209 23.1523 116.255 23.0218 116.321 22.9131C116.403 22.8019 116.486 22.6988 116.571 22.6037C116.655 22.5086 116.73 22.4066 116.796 22.2979C116.862 22.1892 116.9 22.0599 116.91 21.9102C116.909 21.7951 116.867 21.7356 116.784 21.7317C116.715 21.7093 116.673 21.6498 116.658 21.5533L116.382 21.5211C116.049 21.3904 115.681 21.298 115.278 21.2439C114.872 21.1737 114.522 21.087 114.226 20.9836C114.064 21.107 113.899 21.1567 113.73 21.1328C113.578 21.1065 113.378 21.0875 113.129 21.0758C112.577 21.1266 112.037 21.1507 111.51 21.1483C110.999 21.1435 110.494 21.0718 109.996 20.9334C109.952 20.8578 109.901 20.7915 109.842 20.7344C109.784 20.6774 109.693 20.6747 109.57 20.7264C109.454 20.6123 109.339 20.5062 109.225 20.4082C109.109 20.2941 109 20.1707 108.897 20.0381C108.9 19.8401 108.9 19.6755 108.897 19.5444C108.891 19.3971 108.822 19.2676 108.69 19.156C108.722 18.937 108.745 18.7607 108.758 18.6271C108.77 18.4935 108.745 18.3245 108.681 18.1202ZM126.268 24.8378C126.422 25.3083 126.447 25.6914 126.343 25.9869C126.256 26.28 126.093 26.5104 125.855 26.6782C125.636 26.8596 125.367 26.9827 125.047 27.0476C124.728 27.1125 124.42 27.1427 124.123 27.1384C123.928 26.9375 123.74 26.6778 123.56 26.3594C123.38 26.041 123.207 25.7133 123.041 25.3763C122.872 25.0233 122.712 24.677 122.562 24.3376C122.428 23.9958 122.308 23.693 122.202 23.4292C122.253 23.2239 122.269 22.9993 122.248 22.7555C122.241 22.4931 122.219 22.2332 122.18 21.9757C122.157 21.7158 122.126 21.4571 122.087 21.1997C122.061 20.9237 122.046 20.6625 122.042 20.4163C122.052 19.7233 122.115 19.0552 122.232 18.412C122.365 17.7664 122.445 17.1039 122.474 16.4246C122.484 16.2749 122.447 16.1405 122.364 16.0216C122.296 15.9001 122.269 15.7807 122.285 15.6631C122.291 15.5963 122.333 15.5488 122.411 15.5205C122.487 15.4761 122.526 15.4125 122.53 15.3296C122.552 15.1452 122.538 14.9992 122.489 14.8914C122.455 14.7812 122.467 14.6396 122.523 14.4664C122.584 14.3255 122.652 14.1258 122.728 13.8674C122.818 13.5904 122.826 13.3175 122.753 13.0488C122.883 12.9303 123.002 12.797 123.112 12.6487C123.221 12.5005 123.333 12.3683 123.447 12.2522C123.574 12.1176 123.713 11.9979 123.861 11.893C124.026 11.7858 124.229 11.7138 124.471 11.6772C124.624 11.8186 124.731 11.9835 124.793 12.1717C124.87 12.3575 124.94 12.5445 125.001 12.7327C125.079 12.9185 125.171 13.0938 125.278 13.2586C125.383 13.4074 125.539 13.5154 125.747 13.5826C125.767 13.7114 125.791 13.8723 125.82 14.0654C125.85 14.2585 125.887 14.4504 125.932 14.6411C125.975 14.8156 126.033 14.9797 126.106 15.1333C126.192 15.2684 126.303 15.3503 126.439 15.3791C126.267 16.1954 126.109 17.0013 125.966 17.7966C125.839 18.5896 125.754 19.3844 125.71 20.1812C125.664 20.962 125.675 21.7422 125.744 22.522C125.829 23.2993 126.004 24.0712 126.268 24.8378ZM145.78 19.1641C145.498 19.9146 145.073 20.5305 144.504 21.0119C143.932 21.4771 143.288 21.8958 142.571 22.2679C141.851 22.6239 141.087 22.9619 140.28 23.2819C139.488 23.5994 138.73 23.9695 138.004 24.3924C137.778 24.4265 137.578 24.4651 137.404 24.508C137.245 24.5485 137.088 24.597 136.932 24.6536C136.79 24.6916 136.648 24.7377 136.508 24.7918C136.366 24.8299 136.208 24.8704 136.033 24.9133C135.966 24.907 135.928 24.9291 135.92 24.9799C135.908 25.0145 135.889 25.0503 135.862 25.0874C135.596 25.1771 135.35 25.2391 135.125 25.2732C134.915 25.3049 134.738 25.3318 134.594 25.3537C134.4 25.383 134.203 25.4376 134.001 25.5176C133.818 25.6112 133.644 25.6622 133.481 25.6705C132.264 25.7891 131.25 25.5065 130.439 24.8229C129.641 24.1207 129.094 23.0677 128.799 21.6638C128.803 21.5809 128.78 21.535 128.729 21.5263C128.694 21.515 128.659 21.4958 128.622 21.4685C128.597 21.3076 128.593 21.1683 128.608 21.0508C128.639 20.9308 128.625 20.7848 128.566 20.6127C128.85 19.6642 129.201 18.7715 129.617 17.9347C130.031 17.0818 130.564 16.3095 131.217 15.618C131.315 15.5044 131.396 15.3932 131.462 15.2845C131.528 15.1757 131.586 15.0682 131.636 14.9619C131.701 14.8531 131.778 14.7592 131.865 14.6802C131.949 14.5851 132.061 14.5105 132.201 14.4564C132.48 14.019 132.829 13.6039 133.247 13.2114C133.665 12.8188 134.109 12.4386 134.58 12.0709C135.049 11.6871 135.511 11.3126 135.966 10.9473C136.434 10.5635 136.85 10.1548 137.212 9.72129C137.401 9.77492 137.534 9.77954 137.609 9.73516C137.685 9.69078 137.773 9.67737 137.875 9.69492C138.024 9.91923 138.202 10.065 138.41 10.1323C138.634 10.1972 138.851 10.2713 139.061 10.3546C139.285 10.4195 139.496 10.5109 139.695 10.6289C139.894 10.7469 140.06 10.9193 140.194 11.146C140.097 11.1607 140.055 11.2082 140.067 11.2887C140.093 11.3506 140.128 11.4194 140.172 11.4949C140.214 11.5544 140.233 11.6256 140.229 11.7085C140.239 11.7729 140.188 11.8136 140.075 11.8307C140.103 11.9087 140.159 11.9497 140.242 11.9536C140.338 11.9389 140.393 11.9718 140.405 12.0523C140.417 12.1328 140.403 12.2008 140.362 12.2564C140.337 12.3095 140.349 12.39 140.398 12.4978C140.108 12.7558 139.777 13.0118 139.404 13.2659C139.047 13.5175 138.668 13.7889 138.268 14.0801C137.881 14.3527 137.474 14.6531 137.046 14.9813C136.632 15.291 136.232 15.6397 135.847 16.0274C135.461 16.4151 135.073 16.8442 134.684 17.3148C134.292 17.7693 133.919 18.2456 133.567 18.7435C133.214 19.2414 132.888 19.7517 132.589 20.2745C132.287 20.7812 132.042 21.2793 131.853 21.7689C131.897 21.8445 131.939 21.904 131.978 21.9474C132.031 21.9723 132.08 22.0225 132.125 22.0981C132.644 22.0522 133.119 21.9803 133.549 21.8822C133.992 21.7656 134.446 21.7215 134.912 21.7497C134.955 21.7102 134.98 21.6571 134.986 21.5903C134.992 21.5235 135.025 21.4691 135.085 21.4271C135.987 21.1916 136.818 20.9175 137.578 20.6048C138.334 20.2761 139.106 19.9369 139.893 19.5872C139.757 19.5585 139.63 19.5365 139.512 19.5214C139.408 19.4878 139.306 19.4622 139.204 19.4446C139.112 19.3764 139.102 19.312 139.175 19.2515C139.262 19.1725 139.333 19.096 139.387 19.0218C139.142 18.9272 138.933 18.7944 138.759 18.6232C138.601 18.4496 138.481 18.2043 138.4 17.8874C138.485 17.7923 138.518 17.6884 138.501 17.5758C138.484 17.4631 138.423 17.3819 138.316 17.3322C138.249 17.3259 138.209 17.332 138.196 17.3505C138.182 17.369 138.169 17.3956 138.158 17.4302C138.163 17.4624 138.16 17.4958 138.149 17.5304C138.135 17.549 138.094 17.547 138.024 17.5246C138.019 17.3773 138.032 17.2517 138.066 17.1479C138.116 17.0416 138.147 16.9216 138.16 16.788L139.657 15.4252C139.853 15.5271 140.093 15.639 140.375 15.7609C140.654 15.8667 140.943 15.9793 141.241 16.0988C141.552 16.1997 141.865 16.3087 142.179 16.4257C142.507 16.5242 142.81 16.6263 143.09 16.7321C143.33 16.7945 143.55 16.8928 143.752 17.0269C143.953 17.1609 144.148 17.3043 144.336 17.4569C144.521 17.5935 144.706 17.73 144.891 17.8665C145.093 18.0006 145.315 18.1069 145.557 18.1854C145.557 18.3995 145.59 18.5672 145.658 18.6887C145.726 18.8101 145.766 18.9686 145.78 19.1641ZM157.452 19.4443C157.548 19.8579 157.552 20.2112 157.465 20.5042C157.378 20.7973 157.236 21.0575 157.04 21.2847C156.844 21.512 156.61 21.7039 156.337 21.8604C156.064 22.017 155.799 22.1643 155.54 22.3023C155.399 22.2413 155.258 22.1804 155.117 22.1195C154.99 22.04 154.842 21.9883 154.674 21.9644C154.406 21.6099 154.154 21.3025 153.917 21.0421C153.677 20.7656 153.536 20.433 153.494 20.0444C153.491 20.0283 153.486 19.9385 153.478 19.7752C153.485 19.6094 153.491 19.4275 153.494 19.2295C153.513 19.0291 153.518 18.8472 153.51 18.6838C153.515 18.5019 153.517 18.4029 153.514 18.3868C153.149 18.4751 152.775 18.6141 152.392 18.8038C152.009 18.9936 151.638 19.2062 151.279 19.4418C150.936 19.6749 150.608 19.9055 150.297 20.1338C150.002 20.3596 149.76 20.5527 149.57 20.7131C149.577 20.7614 149.564 20.887 149.528 21.0899C149.491 21.2766 149.44 21.4819 149.375 21.7058C149.308 21.9135 149.23 22.1064 149.142 22.2844C149.053 22.4624 148.953 22.5599 148.84 22.577C148.864 22.6228 148.895 22.6674 148.935 22.7108C148.974 22.7542 148.984 22.8186 148.964 22.9039C148.748 23.0025 148.559 23.1134 148.397 23.2368C148.237 23.3763 148.065 23.4928 147.882 23.5865C147.701 23.6962 147.498 23.7681 147.273 23.8023C147.047 23.8364 146.77 23.7962 146.44 23.6816C146.425 23.5851 146.373 23.5107 146.282 23.4585C146.19 23.3903 146.091 23.3393 145.988 23.3057C145.897 23.2535 145.818 23.2162 145.748 23.1938C145.677 23.1553 145.638 23.1199 145.634 23.0877C145.555 23.116 145.515 23.0646 145.511 22.9334C145.508 22.8022 145.567 22.7603 145.69 22.8076C145.479 22.6091 145.337 22.4331 145.264 22.2795C145.205 22.1073 145.084 21.9035 144.9 21.668C144.927 21.6309 144.951 21.5697 144.971 21.4844C144.975 21.4015 144.98 21.3266 144.986 21.2598C144.992 21.193 145.009 21.1411 145.037 21.104C145.064 21.0669 145.105 21.0689 145.161 21.1099C145.107 20.9699 145.088 20.8492 145.106 20.7478C145.124 20.6463 145.142 20.553 145.162 20.4676C145.182 20.3823 145.194 20.2982 145.198 20.2153C145.202 20.1324 145.164 20.0475 145.085 19.9607C145.289 19.5677 145.401 19.1639 145.42 18.7494C145.437 18.3188 145.428 17.9333 145.393 17.5929C145.489 17.4632 145.561 17.2876 145.61 17.0663C145.675 16.8424 145.715 16.6222 145.732 16.4057C145.746 16.1731 145.73 15.9615 145.685 15.7708C145.653 15.5616 145.604 15.3963 145.536 15.2749C145.54 15.192 145.625 15.1544 145.79 15.1622C145.806 14.6165 145.781 14.0114 145.713 13.3467C145.659 12.6635 145.635 12.0169 145.641 11.4069C145.645 10.7807 145.725 10.2253 145.882 9.74055C146.037 9.23973 146.352 8.87909 146.829 8.65865C146.977 8.98195 147.143 9.26136 147.327 9.49689C147.527 9.72997 147.734 9.95379 147.947 10.1683C148.174 10.3644 148.395 10.5697 148.608 10.7842C148.838 10.9963 149.057 11.2431 149.264 11.5244C149.294 11.8326 149.316 12.1915 149.328 12.6011C149.341 13.0108 149.339 13.4309 149.322 13.8615C149.321 14.2896 149.309 14.7029 149.287 15.1013C149.282 15.4973 149.267 15.8369 149.244 16.1203C149.273 16.1983 149.32 16.2405 149.387 16.2468C149.47 16.2507 149.497 16.3207 149.468 16.4567C149.84 16.3016 150.229 16.1521 150.635 16.0083C151.041 15.8644 151.446 15.7125 151.85 15.5525C152.254 15.3925 152.64 15.2269 153.009 15.0558C153.392 14.866 153.739 14.6571 154.05 14.4288C154.035 13.789 154.045 13.1456 154.078 12.4985C154.112 11.8514 154.031 11.2052 153.834 10.5601C153.905 10.4835 153.957 10.3933 153.991 10.2894C154.024 10.1856 154.095 10.109 154.203 10.0597C154.076 9.76618 153.995 9.44921 153.96 9.10883C153.925 8.76846 153.932 8.43808 153.982 8.11769C154.049 7.79486 154.163 7.51421 154.324 7.27575C154.499 7.01875 154.726 6.83611 155.006 6.72783C155.222 6.95848 155.418 7.21692 155.593 7.50316C155.766 7.77331 155.94 8.0515 156.115 8.33774C156.303 8.60545 156.491 8.86511 156.677 9.11673C156.877 9.34981 157.112 9.54461 157.383 9.70113C157.502 10.1605 157.607 10.6384 157.699 11.1348C157.807 11.6288 157.908 12.132 158.002 12.6445C157.966 13.2756 157.911 13.8929 157.838 14.4966C157.779 15.0818 157.766 15.7011 157.799 16.3546C157.706 16.5004 157.639 16.6586 157.599 16.8293C157.559 17 157.521 17.1787 157.483 17.3655C157.443 17.5362 157.395 17.7081 157.339 17.8812C157.28 18.0382 157.203 18.1816 157.108 18.3113C157.201 18.4947 157.238 18.6785 157.216 18.8628C157.208 19.0286 157.287 19.2225 157.452 19.4443ZM171.81 7.78606C171.408 7.84704 170.978 7.94508 170.521 8.08018C170.062 8.19919 169.612 8.32503 169.171 8.4577C168.856 8.55476 168.548 8.64255 168.248 8.72108C167.963 8.79717 167.701 8.86155 167.462 8.91423C167.403 9.28534 167.338 9.61621 167.267 9.90685C167.196 10.1975 167.115 10.4813 167.025 10.7583C166.938 11.0514 166.86 11.3513 166.791 11.658C166.736 11.9462 166.685 12.2586 166.637 12.595C166.515 12.8769 166.415 13.139 166.337 13.3814C166.272 13.6052 166.228 13.8588 166.205 14.1421C166.048 14.4128 165.943 14.6922 165.887 14.9804C165.83 15.2525 165.792 15.4888 165.773 15.6892L165.72 15.9935C165.638 16.1047 165.594 16.1937 165.588 16.2605C165.579 16.3112 165.546 16.3656 165.489 16.4236C165.5 16.6031 165.47 16.7886 165.4 16.9803C165.38 17.0656 165.369 17.1497 165.365 17.2326C165.358 17.2995 165.358 17.3489 165.362 17.3811C165.387 17.5421 165.362 17.6528 165.289 17.7132C165.318 17.7912 165.331 17.8798 165.33 17.9787C165.326 18.0616 165.322 18.1445 165.318 18.2274C165.299 18.4279 165.306 18.5832 165.339 18.6934C165.397 18.7504 165.446 18.8007 165.485 18.8441C165.541 18.885 165.583 18.9445 165.611 19.0225C165.718 19.0723 165.796 19.1015 165.847 19.1103C165.918 19.1488 166.024 19.1905 166.162 19.2354L166.416 19.4438C166.567 19.8983 166.551 20.2794 166.367 20.5871C166.172 20.9295 165.785 21.1445 165.205 21.2323L164.916 21.2762C164.823 21.208 164.765 21.1509 164.742 21.1051C164.606 21.0763 164.495 21.052 164.41 21.032C164.324 21.012 164.242 20.9586 164.163 20.8718C163.939 20.8069 163.758 20.7521 163.62 20.7072L163.384 20.6195C163.357 20.4425 163.343 20.3459 163.34 20.3298C163.205 20.2021 163.093 20.0545 163.001 19.8873C162.926 19.7176 162.859 19.5467 162.8 19.3745C162.746 19.2346 162.685 19.1039 162.617 18.9825C162.566 18.8586 162.5 18.7533 162.421 18.6665C162.248 17.738 162.217 16.9361 162.328 16.2607C162.44 15.5853 162.563 14.9328 162.698 14.3033C162.778 13.9619 162.858 13.6205 162.938 13.2792C163.016 12.9217 163.076 12.5587 163.119 12.19L163.299 11.9157C163.373 11.6411 163.43 11.4185 163.47 11.2479C163.523 11.0586 163.577 10.8694 163.631 10.6802C163.662 10.5603 163.686 10.4496 163.704 10.3481C163.735 10.2282 163.761 10.1255 163.781 10.0402C163.684 10.0548 163.597 10.0763 163.519 10.1046C163.438 10.1168 163.359 10.137 163.281 10.1653C163.187 10.196 163.101 10.2255 163.023 10.2538C162.942 10.266 162.862 10.2782 162.781 10.2904C162.669 10.3075 162.587 10.3116 162.536 10.3028C162.372 10.4101 162.185 10.4796 161.975 10.5113L161.734 10.5479C161.686 10.5552 161.637 10.5626 161.589 10.5699C161.554 10.5587 161.521 10.5555 161.489 10.5604C161.328 10.5848 161.203 10.6284 161.114 10.6913C160.921 10.7206 160.736 10.7487 160.558 10.7755L160.317 10.8121C160.285 10.817 160.246 10.8311 160.2 10.8545C160.152 10.8618 160.112 10.8679 160.079 10.8728C159.967 10.8899 159.845 10.9001 159.714 10.9035C159.58 10.8909 159.435 10.8553 159.278 10.7968C159.046 10.5686 158.896 10.4513 158.829 10.445L158.568 10.1882C158.537 10.0941 158.5 10.0093 158.455 9.93368C158.409 9.842 158.361 9.74228 158.311 9.63452C158.223 9.48335 158.133 9.32414 158.041 9.15688C157.964 8.97109 157.906 8.74946 157.867 8.49198C157.863 8.36081 157.881 8.25937 157.919 8.18769C157.958 8.116 157.989 8.05358 158.014 8.00043L158.032 7.62737L158.349 7.60395L159.025 7.5015C159.54 7.42345 160.061 7.32809 160.587 7.21541C161.111 7.08664 161.65 6.95544 162.206 6.82179C162.523 6.74082 162.84 6.65985 163.157 6.57889C163.49 6.49548 163.831 6.41085 164.18 6.32501C164.223 6.17042 164.267 6.02388 164.311 5.88539L164.534 5.72811C164.822 5.66811 165.029 5.67785 165.156 5.75733C165.297 5.81828 165.414 5.88289 165.507 5.95115C165.856 5.86531 166.205 5.77946 166.554 5.69361C166.917 5.58924 167.278 5.47681 167.639 5.35634C168.174 5.19295 168.71 5.03761 169.247 4.89031C169.801 4.74057 170.335 4.62667 170.85 4.54862C171.075 4.51447 171.294 4.48959 171.505 4.47397C171.717 4.45835 171.914 4.45322 172.096 4.45858L172.363 4.59096C172.426 4.68019 172.503 4.75895 172.596 4.82721C172.705 4.89304 172.813 4.95886 172.922 5.02469C173.142 5.17243 173.367 5.35236 173.597 5.56448C173.826 5.77659 173.952 6.11964 173.975 6.59364C173.875 6.80626 173.796 6.93354 173.736 6.97548L173.563 7.29807L173.318 7.31052C173.222 7.32515 173.135 7.35466 173.06 7.39904C172.982 7.42733 172.905 7.46366 172.829 7.50804C172.77 7.54998 172.71 7.59192 172.651 7.63386C172.589 7.65971 172.519 7.68678 172.441 7.71507C172.296 7.73702 172.176 7.75532 172.079 7.76995C171.996 7.76605 171.906 7.77142 171.81 7.78606ZM175.832 2.06499C175.854 2.20982 175.857 2.3905 175.84 2.60701C175.839 2.82109 175.839 3.03517 175.839 3.24924C175.838 3.46332 175.859 3.65765 175.902 3.83222C175.943 3.99071 176.031 4.08433 176.167 4.11309C176.007 5.00989 175.914 5.75648 175.889 6.35287C175.88 6.94683 175.876 7.51543 175.876 8.05867C175.89 8.58338 175.884 9.14393 175.859 9.74032C175.835 10.3367 175.741 11.0753 175.578 11.956C175.479 12.4977 175.317 12.8928 175.091 13.141C174.863 13.3731 174.604 13.5111 174.314 13.555C174.024 13.5989 173.714 13.5636 173.384 13.449C173.054 13.3344 172.746 13.2001 172.459 13.046C172.364 12.7476 172.3 12.3787 172.266 11.9393C172.246 11.4814 172.232 11.0062 172.223 10.5137C172.214 10.0212 172.209 9.55278 172.208 9.10854C172.204 8.6482 172.195 8.26271 172.181 7.95208C172.315 7.75067 172.405 7.58877 172.453 7.46637C172.5 7.34397 172.522 7.21718 172.519 7.086C172.531 6.95238 172.531 6.7878 172.518 6.59226C172.505 6.39671 172.503 6.11704 172.514 5.75326C172.519 5.57137 172.48 5.42093 172.396 5.30195C172.326 5.16443 172.297 5.02887 172.31 4.89525C172.332 4.82601 172.373 4.77041 172.433 4.72847C172.508 4.68409 172.548 4.62045 172.552 4.53755C172.585 4.31859 172.576 4.15523 172.527 4.04747C172.475 3.92361 172.476 3.76707 172.53 3.57786C172.591 3.43693 172.657 3.22114 172.728 2.9305C172.813 2.62132 172.816 2.3163 172.738 2.01543C172.865 1.88083 172.983 1.73136 173.09 1.56701C173.196 1.40267 173.306 1.25442 173.417 1.12226C173.543 0.971571 173.68 0.843799 173.828 0.738947C173.993 0.631655 174.196 0.559715 174.438 0.523128C174.593 0.68063 174.715 0.834963 174.804 0.986129C174.893 1.13729 174.972 1.28163 175.043 1.41915C175.129 1.55422 175.23 1.67881 175.346 1.79291C175.462 1.90701 175.624 1.99771 175.832 2.06499ZM175.524 16.1619C175.576 16.2858 175.618 16.4028 175.651 16.513C175.684 16.6232 175.719 16.7415 175.754 16.8678C175.709 17.2204 175.651 17.542 175.58 17.8326C175.548 17.9526 175.527 18.0299 175.516 18.0645C175.505 18.0991 175.5 18.1245 175.503 18.1406C175.505 18.1567 175.517 18.1796 175.538 18.2093C175.557 18.223 175.574 18.2861 175.591 18.3988L175.515 18.7067C175.451 18.8316 175.368 18.9347 175.265 19.0161C175.178 19.0952 175.082 19.1673 174.977 19.2327C174.934 19.2722 174.881 19.3049 174.819 19.3307C174.776 19.3702 174.74 19.4085 174.713 19.4456L174.684 19.7462L174.354 19.8457C174.106 19.9491 173.878 20.0166 173.668 20.0483L173.403 20.0886C173.183 19.9408 173.009 19.8272 172.882 19.7478C172.755 19.6683 172.613 19.5993 172.456 19.5408C172.232 19.2618 172.087 19.0122 172.021 18.7918C171.957 18.5874 171.896 18.4568 171.838 18.3997L171.449 18.113L171.706 17.8518L171.347 17.4371C171.518 17.263 171.647 17.1365 171.734 17.0575C171.82 16.9785 171.891 16.9019 171.946 16.8278C172.014 16.7351 172.08 16.6264 172.143 16.5015C172.207 16.3767 172.307 16.1721 172.445 15.8878L172.615 15.5411L172.93 15.6661C173.018 15.7022 173.17 15.7285 173.387 15.7451C173.617 15.7431 173.815 15.7461 173.981 15.7539C174.25 15.7953 174.509 15.8219 174.758 15.8335C175.02 15.8267 175.234 15.8767 175.398 15.9835L175.524 16.1619Z" fill="white"/>
</svg>
