<svg width="11" height="20" viewBox="0 0 11 20" fill="none" xmlns="http://www.w3.org/2000/svg">
<path d="M3.19278 20C3.18929 19.9157 3.18278 19.8314 3.18276 19.7471C3.18223 16.8837 3.18232 14.0203 3.18232 11.1568C3.18232 11.0734 3.18232 10.99 3.18232 10.8821H0V7.3261H3.18232C3.18232 7.22629 3.18203 7.15046 3.18236 7.07463C3.18642 6.14407 3.1621 5.21238 3.20201 4.28325C3.25014 3.16297 3.59431 2.1355 4.41584 1.29883C5.04072 0.662424 5.82051 0.302023 6.70082 0.121075C7.41593 -0.025916 8.13961 -0.00881265 8.86218 0.0179247C9.4495 0.0396575 10.0358 0.0882498 10.6224 0.126162C10.6685 0.129139 10.7139 0.141786 10.7692 0.151656V3.32177C10.6991 3.32177 10.6279 3.32091 10.5568 3.3219C9.83376 3.33199 9.1096 3.32195 8.38793 3.358C7.53456 3.40062 7.052 3.85673 7.01669 4.68307C6.98005 5.54059 7.00402 6.40052 7.00218 7.2594C7.00215 7.27101 7.01124 7.28263 7.02531 7.31642H10.6493C10.4894 8.51203 10.3331 9.68156 10.1739 10.8719H7.01393C7.00699 10.9482 6.99753 11.0037 6.99752 11.0593C6.99681 13.9943 6.99685 16.9293 6.99735 19.8643C6.99736 19.9095 7.00401 19.9548 7.00757 20H3.19278Z" fill="white"/>
</svg>
