<svg width="25" height="20" viewBox="0 0 25 20" fill="none" xmlns="http://www.w3.org/2000/svg">
<path d="M24.9984 0C24.0235 0.578714 22.0674 1.36741 20.9174 1.5949C20.8837 1.60365 20.8562 1.6149 20.8237 1.62365C19.8075 0.621211 18.4151 0 16.8739 0C13.7679 0 11.2493 2.51859 11.2493 5.62465C11.2493 5.78839 11.2355 6.08962 11.2493 6.24961C7.05831 6.24961 3.86851 4.05475 1.58115 1.24992C1.33242 1.87488 1.22367 2.86232 1.22367 3.78976C1.22367 5.5409 2.59234 7.2608 4.72345 8.32698C4.33098 8.42822 3.89851 8.50072 3.44853 8.50072C2.72233 8.50072 1.95363 8.30948 1.24992 7.72952C1.24992 7.75077 1.24992 7.77076 1.24992 7.79326C1.24992 10.2406 3.84726 11.9068 6.15712 12.3705C5.6884 12.6467 4.74345 12.6742 4.28223 12.6742C3.95725 12.6742 2.80732 12.5255 2.49984 12.468C3.1423 14.4741 5.45966 15.6015 7.66827 15.6415C5.94088 16.9964 4.7422 17.4989 1.20492 17.4989H0C2.23486 18.9313 5.08093 20 7.93325 20C17.2202 20 22.4986 12.9217 22.4986 6.24961C22.4986 6.14212 22.4961 5.91713 22.4923 5.69089C22.4923 5.6684 22.4986 5.64715 22.4986 5.62465C22.4986 5.5909 22.4886 5.5584 22.4886 5.52465C22.4848 5.35466 22.4811 5.19593 22.4773 5.11343C23.4648 4.40098 24.321 3.51228 24.9984 2.49984C24.0922 2.90232 23.1198 3.1723 22.0986 3.29479C23.1411 2.66983 24.6222 1.17993 24.9984 0Z" fill="white"/>
</svg>
