<svg width="22" height="20" viewBox="0 0 22 20" fill="none" xmlns="http://www.w3.org/2000/svg">
<path d="M4.85257 20H0.129178V6.89507H4.85257V20ZM2.40756 4.49312C0.964148 4.49312 0 3.53084 0 2.24656C0 0.962277 0.962276 0 2.56669 0C4.01011 0 4.97426 0.962277 4.97426 2.24656C4.97426 3.53084 4.01198 4.49312 2.40756 4.49312ZM21.7018 20H17.13V12.8372C17.13 10.8565 15.9113 10.3997 15.4545 10.3997C14.9977 10.3997 13.4737 10.7049 13.4737 12.8372C13.4737 13.1424 13.4737 20 13.4737 20H8.75035V6.89507H13.4737V8.72414C14.0822 7.65703 15.3009 6.89507 17.5868 6.89507C19.8727 6.89507 21.7018 8.72414 21.7018 12.8372V20Z" fill="white"/>
</svg>
