<svg width="25" height="20" viewBox="0 0 25 20" fill="none" xmlns="http://www.w3.org/2000/svg">
<path d="M24.4775 2.7325C24.19 1.6575 23.3425 0.81 22.2675 0.5225C20.3175 2.6077e-07 12.5 0 12.5 0C12.5 0 4.6825 2.6077e-07 2.7325 0.5225C1.6575 0.81 0.81 1.6575 0.5225 2.7325C-3.72529e-08 4.6825 0 10 0 10C0 10 -3.72529e-08 15.3175 0.5225 17.2675C0.81 18.3425 1.6575 19.19 2.7325 19.4775C4.6825 20 12.5 20 12.5 20C12.5 20 20.3175 20 22.2675 19.4775C23.3437 19.19 24.19 18.3425 24.4775 17.2675C25 15.3175 25 10 25 10C25 10 25 4.6825 24.4775 2.7325ZM10 14.33V5.67L17.5 10L10 14.33Z" fill="white"/>
</svg>
