<svg width="210" height="85" viewBox="0 0 210 85" fill="none" xmlns="http://www.w3.org/2000/svg">
<path d="M104.301 51.3401C103.001 51.0401 101.601 50.8401 100.301 50.8401C96.5006 50.8401 94.2006 52.9401 94.2006 55.9401C94.2006 58.6401 96.1006 60.0401 98.4006 60.7401C98.7006 60.8401 99.0006 60.9401 99.3006 61.0401C100.301 61.3401 101.101 61.8401 101.101 62.6401C101.101 63.5401 100.201 64.1401 98.1006 64.1401C96.8006 64.1401 95.5006 63.9401 94.2006 63.5401V67.3401C95.7006 67.6401 97.2006 67.7401 98.7006 67.7401C101.901 67.7401 105.501 66.3401 105.501 62.2401C105.501 60.2401 104.301 58.4401 101.601 57.5401L100.501 57.1401C99.8006 56.9401 98.6006 56.5401 98.6006 55.5401C98.6006 54.7401 99.5006 54.2401 101.201 54.2401C102.301 54.2401 103.401 54.4401 104.401 54.7401L104.301 51.3401ZM139.201 59.2401C139.201 61.6401 137.301 63.5401 134.901 63.4401C132.501 63.4401 130.601 61.5401 130.701 59.1401C130.701 56.8401 132.601 54.9401 135.001 54.9401C137.301 54.9401 139.201 56.8401 139.301 59.1401C139.201 59.1401 139.201 59.2401 139.201 59.2401ZM135.001 50.7401C130.301 50.8401 126.601 54.7401 126.701 59.3401C126.801 64.0401 130.701 67.7401 135.301 67.6401C139.901 67.5401 143.601 63.7401 143.601 59.1401C143.601 54.5401 139.901 50.7401 135.301 50.6401C135.201 50.7401 135.101 50.7401 135.001 50.7401ZM88.7006 67.4401H84.6006V51.0401H88.7006" fill="white"/>
<path d="M78.9004 51.3401C77.7004 50.9401 76.4004 50.7401 75.1004 50.7401C70.5004 50.5401 66.6004 54.1401 66.4004 58.7401C66.4004 58.9401 66.4004 59.0401 66.4004 59.2401C66.4004 64.5401 70.5004 67.7401 75.1004 67.7401C76.4004 67.7401 77.6004 67.5401 78.9004 67.1401V62.7401C77.8004 63.3401 76.6004 63.6401 75.4004 63.6401C73.0004 63.7401 71.0004 61.8401 70.9004 59.4401C70.8004 57.0401 72.7004 55.0401 75.1004 54.9401C75.2004 54.9401 75.3004 54.9401 75.4004 54.9401C76.6004 54.9401 77.8004 55.2401 78.9004 55.8401" fill="white"/>
<path d="M122 51.3401C120.8 50.9401 119.5 50.7401 118.2 50.7401C113.6 50.5401 109.7 54.1401 109.5 58.7401C109.5 58.9401 109.5 59.0401 109.5 59.2401C109.5 64.5401 113.6 67.7401 118.2 67.7401C119.5 67.7401 120.7 67.5401 122 67.1401V62.7401C120.9 63.3401 119.7 63.6401 118.5 63.6401C116.1 63.7401 114.1 61.8401 114 59.4401C113.9 57.0401 115.8 55.0401 118.2 54.9401C118.3 54.9401 118.4 54.9401 118.5 54.9401C119.7 54.9401 120.9 55.2401 122 55.8401" fill="white"/>
<path d="M84.5004 20.1141C84.5004 19.0141 83.6004 18.1141 82.5004 18.1141C81.4004 18.1141 80.4004 19.0141 80.4004 20.1141V41.9141C80.4004 43.0141 81.3004 43.9141 82.5004 43.9141C83.6004 43.9141 84.5004 43.0141 84.5004 41.9141V20.1141ZM73.3004 27.8141C73.3004 26.7141 72.4004 25.7141 71.3004 25.7141C70.2004 25.7141 69.2004 26.6141 69.2004 27.8141V37.7141C69.2004 38.8141 70.1004 39.8141 71.3004 39.8141C72.4004 39.8141 73.3004 38.9141 73.3004 37.7141V27.8141ZM62.0004 33.5141C62.0004 32.4141 61.1004 31.5141 59.9004 31.5141C58.8004 31.5141 57.9004 32.4141 57.9004 33.5141V37.8141C57.9004 38.9141 58.8004 39.8141 60.0004 39.8141C61.1004 39.8141 62.0004 38.9141 62.0004 37.8141" fill="white"/>
<path d="M80.4004 20.1141C80.4004 19.0141 81.3004 18.0141 82.5004 18.0141C83.7004 18.0141 84.6004 18.9141 84.6004 20.1141V41.9141C84.6004 43.0141 83.7004 43.9141 82.5004 43.9141C81.3004 43.9141 80.4004 43.0141 80.4004 41.9141V20.1141ZM91.7004 27.8141C91.7004 26.7141 92.6004 25.8141 93.8004 25.8141C95.0004 25.8141 95.9004 26.7141 95.9004 27.8141V37.7141C95.9004 38.8141 95.0004 39.7141 93.8004 39.7141C92.6004 39.7141 91.7004 38.8141 91.7004 37.7141V27.8141ZM103 33.5141C103 32.4141 103.9 31.5141 105.1 31.5141C106.2 31.5141 107.1 32.4141 107.1 33.5141V37.8141C107.1 38.9141 106.2 39.8141 105 39.8141C103.9 39.8141 103 38.9141 103 37.8141" fill="white"/>
<path d="M125.459 20.1311C125.459 19.0311 126.359 18.0311 127.459 18.0311C128.559 18.0311 129.559 18.9311 129.559 20.1311V41.8311C129.559 42.9311 128.659 43.9311 127.459 43.9311C126.359 43.9311 125.459 43.0311 125.459 41.8311V20.1311ZM136.759 27.8311C136.759 26.7311 137.659 25.8311 138.759 25.8311C139.859 25.8311 140.759 26.7311 140.759 27.8311V37.7311C140.759 38.8311 139.859 39.8311 138.759 39.8311C137.659 39.8311 136.759 38.9311 136.759 37.7311V27.8311ZM147.959 33.5311C147.959 32.4311 148.859 31.5311 150.059 31.5311C151.159 31.5311 152.059 32.4311 152.059 33.5311V37.8311C152.059 38.9311 151.159 39.8311 149.959 39.8311C148.859 39.8311 147.959 38.9311 147.959 37.8311" fill="white"/>
<path d="M129.559 20.1311C129.559 19.0311 128.659 18.1311 127.559 18.1311C126.459 18.1311 125.459 19.0311 125.459 20.1311V41.8311C125.459 42.9311 126.359 43.9311 127.559 43.9311C128.759 43.9311 129.559 43.0311 129.559 41.8311V20.1311ZM118.259 27.8311C118.259 26.7311 117.359 25.7311 116.259 25.7311C115.159 25.8311 114.159 26.7311 114.159 27.8311V37.7311C114.159 38.8311 115.059 39.7311 116.259 39.7311C117.359 39.7311 118.259 38.8311 118.259 37.7311V27.8311ZM107.059 33.5311C107.059 32.4311 106.159 31.5311 104.959 31.5311C103.859 31.5311 102.959 32.4311 102.959 33.5311V37.8311C102.959 38.9311 103.859 39.8311 105.059 39.8311C106.159 39.8311 107.059 38.9311 107.059 37.8311" fill="white"/>
</svg>
