<svg width="210" height="85" viewBox="0 0 210 85" fill="none" xmlns="http://www.w3.org/2000/svg">
<path d="M40.5 24.5881C44.3 26.2881 48 28.0881 51.8 29.7881C51.8 31.4881 51.8 33.1881 51.8 34.8881C49.6 33.8881 47.4 32.8881 45.2 31.7881C45.2 35.2881 45.2 38.7881 45.2 42.3881C47.4 43.3881 49.6 44.3881 51.8 45.4881C51.8 47.1881 51.7 48.8881 51.8 50.5881C48 48.8881 44.3 47.0881 40.5 45.3881C40.5 38.4881 40.5 31.5881 40.5 24.5881Z" fill="white"/>
<path d="M63.0002 24.5881C63.1002 31.4881 63.1002 38.4881 63.1002 45.3881C59.3002 47.0881 55.6002 48.8881 51.9002 50.5881C51.8002 48.8881 51.8002 47.1881 51.9002 45.4881C54.1002 44.4881 56.3002 43.3881 58.6002 42.3881C58.6002 38.8881 58.6002 35.2881 58.6002 31.7881C56.4002 32.7881 54.2002 33.8881 51.9002 34.8881C51.9002 33.1881 51.9002 31.4881 51.9002 29.7881C55.5002 28.0881 59.3002 26.3881 63.0002 24.5881Z" fill="white"/>
<path d="M71.8096 24.5541C74.8096 26.7541 77.8096 29.0541 80.8096 31.3541C83.8096 29.0541 86.8096 26.8541 89.8096 24.5541C89.8096 31.5541 89.8096 38.4541 89.8096 45.4541C88.3096 45.4541 86.7096 45.4541 85.2096 45.4541C85.2096 41.4541 85.2096 37.5541 85.2096 33.5541C83.7096 34.6541 82.3096 35.7541 80.8096 36.8541C79.3096 35.7541 77.9096 34.6541 76.4096 33.5541C76.4096 37.5541 76.4096 41.4541 76.4096 45.4541C74.9096 45.4541 73.3096 45.4541 71.8096 45.4541C71.8096 38.4541 71.8096 31.5541 71.8096 24.5541Z" fill="white"/>
<path d="M113.307 24.7351C114.707 24.7351 116.207 24.7351 117.607 24.7351C120.507 31.6351 123.307 38.5351 126.207 45.5351C124.607 45.5351 123.007 45.5351 121.407 45.5351C120.907 44.3351 120.507 43.1351 120.007 42.0351C117.607 42.0351 115.207 42.0351 112.807 42.0351C112.307 43.2351 111.907 44.3351 111.407 45.5351C109.807 45.5351 108.207 45.5351 106.607 45.5351C109.207 39.5351 111.907 33.5351 114.507 27.5351C114.107 26.5351 113.707 25.6351 113.307 24.7351ZM116.407 32.9351C115.807 34.5351 115.107 36.1351 114.507 37.7351C115.807 37.7351 117.107 37.7351 118.407 37.7351C117.707 36.1351 117.007 34.5351 116.407 32.9351Z" fill="white"/>
<path d="M131.91 25.0541C133.71 24.5541 135.61 24.6541 137.31 25.3541C136.71 26.6541 136.11 27.9541 135.61 29.1541C134.81 28.8541 133.81 28.4541 133.01 29.0541C132.11 29.8541 132.51 31.1541 132.41 32.2541H135.11C135.11 33.5541 135.11 34.8541 135.11 36.1541C134.21 36.1541 133.31 36.1541 132.41 36.1541C132.41 39.2541 132.41 42.3541 132.41 45.4541C131.01 45.4541 129.61 45.4541 128.21 45.4541C128.21 42.3541 128.21 39.2541 128.21 36.1541C127.61 36.1541 127.01 36.1541 126.31 36.1541V32.2541C126.91 32.2541 127.51 32.2541 128.21 32.2541C128.11 30.8541 128.21 29.5541 128.61 28.1541C129.21 26.6541 130.41 25.5541 131.91 25.0541Z" fill="white"/>
<path d="M96.3104 30.4541C98.5104 29.5541 101.01 29.5541 103.21 30.5541C104.61 31.3541 105.91 32.4541 106.71 33.8541C105.51 34.5541 104.41 35.2541 103.21 35.9541C102.61 34.6541 101.21 33.7541 99.8104 33.6541C97.6104 33.6541 95.8104 35.4541 95.8104 37.6541C95.8104 39.8541 97.6104 41.6541 99.8104 41.6541C101.31 41.5541 102.61 40.7541 103.21 39.3541C104.41 40.0541 105.51 40.7541 106.71 41.4541C105.91 42.8541 104.71 43.9541 103.31 44.6541C100.31 46.0541 96.8104 45.6541 94.2104 43.4541C92.2104 41.6541 91.2104 39.0541 91.7104 36.3541C92.1104 33.7541 93.9104 31.4541 96.3104 30.4541Z" fill="white"/>
<path d="M138.006 32.8941C140.706 29.4941 145.606 28.8941 149.106 31.3941C151.606 33.0941 152.506 36.2941 152.306 39.1941C148.506 39.1941 144.606 39.1941 140.806 39.1941C141.506 41.0941 143.406 42.0941 145.306 41.7941C146.206 41.5941 147.006 41.1941 147.606 40.4941C148.706 41.0941 149.906 41.6941 151.006 42.3941C149.806 43.7941 148.306 44.6941 146.606 45.1941C143.406 46.0941 140.006 44.9941 137.906 42.2941C135.906 39.4941 135.906 35.6941 138.006 32.8941ZM140.906 35.6941C143.106 35.6941 145.306 35.6941 147.606 35.6941C147.006 34.3941 145.806 33.4941 144.406 33.4941C142.806 33.3941 141.506 34.2941 140.906 35.6941Z" fill="white"/>
<path d="M154.785 33.4951C156.985 30.1951 161.185 28.9951 164.785 30.5951C166.785 31.4951 168.285 33.1951 168.985 35.2951C169.385 36.5951 169.485 37.8951 169.385 39.1951C165.585 39.1951 161.685 39.1951 157.885 39.1951C158.485 40.9951 160.285 41.9951 162.185 41.7951C163.185 41.5951 164.085 41.1951 164.785 40.4951C165.885 41.0951 167.085 41.6951 168.185 42.3951C166.785 44.0951 164.785 45.1951 162.685 45.4951C159.985 45.8951 157.285 44.8951 155.385 42.7951C153.285 40.0951 152.985 36.3951 154.785 33.4951ZM158.085 35.6951C160.285 35.6951 162.485 35.6951 164.785 35.6951C164.185 34.2951 162.785 33.3951 161.285 33.4951C159.785 33.4951 158.585 34.3951 158.085 35.6951Z" fill="white"/>
<path d="M71.7725 50.5531C72.2725 50.5531 72.7725 50.5531 73.2725 50.5531C73.2725 51.5531 73.2725 52.5531 73.2725 53.5531C74.1725 52.5531 75.7725 52.4531 76.7725 53.4531C76.8725 53.5531 76.9725 53.6531 77.0725 53.7531C77.9725 55.1531 77.8725 56.9531 76.8725 58.2531C75.8725 59.2531 74.2725 59.2531 73.2725 58.2531L73.1725 58.1531C73.1725 58.3531 73.1725 58.6531 73.1725 58.8531H71.7725C71.7725 56.0531 71.7725 53.2531 71.7725 50.5531ZM74.0725 54.1531C72.7725 54.9531 72.9725 57.6531 74.7725 57.6531C76.0725 57.6531 76.4725 55.9531 76.0725 54.9531C75.8725 54.2531 75.0725 53.7531 74.2725 54.0531C74.2725 54.0531 74.1725 54.1531 74.0725 54.1531Z" fill="white"/>
<path d="M87.8096 50.4541H89.3096V58.7541C88.8096 58.7541 88.3096 58.7541 87.8096 58.7541V50.4541Z" fill="white"/>
<path d="M108.11 50.4541C108.61 50.4541 109.11 50.4541 109.61 50.4541C109.61 52.6541 109.61 54.7541 109.61 56.9541C109.61 57.3541 110.11 57.4541 110.41 57.5541C110.41 57.9541 110.41 58.3541 110.41 58.8541C109.81 58.7541 109.11 58.8541 108.61 58.4541C108.21 57.9541 108.01 57.3541 108.11 56.7541C108.11 54.7541 108.11 52.6541 108.11 50.4541Z" fill="white"/>
<path d="M98.11 51.2541H99.61C99.61 51.8541 99.61 52.3541 99.61 52.9541C100.01 52.9541 100.51 52.9541 100.91 52.9541C100.91 53.3541 100.91 53.7541 100.91 54.1541C100.51 54.1541 100.01 54.1541 99.61 54.1541C99.51 55.1541 99.61 56.0541 99.71 57.0541C99.91 57.5541 100.61 57.5541 101.01 57.6541C101.01 58.0541 101.01 58.5541 101.01 58.9541C100.01 58.9541 98.71 58.8541 98.21 57.7541C98.01 56.5541 97.91 55.4541 98.01 54.2541C97.81 54.2541 97.41 54.2541 97.21 54.2541C97.21 53.8541 97.21 53.4541 97.21 53.0541C97.51 53.0541 97.71 53.0541 98.01 53.0541C98.11 52.3541 98.11 51.7541 98.11 51.2541Z" fill="white"/>
<path d="M77.71 52.8541C78.31 52.8541 78.81 52.8541 79.41 52.8541C79.91 54.2541 80.41 55.6541 80.91 57.0541C81.31 55.6541 81.81 54.2541 82.31 52.8541C82.91 52.8541 83.41 52.8541 83.91 52.8541C83.01 55.1541 82.11 57.4541 81.21 59.7541C80.91 60.4541 80.31 61.0541 79.51 61.2541H78.71C78.41 61.1541 78.11 61.0541 77.81 60.9541C77.91 60.5541 78.11 60.2541 78.21 59.8541C78.61 59.8541 79.11 60.1541 79.51 59.8541C79.81 59.5541 80.01 59.1541 80.21 58.7541C79.41 56.7541 78.51 54.8541 77.71 52.8541Z" fill="white"/>
<path d="M90.9102 52.8541C91.4102 52.8541 91.9102 52.8541 92.4102 52.8541C92.4102 53.1541 92.4102 53.5541 92.3102 53.8541C93.0102 52.8541 94.3102 52.4541 95.5102 52.9541C96.2102 53.3541 96.6102 54.0541 96.5102 54.8541C96.5102 56.1541 96.5102 57.5541 96.5102 58.8541C96.0102 58.8541 95.5102 58.8541 95.0102 58.8541C95.0102 57.4541 95.1102 56.0541 94.9102 54.7541C94.5102 53.6541 92.8102 54.2541 92.5102 55.1541C92.3102 56.3541 92.2102 57.6541 92.3102 58.9541H90.9102C90.9102 56.8541 90.9102 54.8541 90.9102 52.8541Z" fill="white"/>
<path d="M102.584 53.3401C103.784 52.3401 105.584 52.5401 106.584 53.8401C106.984 54.5401 107.184 55.3401 107.084 56.2401C105.684 56.2401 104.284 56.2401 102.884 56.2401C103.084 56.7401 103.284 57.3401 103.884 57.6401C104.784 57.9401 105.784 57.8401 106.484 57.2401C106.684 57.6401 106.884 57.9401 107.084 58.3401C105.784 59.2401 104.084 59.3401 102.784 58.5401C101.384 57.4401 101.084 55.4401 102.184 53.9401C102.184 53.6401 102.384 53.4401 102.584 53.3401ZM102.984 55.0401C103.884 55.0401 104.784 55.0401 105.684 55.0401C105.484 54.5401 105.284 53.8401 104.584 53.8401C103.784 53.8401 103.084 54.3401 102.984 55.0401Z" fill="white"/>
</svg>
