<svg width="210" height="85" viewBox="0 0 210 85" fill="none" xmlns="http://www.w3.org/2000/svg">
<path d="M79.5004 41.5141C75.6004 41.5141 75.3004 38.6141 75.3004 37.7141C75.2004 35.9141 76.4004 34.4141 78.1004 33.8141C80.7004 32.9141 81.2004 32.8141 82.9004 32.2141V31.7141C82.9004 31.2141 82.9004 30.6141 82.7004 30.1141C82.3004 29.0141 81.2004 28.4141 80.1004 28.5141C78.9004 28.5141 77.8004 29.2141 77.2004 30.3141L76.5004 29.9141C76.9004 28.3141 78.6004 26.7141 81.4004 26.7141C83.4004 26.7141 84.7004 27.2141 85.5004 28.5141C86.0004 29.6141 86.3004 30.9141 86.2004 32.2141C86.2004 33.4141 86.1004 34.8141 86.1004 35.9141C86.1004 36.6141 86.0004 37.3141 86.0004 37.7141C86.0004 38.7141 86.2004 39.5141 87.0004 39.5141C87.4004 39.5141 87.4004 39.4141 87.7004 39.2141L88.2004 39.7141C87.6004 40.8141 86.4004 41.4141 85.2004 41.5141C84.2004 41.6141 83.3004 41.0141 83.1004 40.0141C82.2004 40.9141 80.9004 41.5141 79.5004 41.5141ZM82.9004 34.0141C81.8004 34.3141 80.8004 34.7141 79.8004 35.2141C79.0004 35.6141 78.5004 36.5141 78.6004 37.4141C78.5004 38.5141 79.3004 39.4141 80.3004 39.5141C80.4004 39.5141 80.6004 39.5141 80.7004 39.5141C81.5004 39.5141 82.3004 39.3141 83.0004 38.8141L82.9004 34.0141ZM51.0004 40.7141C51.0004 39.3141 51.0004 38.1141 50.9004 36.6141H51.7004C51.6004 37.3141 51.9004 38.1141 52.4004 38.6141C53.3004 39.4141 54.5004 39.8141 55.7004 39.7141C58.4004 39.7141 59.7004 38.7141 59.7004 36.5141C59.7004 34.6141 58.5004 33.8141 56.9004 32.8141L56.7004 32.6141L55.0004 31.4141C52.6004 29.8141 51.5004 28.6141 51.5004 26.1141C51.5004 24.9141 52.0004 20.8141 57.9004 20.8141C59.5004 20.8141 61.0004 20.9141 62.5004 21.2141V23.1141C62.5004 24.0141 62.5004 24.3141 62.6004 25.4141H61.9004C61.9004 24.7141 61.7004 23.9141 61.2004 23.4141C60.3004 22.8141 59.1004 22.5141 58.0004 22.5141C54.8004 22.5141 54.5004 24.2141 54.5004 25.3141C54.5004 27.0141 55.4004 27.6141 57.3004 28.8141L59.4004 30.2141C61.2004 31.4141 62.9004 32.6141 62.9004 35.6141C62.9004 40.7141 58.1004 41.3141 56.1004 41.3141C54.3004 41.4141 52.6004 41.2141 51.0004 40.7141ZM89.5004 27.6141C90.5004 27.7141 91.4004 27.6141 92.4004 27.4141C93.1004 27.3141 93.7004 27.1141 94.3004 26.8141L94.6004 27.0141V28.2141C95.8004 27.3141 97.3004 26.8141 98.8004 26.9141C101.4 26.9141 103 28.1141 103.5 30.3141C103.6 31.1141 103.7 32.0141 103.7 32.9141V37.1141C103.7 39.4141 103.8 40.1141 104.3 40.5141C104.7 40.8141 105.2 40.9141 105.7 40.9141V41.6141C104.8 41.5141 103.1 41.5141 102.2 41.5141C100.9 41.5141 99.4004 41.6141 98.7004 41.6141V40.9141C99.2004 40.9141 99.7004 40.7141 100.1 40.4141C100.5 40.0141 100.6 39.2141 100.6 37.4141C100.6 36.9141 100.7 35.7141 100.7 35.0141C100.7 33.9141 100.7 32.8141 100.6 31.8141C100.6 30.3141 99.5004 29.1141 98.0004 29.1141C97.9004 29.1141 97.7004 29.1141 97.6004 29.1141C96.7004 29.1141 95.7004 29.3141 94.9004 29.7141V37.2141C94.9004 39.5141 95.0004 40.2141 95.5004 40.6141C95.9004 40.9141 96.4004 41.0141 96.8004 41.0141V41.7141C95.6004 41.6141 94.2004 41.6141 93.3004 41.6141C91.4004 41.6141 90.8004 41.7141 89.7004 41.7141V41.0141C90.3004 41.0141 90.8004 40.8141 91.2004 40.4141C91.6004 39.9141 91.7004 38.7141 91.7004 36.3141V32.0141C91.7004 30.2141 91.6004 29.5141 91.4004 29.1141C91.2004 28.8141 90.7004 28.5141 89.7004 28.5141L89.5004 27.6141ZM107.1 40.7141C107.7 40.7141 108.2 40.5141 108.6 40.1141C109 39.6141 109.1 38.4141 109.1 36.0141V28.9141H107.3V28.1141C108 27.9141 108.6 27.5141 109.1 27.1141C109.1 25.8141 109.2 24.6141 109.3 23.3141C109.9 20.4141 111.8 18.9141 115 18.9141C116.3 18.9141 117.6 19.3141 118.6 20.1141L118.7 20.4141L117.3 22.4141H116.9C116.6 21.3141 115.5 20.5141 114.4 20.6141C113.9 20.6141 113.4 20.8141 113 21.1141C112.4 21.7141 112.3 22.6141 112.3 24.5141V27.1141H115.5V28.9141H112.3V36.8141C112.3 38.7141 112.4 39.6141 112.6 40.0141C113 40.6141 114.3 40.7141 114.9 40.6141V41.3141C113.9 41.2141 112.2 41.2141 111 41.2141C109.2 41.2141 108.1 41.3141 107.1 41.3141V40.7141ZM123.5 41.6141C119.2 41.6141 116.6 38.9141 116.6 34.4141C116.6 30.9141 118.5 26.8141 123.8 26.8141C128.1 26.8141 130.7 29.5141 130.7 34.0141C130.7 37.5141 128.8 41.6141 123.5 41.6141ZM123.7 28.4141C123 28.4141 122.2 28.6141 121.7 29.1141C120.5 30.1141 120 31.8141 120 34.3141C120 35.3141 120.2 40.0141 123.7 40.0141C124.4 40.1141 125.1 39.8141 125.7 39.4141C126.9 38.4141 127.4 36.7141 127.4 34.2141C127.4 33.1141 127.2 28.4141 123.7 28.4141ZM132.1 27.6141C133.1 27.6141 134.2 27.6141 135.2 27.4141C135.8 27.3141 136.4 27.2141 136.9 26.9141L137.1 27.0141V28.2141C138 27.4141 139.2 26.9141 140.4 26.9141C141.3 26.9141 142.2 27.2141 142.9 27.8141V28.1141L141.7 30.3141H141C140.5 29.4141 139.6 28.9141 138.6 29.0141C138 29.0141 137.5 29.1141 137 29.4141V36.7141C137 38.6141 137.1 39.5141 137.3 39.8141C137.7 40.4141 138.9 40.5141 139.6 40.4141V41.2141C138.6 41.1141 136.9 41.1141 135.7 41.1141C134.4 41.1141 133.1 41.1141 131.8 41.2141V40.5141C132.4 40.5141 132.9 40.3141 133.3 39.9141C133.7 39.4141 133.8 38.2141 133.8 35.8141V31.8141C133.8 30.0141 133.8 29.3141 133.5 28.9141C133.3 28.6141 132.8 28.4141 131.8 28.3141L132.1 27.6141ZM152.2 19.8141C153.3 19.7141 154.5 19.6141 155.6 19.4141C156.1 19.3141 156.6 19.2141 157.1 19.0141L157.3 19.1141C157.2 20.3141 157.2 22.9141 157.2 24.8141V36.4141C157.1 37.4141 157.2 38.5141 157.4 39.5141C157.8 39.9141 158.4 40.1141 159.1 40.0141V40.7141C158.1 40.7141 157.1 40.8141 156 41.0141C155.5 41.1141 154.9 41.2141 154.4 41.4141L154 41.3141V40.1141C152.9 41.0141 151.5 41.5141 150 41.4141C146.1 41.4141 143.6 38.7141 143.6 34.5141C143.6 33.2141 143.8 31.9141 144.3 30.6141C145.5 28.0141 148.2 26.4141 151.1 26.6141C152 26.6141 153 26.7141 153.9 26.9141V23.9141C153.9 22.1141 153.9 21.2141 153.6 20.8141C153.4 20.5141 153.1 20.4141 152 20.3141L152.2 19.8141ZM151.7 39.5141C152.5 39.6141 153.3 39.4141 154 39.0141V29.5141C153.2 28.8141 152.2 28.5141 151.2 28.5141C148.4 28.5141 147.1 30.4141 147.1 34.3141C147.1 35.9141 147.6 39.5141 151.7 39.5141ZM73.9004 39.9141C72.9004 41.0141 71.5004 41.6141 70.0004 41.6141C67.8004 41.6141 66.6004 40.8141 66.0004 39.0141C65.8004 38.1141 65.8004 37.1141 65.8004 36.1141C65.8004 33.8141 65.8004 32.0141 65.9004 29.9141V28.9141H64.0004V28.3141C64.6004 28.1141 65.2004 27.7141 65.8004 27.3141C66.9004 26.4141 67.8004 25.2141 68.4004 23.9141H69.0004V27.1141H74.0004V28.9141H69.2004V36.4141C69.2004 38.7141 69.6004 39.9141 71.7004 39.9141C72.4004 39.9141 73.1004 39.7141 73.7004 39.4141L73.9004 39.9141Z" fill="white"/>
<path d="M141.7 53.314C141.4 53.314 141.2 53.414 141 53.514C140.9 53.614 140.8 53.814 140.8 53.914C140.8 54.214 140.9 54.514 141 54.814L142.3 58.314C142.5 58.814 142.7 59.314 142.7 59.614L144.4 54.814C144.5 54.514 144.6 54.214 144.6 53.914C144.6 53.814 144.5 53.614 144.4 53.514C144.2 53.314 143.9 53.314 143.7 53.314V52.814C144 52.814 144.2 52.814 144.5 52.914C144.7 52.914 145.1 53.014 145.4 53.014C146 53.014 146.6 53.014 147.2 52.914V53.314C147 53.314 146.4 53.214 145.9 54.614L142.4 63.914C141.9 65.214 141.2 66.914 138.8 66.914C138 67.014 137.2 66.714 136.6 66.214V65.914L137.5 64.914H137.7C138 65.414 138.5 65.814 139.1 65.714C140.2 65.714 140.7 64.714 141.4 62.814L141.6 62.214L138.7 54.614C138.7 54.514 138.6 54.414 138.6 54.314C138.5 54.114 138.4 53.814 138.4 53.814C138.2 53.514 137.9 53.314 137.5 53.314V52.814C138.1 52.914 139 52.914 139.5 52.914C139.9 52.914 140.4 52.914 140.8 52.814C141.1 52.814 141.4 52.814 141.7 52.714V53.314ZM109.3 53.114C110 53.114 110.6 53.114 111.3 52.914C111.7 52.814 112 52.714 112.4 52.614L112.6 52.714V53.514C113.1 52.914 113.9 52.614 114.7 52.614C115.3 52.614 115.9 52.814 116.3 53.114V53.414L115.6 54.814H115.2C114.9 54.314 114.3 53.914 113.7 54.014C113.4 54.014 113 54.114 112.7 54.314V58.914C112.6 59.614 112.7 60.314 112.9 60.914C113.1 61.314 113.9 61.314 114.3 61.314V61.714C113.7 61.614 112.6 61.614 111.9 61.614C111.1 61.614 110.3 61.614 109.5 61.714V61.214C109.9 61.214 110.2 61.114 110.5 60.814C110.8 60.514 110.8 59.814 110.8 58.214V55.614C110.8 54.514 110.8 54.014 110.6 53.814C110.5 53.614 110.1 53.514 109.6 53.514L109.3 53.114ZM68.6004 62.014C66.0004 62.014 64.6004 61.214 64.0004 59.514C63.7004 58.614 63.6004 57.614 63.7004 56.714V51.814C63.7004 50.314 63.6004 50.114 63.3004 49.814C63.0004 49.614 62.8004 49.514 62.4004 49.514V49.014C63.0004 49.114 64.0004 49.114 64.7004 49.114C65.5004 49.114 66.3004 49.114 67.0004 49.014V49.514C66.6004 49.514 66.3004 49.614 66.0004 49.914C65.7004 50.214 65.7004 50.814 65.7004 52.314V56.614C65.7004 59.214 65.9004 60.814 68.8004 60.814C71.7004 60.814 71.9004 59.114 71.9004 56.514V51.714C71.9004 50.214 71.8004 50.014 71.5004 49.714C71.2004 49.514 70.9004 49.414 70.6004 49.414V48.914C71.2004 48.914 71.9004 49.014 72.6004 49.014C73.3004 49.014 74.0004 49.014 74.7004 48.914V49.414C74.3004 49.414 74.0004 49.514 73.7004 49.814C73.4004 50.114 73.4004 50.714 73.4004 52.214V55.914C73.5004 57.114 73.3004 58.314 73.0004 59.414C72.7004 61.214 71.1004 62.014 68.6004 62.014ZM86.0004 61.514C86.4004 61.514 86.7004 61.414 87.0004 61.114C87.3004 60.714 87.3004 60.014 87.3004 58.414V55.814C87.3004 54.714 87.3004 54.114 87.1004 53.914C87.0004 53.714 86.7004 53.614 86.1004 53.514V53.114C86.8004 53.114 87.5004 53.114 88.2004 52.914C88.5004 52.914 88.9004 52.714 89.2004 52.614L89.4004 52.814C89.3004 53.414 89.3004 54.714 89.3004 56.414V59.014C89.2004 59.714 89.3004 60.314 89.5004 61.014C89.8004 61.314 90.2004 61.514 90.6004 61.414V61.814C90.0004 61.714 89.1004 61.714 88.3004 61.714C87.5004 61.714 86.7004 61.714 85.9004 61.814C86.0004 61.914 86.0004 61.514 86.0004 61.514ZM88.3004 51.014C87.7004 51.114 87.2004 50.714 87.2004 50.114C87.2004 50.014 87.2004 50.014 87.2004 49.914C87.2004 49.314 87.7004 48.714 88.3004 48.714H88.4004C89.0004 48.614 89.5004 49.114 89.6004 49.714V49.814C89.6004 50.514 89.0004 51.014 88.3004 51.014ZM124.7 61.514C125.1 61.514 125.4 61.414 125.7 61.114C126 60.814 126 60.114 126 58.514V55.914C126 54.814 126 54.214 125.8 54.014C125.7 53.814 125.4 53.714 124.8 53.614V53.114C125.5 53.114 126.2 53.114 126.9 52.914C127.2 52.814 127.6 52.714 127.9 52.614L128.1 52.814C128 53.414 128 54.714 128 56.414V59.114C127.9 59.814 128 60.414 128.2 61.114C128.5 61.414 128.9 61.614 129.3 61.514V61.914C128.7 61.814 127.8 61.814 127 61.814C126.2 61.814 125.4 61.814 124.6 61.914L124.7 61.514ZM126.9 51.014C126.3 51.114 125.8 50.714 125.7 50.114C125.7 50.014 125.7 50.014 125.7 49.914C125.7 49.314 126.2 48.714 126.8 48.714H126.9C127.5 48.614 128 49.014 128.1 49.614C128.1 49.714 128.1 49.714 128.1 49.814C128.1 50.414 127.6 51.014 127 51.014C127 51.014 127 51.014 126.9 51.014ZM117.3 61.514C117.3 60.714 117.3 59.914 117.2 59.114H117.8C117.8 59.514 117.9 59.914 118.2 60.314C118.6 60.814 119.2 61.014 119.8 60.914H119.9C120.9 60.914 121.4 60.514 121.4 59.614C121.4 58.914 121 58.614 120.2 58.214L118.9 57.414C118 57.014 117.4 56.114 117.4 55.114C117.3 54.214 117.8 53.314 118.7 52.814C119.3 52.614 119.9 52.514 120.5 52.514C121.3 52.514 122.1 52.614 122.9 52.714C122.9 53.114 122.8 53.414 122.8 53.814C122.8 54.214 122.8 54.614 122.9 55.014H122.3C122.3 54.614 122.2 54.314 121.9 54.014C121.5 53.614 121 53.514 120.5 53.514C119.6 53.514 119.1 53.914 119.1 54.714C119.1 55.314 119.6 55.614 120 55.914H120.1L121.3 56.614C122.3 57.014 123.1 58.014 123.1 59.114C123.1 61.514 120.9 61.914 119.6 61.914C118.9 61.914 118.1 61.814 117.3 61.514ZM136.5 61.014C135.9 61.714 135 62.114 134.1 62.014C132.7 62.014 131.9 61.514 131.6 60.314C131.5 59.714 131.5 59.114 131.5 58.514C131.5 57.014 131.5 55.914 131.6 54.514V53.914H130.4V53.514C130.8 53.314 131.2 53.114 131.6 52.914C132.3 52.314 132.9 51.514 133.3 50.714H133.7V52.714H136.8V53.814H133.7V58.614C133.7 60.014 133.9 60.914 135.3 60.914C135.8 60.914 136.2 60.814 136.6 60.514L136.5 61.014ZM95.1004 52.814C94.8004 52.814 94.5004 52.814 94.2004 52.914C93.7004 52.914 93.2004 53.014 92.9004 53.014C92.2004 53.014 91.6004 53.014 90.9004 52.914V53.414C91.3004 53.414 91.7004 53.614 91.8004 53.914C91.9004 54.114 92.0004 54.314 92.0004 54.414C92.1004 54.514 92.1004 54.614 92.1004 54.714L95.0004 62.014L95.9004 61.914L99.1004 54.714C99.1004 54.614 99.2004 54.614 99.2004 54.514C99.3004 54.314 99.4004 54.114 99.5004 54.014C99.7004 53.714 100 53.514 100.4 53.514V53.014C100 53.014 99.2004 53.114 98.6004 53.114C98.3004 53.114 98.0004 53.114 97.7004 53.014C97.5004 53.014 97.1004 52.914 96.8004 52.914V53.314C97.1004 53.314 97.3004 53.414 97.5004 53.514C97.6004 53.614 97.7004 53.714 97.7004 53.914C97.7004 54.214 97.6004 54.514 97.5004 54.814L96.0004 59.114C95.9004 58.714 95.8004 58.414 95.6004 58.014L94.4004 54.814C94.3004 54.514 94.2004 54.214 94.2004 53.914C94.2004 53.814 94.2004 53.714 94.3004 53.614C94.5004 53.414 94.8004 53.314 95.1004 53.314V52.814ZM75.2004 53.114C75.8004 53.114 76.4004 53.114 77.0004 53.014C77.4004 52.914 77.8004 52.814 78.2004 52.614L78.4004 52.714V53.414C79.2004 52.914 80.1004 52.614 81.0004 52.514C82.4004 52.314 83.7004 53.214 84.0004 54.614C84.1004 55.114 84.1004 55.714 84.1004 56.314V58.914C84.1004 60.414 84.2004 60.814 84.4004 61.114C84.7004 61.314 85.0004 61.414 85.3004 61.314V61.714C84.7004 61.614 83.6004 61.614 83.0004 61.614C82.2004 61.614 81.5004 61.614 80.7004 61.714V61.314C81.0004 61.314 81.4004 61.114 81.6004 60.914C81.8004 60.714 81.9004 60.114 82.0004 59.014V57.414C82.0004 56.714 82.0004 56.014 81.9004 55.314C81.9004 54.414 81.2004 53.514 80.2004 53.514C80.1004 53.514 80.0004 53.514 79.9004 53.514C79.3004 53.514 78.7004 53.614 78.2004 53.914V58.714C78.2004 60.214 78.3004 60.614 78.6004 60.914C78.9004 61.114 79.2004 61.214 79.5004 61.114V61.514C78.8004 61.414 77.8004 61.414 77.2004 61.414C76.4004 61.414 75.7004 61.414 74.9004 61.514V61.114C75.3004 61.114 75.6004 61.014 75.9004 60.714C76.2004 60.414 76.2004 59.614 76.2004 58.114V55.514C76.2004 54.414 76.2004 53.914 76.0004 53.714C75.9004 53.514 75.6004 53.414 75.0004 53.414L75.2004 53.114ZM104.9 61.914C102.1 61.914 100.7 60.314 100.7 57.414C100.7 56.914 100.8 52.414 105 52.414C106.1 52.314 107.2 52.814 107.8 53.714C108.2 54.414 108.5 55.314 108.4 56.114V56.614H102.7C102.7 57.014 102.7 57.414 102.8 57.814C102.9 59.314 104.2 60.514 105.7 60.414H105.8C106.6 60.414 107.3 60.314 107.9 59.914L108.1 60.314C107.4 61.514 106.2 62.014 104.9 61.914ZM102.7 55.914H106.2C106.2 54.814 106 53.614 104.4 53.614C103 53.614 102.7 55.014 102.7 55.914Z" fill="white"/>
</svg>
