<svg width="210" height="85" viewBox="0 0 210 85" fill="none" xmlns="http://www.w3.org/2000/svg">
<path d="M77.7764 49.3911C76.8764 49.3911 76.2764 48.5911 76.2764 47.5911V40.3911H79.5764V36.6911H76.2764V32.2911H71.9764V36.6911H69.2764V40.3911H71.9764V48.7911C71.9764 51.6911 73.5764 53.2911 76.4764 53.2911C77.7764 53.3911 78.9764 52.9911 79.9764 52.1911L79.1764 48.8911C78.8764 49.2911 78.3764 49.4911 77.7764 49.3911Z" fill="white"/>
<path d="M88.9762 36.2911C84.4762 36.1911 80.6762 39.8911 80.5762 44.3911V44.6911C80.5762 49.8911 84.2762 53.1911 89.1762 53.1911C91.5762 53.2911 93.9762 52.4911 95.8762 50.8911L93.8762 48.1911C92.6762 49.1911 91.1762 49.6911 89.5762 49.7911C87.3762 49.9911 85.2762 48.3911 84.8762 46.1911H96.8762V45.1911C97.0762 39.8911 93.7762 36.2911 88.9762 36.2911ZM84.9762 43.1911C85.2762 40.9911 87.2762 39.4911 89.4762 39.7911C91.2762 39.9911 92.6762 41.3911 92.8762 43.1911H84.9762Z" fill="white"/>
<path d="M108.477 36.2911C106.377 36.2911 104.277 37.1911 102.777 38.7911V36.6911H98.4766V52.7911H102.777V41.8911C103.677 40.6911 104.977 40.0911 106.477 39.9911C108.277 39.9911 109.477 40.7911 109.477 42.9911V52.7911H113.777V41.4911C113.777 38.2911 112.077 36.2911 108.477 36.2911Z" fill="white"/>
<path d="M123.077 36.2911C120.477 36.1911 117.977 37.0911 115.977 38.7911L117.677 41.7911C118.977 40.5911 120.577 39.8911 122.377 39.8911C124.477 39.8911 125.877 40.9911 125.877 42.5911V44.6911C124.577 43.2911 122.677 42.5911 120.777 42.6911C118.177 42.6911 115.177 44.0911 115.177 47.8911C115.177 50.7911 117.577 53.1911 120.477 53.1911C120.577 53.1911 120.677 53.1911 120.677 53.1911C122.577 53.2911 124.477 52.4911 125.777 51.0911V52.7911H130.077V42.3911C130.177 37.7911 126.777 36.2911 123.077 36.2911ZM125.877 48.9911C124.977 49.8911 123.777 50.4911 122.477 50.3911C120.777 50.3911 119.377 49.4911 119.377 47.9911C119.377 46.4911 120.777 45.4911 122.477 45.4911C123.777 45.3911 124.977 45.9911 125.877 46.9911V48.9911Z" fill="white"/>
<path d="M141.177 36.2911C139.177 36.2911 137.377 37.1911 136.177 38.7911V30.5911H131.877V52.8911H136.177V50.7911C137.377 52.2911 139.177 53.2911 141.177 53.2911C145.277 53.2911 148.277 50.1911 148.277 44.7911C148.277 39.4911 145.277 36.2911 141.177 36.2911ZM139.877 49.3911C138.477 49.3911 137.077 48.6911 136.177 47.5911V41.8911C137.077 40.7911 138.377 40.0911 139.877 39.9911C142.377 39.9911 143.977 41.8911 143.977 44.6911C143.977 47.5911 142.377 49.3911 139.877 49.3911Z" fill="white"/>
<path d="M154.076 30.5911H149.776V52.8911H154.076V30.5911Z" fill="white"/>
<path d="M163.976 36.2911C159.476 36.1911 155.676 39.8911 155.576 44.3911V44.6911C155.576 49.8911 159.276 53.1911 164.176 53.1911C166.576 53.2911 168.976 52.4911 170.876 50.8911L168.976 48.0911C167.776 49.0911 166.276 49.5911 164.676 49.6911C162.476 49.8911 160.376 48.2911 159.976 46.0911H171.976V45.0911C171.976 39.8911 168.776 36.2911 163.976 36.2911ZM160.076 43.1911C160.376 40.9911 162.376 39.4911 164.576 39.7911C166.376 39.9911 167.776 41.3911 167.976 43.1911H160.076Z" fill="white"/>
<path d="M173.177 35.8911C173.277 35.7911 173.277 35.6911 173.277 35.5911C173.277 35.2911 173.077 35.0911 172.577 35.0911H172.177V36.5911H172.477V35.9911H172.577L172.877 36.5911H173.277L172.877 35.8911C172.977 35.9911 173.077 35.8911 173.177 35.8911ZM172.577 35.7911H172.477V35.2911H172.577C172.677 35.2911 172.777 35.2911 172.877 35.3911C172.977 35.4911 172.977 35.4911 172.977 35.5911C172.877 35.6911 172.777 35.7911 172.577 35.7911Z" fill="white"/>
<path d="M173.876 35.1911C173.676 34.7911 173.176 34.4911 172.676 34.4911C172.376 34.4911 172.176 34.5911 171.976 34.6911C171.776 34.7911 171.576 34.9911 171.476 35.1911C171.376 35.3911 171.276 35.6911 171.276 35.8911C171.276 36.1911 171.376 36.3911 171.476 36.5911C171.676 36.9911 172.176 37.2911 172.676 37.2911C172.976 37.2911 173.176 37.1911 173.376 37.0911C173.576 36.9911 173.776 36.7911 173.876 36.5911C173.976 36.3911 174.076 36.0911 174.076 35.8911C173.976 35.6911 173.976 35.3911 173.876 35.1911ZM173.576 36.4911C173.476 36.6911 173.376 36.7911 173.176 36.8911C172.976 36.9911 172.776 36.9911 172.576 36.9911C172.376 36.9911 172.176 36.9911 172.076 36.8911C171.976 36.7911 171.776 36.5911 171.676 36.4911C171.476 36.0911 171.476 35.6911 171.676 35.2911C171.776 35.0911 171.876 34.9911 172.076 34.8911C172.276 34.7911 172.376 34.6911 172.576 34.7911C172.776 34.7911 172.976 34.8911 173.176 34.8911C173.376 34.9911 173.476 35.0911 173.576 35.2911C173.776 35.6911 173.776 36.0911 173.576 36.4911Z" fill="white"/>
<path d="M62.8766 32.2911C62.9766 32.5911 63.2766 33.7911 63.5766 34.8911L65.8766 43.6911C66.1766 44.7911 66.4766 45.9911 66.5766 46.2911C66.6766 46.7911 66.5766 47.2911 66.2766 47.5911L64.3766 49.4911L57.8766 55.9911L55.9766 57.8911C55.5766 58.1911 55.0766 58.3911 54.6766 58.1911C54.3766 58.0911 53.1766 57.7911 52.0766 57.4911L43.2766 55.1911C42.1766 54.8911 40.9766 54.5911 40.6766 54.4911C40.4766 54.3911 40.1766 54.2911 40.0766 54.0911C39.8766 53.8911 39.7766 53.6911 39.6766 53.4911C39.5766 53.1911 39.2766 51.9911 38.9766 50.8911L36.6766 41.9911C36.3766 40.8911 36.0766 39.6911 35.9766 39.3911L36.2766 39.2911L36.5766 39.1911C36.6766 39.4911 36.9766 40.6911 37.2766 41.7911L39.6766 50.5911C39.9766 51.6911 40.2766 52.8911 40.3766 53.1911C40.4766 53.2911 40.4766 53.3911 40.6766 53.4911C40.7766 53.5911 40.8766 53.5911 40.9766 53.6911L43.5766 54.3911L52.3766 56.6911C53.4766 56.9911 54.6766 57.2911 54.9766 57.3911C55.1766 57.4911 55.4766 57.3911 55.6766 57.1911L57.5766 55.2911L64.0766 48.7911L65.9766 46.8911C66.0766 46.6911 66.1766 46.4911 66.1766 46.1911C66.0766 45.8911 65.7766 44.6911 65.4766 43.5911L63.0766 34.8911C62.7766 33.7911 62.4766 32.5911 62.3766 32.2911C62.2766 32.1911 62.2766 32.0911 62.1766 31.9911C62.1766 31.8911 62.0766 31.8911 61.8766 31.7911L59.2766 31.0911L50.4766 28.7911C49.3766 28.4911 48.1766 28.1911 47.8766 28.0911C47.6766 27.9911 47.3766 28.0911 47.1766 28.2911L45.0766 30.2911L38.6766 36.6911L36.8766 38.6911C36.7766 38.8911 36.6766 39.0911 36.6766 39.3911L36.3766 39.4911L36.0766 39.5911C35.9766 39.0911 36.0766 38.5911 36.3766 38.2911L38.2766 36.3911L44.7766 29.8911L46.6766 27.9911C47.0766 27.6911 47.5766 27.4911 47.9766 27.6911C48.2766 27.7911 49.4766 28.0911 50.5766 28.3911L59.3766 30.6911C60.4766 30.9911 61.6766 31.2911 61.9766 31.3911C62.1766 31.4911 62.4766 31.5911 62.5766 31.7911C62.6766 31.8911 62.7766 32.0911 62.8766 32.2911Z" fill="white"/>
<path d="M51.8764 29.9911C52.1764 30.0911 52.9764 30.6911 53.7764 31.0911L60.2764 34.7911C61.0764 35.2911 61.9764 35.7911 62.1764 35.8911C62.4764 36.0911 62.7764 36.4911 62.7764 36.8911V48.8911C62.7764 49.2911 62.5764 49.6911 62.1764 49.8911C61.8764 49.9911 61.0764 50.5911 60.2764 50.9911L53.7764 54.6911C52.9764 55.1911 52.0764 55.6911 51.8764 55.7911C51.4764 55.9911 51.0764 55.9911 50.7764 55.7911C50.4764 55.6911 49.6764 55.0911 48.8764 54.6911L42.3764 50.9911L40.4764 49.8911L40.5764 49.5911L40.6764 49.2911L42.5764 50.3911L49.0764 54.0911L50.9764 55.1911C51.0764 55.2911 51.1764 55.2911 51.2764 55.2911C51.3764 55.2911 51.4764 55.2911 51.5764 55.1911L53.4764 54.0911L59.9764 50.3911L61.8764 49.2911C61.9764 49.1911 62.0764 48.9911 62.1764 48.7911V36.9911C62.1764 36.7911 62.0764 36.5911 61.8764 36.4911C61.5764 36.3911 60.7764 35.7911 59.9764 35.3911L53.4764 31.6911C52.6764 31.1911 51.7764 30.6911 51.5764 30.5911C51.3764 30.4911 51.1764 30.4911 51.0764 30.5911L49.1764 31.6911L42.6764 35.3911C41.8764 35.8911 40.9764 36.3911 40.7764 36.4911C40.6764 36.5911 40.5764 36.7911 40.4764 36.9911V48.8911C40.4764 49.0911 40.5764 49.2911 40.7764 49.3911L40.6764 49.6911L40.4764 49.8911C40.0764 49.6911 39.8764 49.2911 39.7764 48.8911V36.9911C39.7764 36.5911 39.9764 36.1911 40.3764 35.9911C40.6764 35.8911 41.4764 35.2911 42.2764 34.8911L48.7764 31.1911C49.5764 30.6911 50.4764 30.1911 50.6764 30.0911C50.8764 29.9911 51.0764 29.9911 51.2764 29.9911C51.5764 29.8911 51.6764 29.8911 51.8764 29.9911Z" fill="white"/>
<path d="M43.5766 34.2911L45.4766 33.7911L51.9766 32.0911C52.7766 31.8911 53.6766 31.5911 53.8766 31.5911C54.2766 31.4911 54.5766 31.5911 54.8766 31.8911L56.2766 33.2911L60.9766 37.9911L62.3766 39.3911C62.5766 39.6911 62.6766 39.9911 62.6766 40.3911C62.5766 40.6911 62.3766 41.4911 62.1766 42.2911L60.4766 48.7911C60.2766 49.5911 59.9766 50.4911 59.9766 50.6911C59.8766 51.0911 59.5766 51.2911 59.2766 51.3911C58.9766 51.4911 58.1766 51.6911 57.3766 51.8911L50.8766 53.5911C50.0766 53.7911 49.1766 54.0911 48.9766 54.0911L48.7766 53.8911L48.6766 53.5911L50.5766 53.0911L57.0766 51.3911C57.8766 51.1911 58.7766 50.8911 58.9766 50.8911C59.0766 50.8911 59.0766 50.7911 59.1766 50.7911C59.2766 50.7911 59.2766 50.6911 59.2766 50.5911C59.3766 50.2911 59.5766 49.4911 59.7766 48.6911L61.4766 42.1911C61.6766 41.3911 61.9766 40.4911 61.9766 40.2911C61.9766 40.0911 61.9766 39.9911 61.8766 39.7911L60.4766 38.3911L55.6766 33.6911L54.2766 32.2911C54.1766 32.1911 53.9766 32.0911 53.7766 32.1911C53.4766 32.2911 52.6766 32.4911 51.8766 32.6911L45.3766 34.3911C44.5766 34.5911 43.6766 34.8911 43.4766 34.8911C43.3766 34.8911 43.3766 34.9911 43.2766 34.9911C43.1766 35.0911 43.1766 35.0911 43.1766 35.1911C43.0766 35.4911 42.8766 36.2911 42.6766 37.0911L40.9766 43.5911C40.7766 44.3911 40.4766 45.2911 40.4766 45.4911C40.4766 45.6911 40.4766 45.7911 40.5766 45.9911L41.9766 47.3911L46.6766 52.0911L48.0766 53.4911C48.1766 53.5911 48.3766 53.6911 48.5766 53.5911L48.6766 53.8911L48.7766 54.1911C48.3766 54.2911 48.0766 54.1911 47.7766 53.8911L46.3766 52.4911L41.6766 47.7911L40.2766 46.3911C40.0766 46.0911 39.9766 45.7911 39.9766 45.3911C40.0766 45.0911 40.2766 44.2911 40.4766 43.4911L42.1766 36.9911C42.3766 36.1911 42.6766 35.2911 42.6766 35.0911C42.6766 34.8911 42.7766 34.7911 42.9766 34.5911C43.2766 34.4911 43.3766 34.3911 43.5766 34.2911Z" fill="white"/>
<path d="M41.8766 52.3911C36.6766 47.1911 36.6766 38.6911 41.8766 33.3911C47.0766 28.0911 55.5766 28.1911 60.8766 33.3911C66.0766 38.5911 66.0766 47.0911 60.8766 52.2911C55.5766 57.5911 47.0766 57.5911 41.8766 52.3911ZM60.3766 51.9911C65.2766 46.9911 65.2766 38.8911 60.2766 33.9911C55.2766 29.0911 47.1766 29.0911 42.2766 34.0911C37.3766 39.0911 37.3766 47.0911 42.3766 52.0911C47.2766 56.9911 55.3766 56.8911 60.3766 51.9911Z" fill="white"/>
<path d="M51.777 33.2911L53.177 34.0911L57.977 36.8911L59.377 37.6911C59.677 37.8911 59.777 38.0911 59.777 38.3911V47.1911C59.777 47.4911 59.577 47.7911 59.377 47.8911C59.177 47.9911 58.577 48.3911 57.977 48.6911L53.177 51.4911C52.577 51.7911 51.877 52.1911 51.777 52.2911C51.477 52.3911 51.177 52.3911 50.877 52.2911L49.477 51.4911L44.677 48.6911L43.277 47.8911L43.377 47.6911L43.477 47.4911L44.877 48.2911L49.677 51.0911C50.277 51.3911 50.977 51.7911 51.077 51.8911C51.177 51.9911 51.377 51.9911 51.477 51.8911C51.677 51.7911 52.277 51.3911 52.877 51.0911L57.677 48.2911L59.077 47.4911C59.177 47.3911 59.277 47.2911 59.277 47.0911V38.2911C59.277 38.0911 59.177 37.9911 59.077 37.8911C58.877 37.7911 58.277 37.3911 57.677 37.0911L52.877 34.2911C52.277 33.9911 51.577 33.5911 51.477 33.4911C51.377 33.3911 51.177 33.3911 51.077 33.4911C50.877 33.5911 50.277 33.9911 49.677 34.2911L44.877 37.0911L43.477 37.8911C43.377 37.9911 43.277 38.0911 43.277 38.2911V47.0911C43.277 47.2911 43.377 47.3911 43.477 47.4911L43.377 47.6911L43.277 47.8911C43.077 47.8911 42.877 47.5911 42.877 47.2911V38.4911C42.877 38.1911 43.077 37.8911 43.277 37.7911C43.477 37.6911 44.077 37.2911 44.677 36.9911L49.477 34.1911L50.877 33.3911C50.977 33.2911 51.177 33.2911 51.277 33.2911C51.477 33.1911 51.577 33.1911 51.777 33.2911Z" fill="white"/>
<path d="M44.2766 49.7911C40.3766 45.8911 40.3766 39.5911 44.2766 35.7911C48.1766 31.9911 54.4766 31.8911 58.2766 35.7911C62.1766 39.6911 62.1766 45.9911 58.2766 49.7911C54.4766 53.6911 48.1766 53.6911 44.2766 49.7911ZM57.9766 49.4911C61.6766 45.7911 61.5766 39.7911 57.8766 36.0911C54.1766 32.3911 48.1766 32.4911 44.4766 36.1911C40.8766 39.8911 40.8766 45.7911 44.4766 49.4911C48.2766 53.1911 54.1766 53.1911 57.9766 49.4911Z" fill="white"/>
</svg>
