<svg width="210" height="85" viewBox="0 0 210 85" fill="none" xmlns="http://www.w3.org/2000/svg">
<path fill-rule="evenodd" clip-rule="evenodd" d="M47.9544 46.0061C48.9544 43.6061 49.8544 41.406 50.8544 39.106C51.2544 38.206 51.6545 37.206 52.0545 36.306C53.5545 33.006 57.4544 31.606 60.7544 33.106C61.4544 33.406 62.1544 33.9061 62.7544 34.5061C63.3544 35.1061 63.5544 34.9061 64.0544 34.5061C66.2544 32.6061 69.2545 32.0061 72.0545 32.9061C73.0545 33.2061 73.8545 33.7061 74.5545 34.5061C75.0545 35.1061 75.2544 35.006 75.7544 34.606C78.3544 32.606 81.2544 31.906 84.2544 33.206C86.6544 34.106 88.2544 36.506 88.1544 39.106C88.2544 42.706 88.1544 46.406 88.1544 50.0061C88.2544 51.6061 87.0544 53.006 85.4544 53.106C85.2544 53.106 85.0545 53.106 84.8545 53.106C83.3545 53.006 82.1545 51.706 82.3545 50.106V50.0061V40.306C82.3545 38.906 81.2545 37.706 79.8545 37.606C78.3545 37.306 76.9545 38.206 76.5545 39.606C76.4545 40.006 76.3544 40.5061 76.4544 41.0061V49.9061C76.6544 51.3061 75.7544 52.7061 74.3544 53.0061C72.8544 53.5061 71.3544 52.706 70.8544 51.206C70.7544 51.106 70.7544 50.906 70.7544 50.706C70.6544 50.306 70.6544 49.906 70.6544 49.5061V40.5061C70.7544 39.4061 70.1544 38.306 69.1544 37.806C68.0544 37.206 66.7544 37.406 65.7544 38.106C64.9544 38.706 64.5544 39.706 64.6544 40.706V50.0061C64.7544 51.5061 63.6544 52.906 62.1544 53.0061H61.6544C60.0544 53.0061 58.9544 51.706 58.9544 49.806V38.606C59.0544 38.206 58.7544 37.806 58.3544 37.806C57.9544 37.706 57.5544 37.906 57.3544 38.306L55.5544 42.206C54.3544 44.906 53.1544 47.506 51.9544 50.106C51.6544 50.706 51.3545 51.206 51.0545 51.706C49.9544 53.306 47.7544 53.806 46.0545 52.706C45.7544 52.406 45.3544 52.106 45.1544 51.806C44.4544 50.806 43.9544 49.706 43.4544 48.606C41.6544 44.706 39.8544 40.806 38.0544 36.806C37.2544 35.506 37.6544 33.806 38.9544 33.106C39.0544 33.006 39.1544 33.0061 39.2544 32.9061C40.6544 32.2061 42.2544 32.806 42.9544 34.206C43.0544 34.306 43.0544 34.406 43.0544 34.606C44.5544 38.206 46.1545 41.8061 47.5545 45.4061C47.6545 45.5061 47.7544 45.7061 47.9544 46.0061Z" fill="white"/>
<path fill-rule="evenodd" clip-rule="evenodd" d="M103.555 37.9061L101.355 44.206C100.555 46.706 99.5547 49.1061 98.7547 51.5061C98.4547 52.4061 97.9547 52.8061 97.1547 52.9061C96.3547 52.9061 95.6547 52.406 95.3547 51.6061C93.3547 46.1061 91.3547 40.5061 89.3547 35.0061C89.0547 34.3061 89.2547 33.5061 89.9547 33.1061C89.9547 33.1061 90.0547 33.1061 90.0547 33.0061C90.8547 32.7061 91.6547 33.106 91.9547 33.806C91.9547 33.906 92.0547 33.9061 92.0547 34.1061C93.5547 38.4061 95.1547 42.806 96.5547 47.206C96.6547 47.506 96.7547 47.806 96.9547 48.206C97.6547 46.106 98.3547 44.106 99.0547 42.206C99.9547 39.506 100.855 36.906 101.755 34.306C102.155 33.306 102.455 32.9061 103.355 33.0061C104.155 33.0061 104.555 33.3061 104.955 34.4061C106.455 38.7061 107.955 43.006 109.355 47.306C109.455 47.606 109.555 48.006 109.755 48.306C110.555 46.106 111.255 44.0061 111.955 41.9061C112.855 39.3061 113.755 36.806 114.655 34.206C114.855 33.606 115.155 33.2061 115.755 33.0061C116.455 32.8061 117.255 33.2061 117.455 34.0061C117.555 34.3061 117.555 34.6061 117.355 34.9061C116.855 36.3061 116.355 37.806 115.755 39.206C114.255 43.306 112.855 47.3061 111.355 51.4061C111.255 51.5061 111.255 51.606 111.255 51.706C111.055 52.406 110.355 52.9061 109.555 52.9061C108.755 52.9061 108.155 52.406 107.955 51.6061C107.255 49.6061 106.555 47.6061 105.855 45.6061L103.355 38.4061C103.855 38.3061 103.755 38.1061 103.555 37.9061Z" fill="white"/>
<path fill-rule="evenodd" clip-rule="evenodd" d="M132.154 49.9061C130.954 51.4061 129.254 52.5061 127.354 52.9061C124.454 53.5061 121.754 53.2061 119.554 51.0061C117.354 48.7061 117.354 45.1061 119.554 42.8061C119.854 42.5061 120.254 42.2061 120.654 42.0061C122.054 41.2061 123.554 40.8061 125.154 40.7061C127.254 40.6061 129.354 40.8061 131.454 41.3061C132.054 41.5061 132.054 41.3061 132.054 40.8061C132.254 38.2061 130.254 35.9061 127.654 35.7061C127.554 35.7061 127.454 35.7061 127.254 35.7061C125.354 35.5061 123.554 35.8061 121.754 36.5061C121.154 36.8061 120.454 36.6061 120.154 36.0061V35.9061C120.154 35.9061 120.154 35.8061 120.054 35.8061C119.754 35.2061 120.054 34.5061 120.654 34.2061H120.754C124.054 32.7061 127.754 32.6061 131.154 33.9061C133.354 34.8061 134.754 36.9061 134.854 39.3061C135.054 41.9061 135.054 44.4061 134.954 47.0061V51.5061C135.054 52.3061 134.454 53.0061 133.754 53.1061C133.054 53.2061 132.354 52.7061 132.154 52.0061V51.7061C132.154 51.0061 132.154 50.5061 132.154 49.9061ZM126.654 42.9061C125.154 42.8061 123.654 43.2061 122.354 44.0061C120.754 45.1061 120.354 47.3061 121.454 48.9061C121.654 49.2061 121.954 49.5061 122.254 49.7061C123.654 50.7061 125.454 51.1061 127.154 50.7061C129.454 50.2061 131.354 49.1061 132.054 46.7061C132.154 45.9061 132.254 45.1061 132.154 44.3061C132.254 43.9061 131.954 43.6061 131.654 43.5061H131.554C129.954 43.1061 128.354 42.9061 126.654 42.9061Z" fill="white"/>
<path fill-rule="evenodd" clip-rule="evenodd" d="M159.255 44.1061H152.855C152.355 44.1061 152.255 44.2061 152.255 44.7061C152.755 47.2061 154.055 49.2061 156.655 50.1061C159.255 51.0061 162.155 50.4061 164.155 48.5061C164.455 48.2061 164.855 47.9061 165.355 47.9061C165.855 47.9061 166.255 48.2061 166.455 48.7061C166.655 49.2061 166.555 49.7061 166.155 50.1061C162.455 53.9061 156.455 54.1061 152.455 50.6061C150.855 49.1061 149.855 47.1061 149.555 45.0061C148.855 41.7061 149.855 38.3061 152.055 35.8061C154.255 33.3061 157.655 32.3061 160.855 33.3061C164.255 34.2061 166.155 36.6061 167.055 39.9061C167.255 40.8061 167.355 41.7061 167.355 42.6061C167.355 43.8061 166.855 44.2061 165.655 44.2061C163.455 44.1061 161.355 44.1061 159.255 44.1061ZM158.255 41.9061H162.655C164.655 41.9061 164.655 41.9061 164.055 40.0061C163.055 36.6061 159.955 34.7061 156.755 35.7061C154.255 36.6061 152.555 38.9061 152.255 41.5061C152.155 42.0061 152.555 41.9061 152.855 41.9061C154.555 41.9061 156.455 41.9061 158.255 41.9061Z" fill="white"/>
<path fill-rule="evenodd" clip-rule="evenodd" d="M141.454 37.506C142.254 35.806 143.654 34.406 145.454 33.706C146.254 33.306 147.254 33.006 148.154 33.106C148.854 33.106 149.554 33.606 149.554 34.306C149.654 35.106 149.254 35.806 148.454 36.006C148.154 36.106 147.754 36.106 147.454 36.206C144.254 36.906 141.854 39.706 141.654 43.006C141.354 45.806 141.554 48.606 141.554 51.406C141.654 52.206 141.054 52.906 140.254 53.006C140.054 53.006 139.954 53.006 139.754 52.906C139.054 52.806 138.554 52.106 138.654 51.406V34.606C138.654 33.606 139.254 32.806 140.054 32.806C140.954 32.806 141.554 33.406 141.554 34.606V37.206C141.354 37.306 141.454 37.306 141.454 37.506Z" fill="white"/>
<path fill-rule="evenodd" clip-rule="evenodd" d="M172.355 35.4061C172.355 36.7061 171.255 37.8061 169.955 37.8061C168.655 37.8061 167.555 36.7061 167.555 35.4061C167.555 34.1061 168.555 33.0061 169.855 32.9061H169.955C171.255 32.9061 172.355 33.9061 172.355 35.2061V35.4061ZM169.955 33.4061C168.855 33.4061 168.055 34.2061 168.055 35.3061C168.055 36.4061 168.955 37.3061 169.955 37.3061C170.955 37.2061 171.855 36.4061 171.855 35.4061C171.855 34.3061 170.955 33.4061 169.955 33.4061Z" fill="white"/>
<path fill-rule="evenodd" clip-rule="evenodd" d="M169.754 34.2061C170.954 34.2061 171.154 34.6061 170.754 35.6061C170.654 35.9061 170.754 35.9061 170.854 36.1061C170.954 36.3061 171.054 36.4061 170.854 36.6061C170.654 36.7061 170.554 36.6061 170.354 36.5061C170.254 36.4061 170.154 36.3061 170.054 36.2061C169.754 35.9061 169.554 35.7061 169.554 36.3061C169.554 36.5061 169.454 36.7061 169.254 36.7061C169.054 36.7061 169.054 36.4061 168.954 36.2061V35.2061C168.954 34.4061 169.054 34.0061 169.754 34.2061ZM170.354 34.9061C170.254 34.6061 170.054 34.6061 169.854 34.6061C169.654 34.6061 169.554 34.7061 169.554 34.9061C169.554 35.1061 169.654 35.2061 169.954 35.2061C170.154 35.3061 170.354 35.2061 170.354 34.9061Z" fill="white"/>
<path fill-rule="evenodd" clip-rule="evenodd" d="M170.354 34.9061C170.354 35.1061 170.154 35.306 169.854 35.206C169.554 35.206 169.454 35.1061 169.454 34.9061C169.454 34.7061 169.554 34.606 169.754 34.606C170.154 34.606 170.354 34.7061 170.354 34.9061Z" fill="white"/>
</svg>
